<?xml version="1.0" standalone="no"?>
<!DOCTYPE svg PUBLIC "-//W3C//DTD SVG 1.1//EN" "http://www.w3.org/Graphics/SVG/1.1/DTD/svg11.dtd" >
<svg xmlns="http://www.w3.org/2000/svg">
<metadata></metadata>
<defs>
<font id="CrazyHaroldRegular" horiz-adv-x="2039" >
<font-face units-per-em="2048" ascent="1638" descent="-410" />
<missing-glyph horiz-adv-x="847" />
<glyph horiz-adv-x="0" />
<glyph horiz-adv-x="2048" />
<glyph unicode=" "  horiz-adv-x="847" />
<glyph unicode="&#x09;" horiz-adv-x="847" />
<glyph unicode="&#xa0;" horiz-adv-x="847" />
<glyph unicode="!" horiz-adv-x="946" d="M63 1640l33 13q72 -16 256 -17q215 0 469 19l27 -15l2 -28q-141 -281 -141 -580t108 -500l-2 -32l-31 -11q-80 20 -170 21q-47 0 -135 -19.5t-127 -19.5l-28 6q-10 27 -11 27q0 41 9.5 129t9.5 131q0 219 -64 442q-71 257 -200 400zM266 172q0 213 287 213 q299 0 299 -223q0 -131 -88 -185q-70 -38 -211 -38q-123 0 -199 53q-88 61 -88 180z" />
<glyph unicode="&#x22;" horiz-adv-x="743" d="M80 2099q0 -63 15.5 -196.5t15.5 -200.5q0 -104 -13 -182q0 -8 -8 -39t-8 -43l4 -27l23 -12h206q29 0 29 31q0 262 10 466q2 27 11 97q8 61 8 96l-6 25q-10 6 -25 10q-16 0 -49 -2h-47q-25 0 -69 6t-64 6q-33 0 -33 -35zM403 1436q1 0 5 -23q6 -12 120 -37 q109 -25 134 -24q25 0 24 24q0 47 -11 144.5t-11 146.5q0 164 51 328q2 8 2 10q0 31 -31 31h-215l-20 -8q-8 -23 -9 -23v-66q2 -43 2 -63q0 -172 -16 -309q-2 -14 -14 -66q-10 -43 -11 -65z" />
<glyph unicode="#" horiz-adv-x="3028" d="M10 735v92l6 13q-6 10 -6 30q0 12 4 38t4 38l-2 8l-4 4q4 43 4 103q0 57 -4 131q14 27 60 27q14 0 26 -9q49 10 56 11l16 -9q10 8 31 9q10 0 20 -11q0 -8 3 -22t3 -21l-8 -28q8 -12 8 -60v-87v-46q-2 -12 -2 -4l-6 -8v-8l6 -8v-7q2 -8 -4 -18l6 -19q23 0 39 -2q8 4 23 5 l6 -5q12 4 20 5q6 0 9 -3l12 7q31 -6 31 -56q0 -4 -9 -18l4 -14l-2 -11q7 -10 7 -30q0 -10 -2 -39q-8 -8 -33 -11l-43 -2l-6 7q-35 -4 -52 -5l-8 5q-43 -8 -37 -9q-68 0 -104 9q-10 -8 -43 -9l-12 4l-13 19q-2 4 -4 14zM37 874q0 -123 4 -139l8 -6q25 4 35 6q14 -6 35 -6 q43 0 53 6l16 -6q27 6 41 8l9 -6q31 2 47 4l6 -4q23 8 26 8q6 0 17 -2l6 4q0 8 -4 24.5t-4 25.5q0 6 3 18t3 18l-2 13l-4 4h-21l-4 -4q-16 0 -28 8q-45 -4 -72 2l-2 -6l-10 -2l-5 4l5 33q2 18 0 32l-5 7l-2 12q0 14 6.5 42.5t6.5 43.5q-4 10 -8 18q2 12 2 21l-5 4 q0 8 5.5 20.5t5.5 20.5q0 16 -13 28q0 4 4.5 15.5t4.5 15.5v25l-4 6q-10 0 -33 2t-33 2q-4 0 -11 -4t-10 -4q-4 0 -28 4q-14 2 -29 0l-6 -10v-47l8 -11v-10q0 -23 -5 -68t-5 -67l6 -21q0 -14 -5 -40.5t-5 -41.5zM424 956q10 12 10 31q0 61 25 103l10 2q2 18 24.5 39.5 t41.5 25.5q2 25 69 47q59 20 92 21q90 0 117 -27q53 -10 88 -51l6 -2q6 -8 19 -17l6 -20l16 -10q29 -55 31 -74l-4 -4q0 -10 6 -34t6 -36q0 -51 -20 -67q2 -29 -14.5 -58.5t-43.5 -36.5q-6 -18 -40.5 -43.5t-53.5 -25.5l-8 2q-29 -25 -92 -25q-45 0 -62 11l-2 -2 q-31 0 -92 24l-8 14q-25 6 -49 29q-4 6 -37 45l2 12q-12 18 -31 56l2 10q-12 41 -14 61zM455 942q0 -53 33.5 -103.5t82.5 -72.5q16 -39 160 -39q37 0 150 61q2 8 30.5 37t28.5 62v4q8 12 16 22q0 8 3.5 26t3.5 26q0 53 -35 114l-13 6q-61 111 -215 111q-49 0 -129 -35 q-12 -31 -43 -37q-12 -18 -30 -30q-2 -23 -22.5 -73t-20.5 -79zM612 963q0 6 4.5 16t4.5 16q0 14 -5 21q2 20 24 40.5t42 22.5l4 6q8 4 16 5q10 0 30 -12.5t22 -22.5l16 -6q12 -18 21 -27q0 -64 6 -84q-27 -66 -33 -74q-23 -31 -74 -30q-29 16 -43 22q-18 23 -24 27 q0 14 -5.5 39.5t-5.5 40.5zM639 958q0 -4 4 -14q6 -31 6 -47q8 -10 19 -27q4 0 13 -4t15 -4q-14 0 19 4q14 12 35 58q14 32 14 20q0 2 -2 6v54q-4 16 -27.5 34.5t-40.5 18.5l-4 -2q-20 -10 -28 -13q-4 -18 -17 -22q-4 14 -4 -47q0 -4 2 -6zM762 1614q0 86 41 153 q47 80 129 80q88 0 117 -118l24 -187q14 -10 49 -16q47 354 119 354l14 -10q-25 -55 -61 -172q-14 -72 -14 -123q0 -41 4 -59l28 4l11 -13l-11 -18l-22 -10q14 -47 41 -140q-8 -16 -34 -38.5t-42 -22.5q-43 0 -43 203q-16 4 -43 10q-35 -217 -104 -217q-59 0 -60 29l4 10 q43 109 76 196q-82 51 -82 78q0 29 31 37q12 -4 55 -41l2 59q2 49 -16 97q-23 59 -66 59q-53 0 -84 -61q-25 -49 -24 -109q0 -31 16 -65q18 -41 45 -41q6 0 18.5 5t18.5 5q18 0 19 -31q0 -39 -50 -39q-106 0 -106 152zM795 408q0 49 28.5 84.5t75.5 35.5q12 0 25 -2 q-4 66 -4 92q0 123 47 123q33 0 32 -24q0 -53 -2 -156.5t-2 -157.5q0 -70 17 -69l22 20l6 2l7 -6q0 -20 -17.5 -41.5t-38.5 -21.5q-12 0 -43 20q-45 -23 -69 -22q-84 0 -84 123zM862 420q0 -100 49 -101q17 1 17 15l-2 153q0 18 -15 19q-49 0 -49 -86zM1047 1108q0 61 2 76 q10 37 51 37l35 -9l12 9h14q31 0 43 -9q16 6 27 11q37 0 37 -41q0 -16 -6 -29q4 -45 4 -66l22 -4q6 0 27 4q6 76 6 62q0 8 -4 18q6 35 10 41q10 16 39 17l10 -6q14 4 31 4q18 0 37 -4l10 4l16 -4q10 4 21 4q16 0 33 -9q8 -12 8 -26q0 -12 -4 -37t-4 -37l6 -8q2 -98 -8 -123 q10 -27 10 -49q0 -104 -12 -119q12 -35 12 -78q0 -31 -47 -35q-4 -2 -76 -2q-12 0 -27 9l-16 -7q-49 2 -59 41v86q0 35 2 62l-13 10q-8 0 -30 -6q-6 -29 -6 -43q0 -6 3 -17.5t3 -17.5q0 -27 -6 -39q6 -37 8 -45q0 -35 -29 -35q-12 0 -27 4q-12 -6 -30 -6q-6 0 -31 11 q-23 -10 -53 -11q-16 0 -33 4q-14 27 -14 37q0 23 5 66t5 65q0 31 -2 93.5t-2 93.5q0 8 -5 26.5t-5 26.5zM1049 403q0 53 32.5 91t83.5 38q86 0 86 -98q0 -57 -41 -57q-43 0 -80 47q0 -102 60 -102q39 0 88 71q8 0 8 -16q0 -37 -44 -65.5t-83 -28.5q-111 0 -110 120z M1075 1178q0 -25 8 -37l-6 -37l2 -4q2 -127 11 -142q-6 -23 -5 -43q4 -35 7 -45q0 -23 -5.5 -64.5t-5.5 -64.5l6 -14l15 -2h119l14 4l2 14q0 8 -2 21.5t-2 21.5q8 14 8 23q0 8 -4 26.5t-4 26.5q0 -6 10 56q43 10 66 12l14 -8l12 2l4 -11q4 -33 -4 -94q4 -53 2 -80l6 -8l39 6 q12 -6 25 -6q8 0 22.5 2t22.5 2l6 -4q20 4 39 0l10 4q-12 45 -12 86q0 8 6 26.5t6 26.5q0 18 -6 56.5t-6 56.5q0 4 5 13.5t5 11.5q0 10 -4 28.5t-4 26.5l6 10q0 55 2 84l-2 31l-20 2l-8 -4q-25 2 -37 0l-8 6q-23 2 -60 -6l-10 6l-10 -4q-8 -66 -9 -117l5 -14q-8 0 -24.5 -3 t-25.5 -3q-8 0 -34 6q-4 -6 -15 -10l-6 8q4 72 -8 88q4 29 8 43l-6 4l-23 -12l-12 2l-10 10h-45l-62 -2l-6 -4zM1130 432q4 10 17 10q6 0 16.5 -9t16.5 -9q14 0 14 41t-29 41t-35 -74zM1239 1395q0 47 29.5 92t74.5 45q94 0 95 -31v-125q0 -29 6 -28q6 0 24 38l9 -4 q2 -6 4 -8q0 -29 -20.5 -58.5t-47.5 -29.5q-31 0 -37 23q-18 -25 -51 -25q-86 0 -86 111zM1288 336q0 33 37 33q-4 -14 -4 -27q0 -31 27 -31t26 43q0 55 -35 56q-6 -8 -22 -25q-12 4 -12 14q12 27 30 62q4 10 11 51q4 27 16 27h8q2 -16 10 -43l37 -58q16 -35 10 -65l19 30 q10 0 10 -8q0 -39 -32.5 -76.5t-71.5 -37.5q-23 0 -43.5 16t-20.5 39zM1311 1397q0 -76 35 -76q26 0 26 14v148q0 27 -12 26q-49 0 -49 -112zM1460 455q0 72 56 71q27 0 26 -57q0 -14 -3 -44t-3 -44q0 -39 10 -39q16 0 29 25q8 12 14 26q6 0 6 -10q0 -33 -23.5 -63.5 t-55.5 -30.5q-51 0 -52 102q0 10 -2 31.5t-2 32.5zM1470 582q0 51 39 51q27 0 27 -37q0 -51 -39 -51q-27 0 -27 37zM1483 1481q0 53 47 53q29 0 22 -64q31 63 58 64q32 0 32 -43q0 -18 -11 -43t-27 -25q-10 0 -25 35q-16 -23 -23 -104q-4 -61 -38 -62q-29 0 -31 49 q2 -35 2 70q0 12 -3 34.5t-3 35.5zM1591 1184q6 12 15 26q6 8 32 9q20 0 39 -7q16 8 43 9l21 -9l20 9q18 0 33 -21h6q23 -29 23 -43v-2l14 -6q18 -31 23 -43q16 -2 30 -21l4 5q-4 23 -4 38q0 14 4 25l-8 10q0 43 6 52.5t45 9.5q35 0 50 -8q8 4 18 6l8 -4q12 8 41 8 q8 0 21 -15q2 -37 2 -41l-2 -43l-4 -4q4 -10 6 -16q0 -37 -11 -78l7 -12q-2 -96 -9 -121l9 -43l-9 -59q8 -43 9 -68q-14 -23 -52 -22q-10 0 -22 6q-37 -8 -55 -9q-10 0 -29 25t-23 39q-35 20 -47 53q-18 14 -45 43q-8 -49 -8 -74l10 -24q-10 -39 -8 -57q-18 -6 -31 -7 q-6 0 -12 2q-6 -4 -12 -4q-8 0 -19 9l-18 -9h-72q-33 4 -33 50q0 20 9 40q-8 18 -9 41q0 27 11 60l-11 20q0 66 9 80l-7 12q6 16 7 82q0 29 -4 45l2 5l2 20q-12 8 -15 31zM1602 395q0 135 102 135q8 0 33 -12q31 10 53 10q18 0 18 -71v-23q-2 -20 -2 -33v-57q27 37 27 68 q16 -5 16 -19t-24 -71l-47 -109q-39 -70 -90 -70q-27 0 -48.5 22.5t-21.5 49.5q0 47 24 47q6 -4 11 -6l8 -47q6 -35 37 -35q41 0 41 100q0 8 -2 21v20q-27 -29 -54 -28q-82 0 -81 108zM1626 1176q10 -10 10 -103q-2 -16 -4 -43t4 -43l-6 -16q0 -14 4 -43t4 -43 q0 -16 -6 -58.5t-4 -64.5v-21l6 -8q14 -2 29 -2q-14 0 2 2h47h51q4 18 6 33l-8 16q2 10 6 23q-4 23 7 72l-11 4q4 14 13 24h6l14 -12q18 0 73.5 -56.5t57.5 -76.5q23 -20 29 -25q-10 0 4 2h35h39l6 8v9q0 6 -4 55l8 20q0 45 -8 64q12 47 12 213q0 -4 -6 24l8 25l-2 39l-10 2 l-21 -8q-23 8 -90 8q-6 -2 -8 -4v-21q6 -10 6 -38q0 -39 -8 -70q8 -16 8 -25l-2 -4l-2 -2l-14 2l-11 8l-2 9q-29 8 -57 41q-6 6 -43 55q4 37 -31 41q-12 -6 -24 -6q-12 12 -25 10h-10q-6 -10 -21 -10q-8 0 -23 4t-22 4l-12 -6v-8zM1649 1411q0 123 104 123q88 0 98 -107 q16 10 25 11q8 0 14 -4q0 -23 -41 -52q-20 -96 -108 -96q-45 0 -68.5 39t-23.5 86zM1669 395q0 -74 35 -73q29 -1 29 36v97q-4 43 -27 43q-37 0 -37 -103zM1724 1413q0 -100 33 -100q25 -1 25 73q0 125 -35 125q-23 0 -23 -98zM1858 414v35q0 84 40 83q33 0 33 -22 q0 -4 -2 -13.5t-2 -13.5q0 -6 2 -12q31 68 64 68q57 0 57 -78q0 -14 -2 -44t-2 -44q0 -20 10 -21l6 4q6 4 15 11q6 -9 8 -17q-27 -66 -76 -65q-31 0 -33 67q0 27 2 88q2 33 -14 37q-8 -10 -29 -110q-16 -78 -49 -78q-10 0 -16 4q-12 8 -12 121zM1898 1483q0 223 15 264 q8 23 43 22q12 0 22 -6q4 -10 4 -18q0 -59 -6 -175t-6 -175q0 -57 21 -58q12 0 20 27q6 -8 6 -18q0 -20 -19.5 -41t-39.5 -21q-59 0 -60 199zM2030 1411q0 49 28.5 85t75.5 36q12 0 25 -2q-4 66 -5 92q0 123 46 123q35 0 34 -25q0 -53 -3 -156.5t-3 -156.5q0 -70 19 -70 q-4 0 22 21l6 2l4 -6q0 -20 -16 -42t-37 -22q-12 0 -43 21q-45 -23 -69 -23q-84 0 -84 123zM2087 336q0 33 37 33q-4 -14 -4 -27q0 -31 26 -31q25 0 25 43q0 55 -33 56q-6 -8 -22 -25q-14 4 -15 14q47 88 47 131q0 8 13 9h8q2 -16 10 -43q55 -86 47 -123l19 30q10 0 10 -8 q0 -39 -33 -76.5t-72 -37.5q-25 0 -44 16t-19 39zM2095 1423q0 -100 51 -100q17 0 17 14l-2 154q-2 18 -15 18q-51 0 -51 -86zM2132 745q0 20 8 35q-6 18 -6 37q0 23 10 43q-6 12 -6 101q0 92 8 106q-6 23 -6 39q0 20 8 33q-6 10 -6 35q0 16 2 36q18 12 29 13q16 0 33 -13 l14 9q137 -8 170 -9q8 0 22.5 5.5t22.5 5.5q33 0 33 -23q0 -14 -8 -22q6 -12 6 -25q0 -12 -6 -27q6 -16 6 -26q0 -31 -66 -31q-86 0 -37 2q-23 0 -28 -18l4 -11l26 -6q10 0 35 4t39 2h4l15 -10q2 -10 2 -26l-9 -13q8 -20 9 -35q0 -37 -68 -36l-27 4q-14 2 -24 -4v-15l-8 -10 l10 -25h86q47 1 47 -28q0 -16 -8 -29q6 -14 6 -27q0 -12 -8 -22q4 -14 4 -27q0 -37 -49 -32l-6 4q-39 -6 -70 -7q-127 0 -182 -4l-15 9q-16 47 -16 38zM2161 748q4 -10 8 -19q8 0 21.5 3t21.5 3q188 0 223 -6l8 4q-2 23 -4 33l8 12v19q-8 6 -8 16q0 6 4 14.5t4 12.5 q-12 4 -64 3t-71 15l2 10q-8 14 -8 27v6q12 12 12 31l-4 12l8 6q8 -2 25 0q16 2 25 2q8 -2 16 -6q12 6 25 6l8 -4l10 4q0 6 -3 20.5t-3 20.5l4 13l-4 6q-4 0 -15 2h-16q-4 0 -13 -3t-16 -3q-4 0 -21 4t-24 2h-10l-4 6l6 16q-6 8 -6 19q0 4 6 12l-2 16l10 9q-8 0 2 2l115 6 l2 10q0 8 -4 16q6 12 6 29q-2 6 -8 23l4 8l-4 4q-8 0 -23.5 -4t-23.5 -4q-6 0 -18.5 4t-18.5 4q-12 0 -38.5 -3t-39.5 -3l-14 6q-10 2 -16 2q-4 0 -13.5 -4t-13.5 -4h-14l-15 8h-8l-6 -10q0 -8 4 -23.5t4 -21.5q0 -8 -5 -22.5t-5 -22.5q0 -4 4 -13.5t4 -13.5q0 -23 -5 -65 t-5 -64q0 -18 4 -31l-4 -16q0 -10 6 -31l-6 -35q0 -8 2 -23.5t2 -23.5q-10 -20 -10 -28zM2533 856q0 14 11 37q-4 16 -4 43q0 33 6 84l-9 14q8 57 11 84q-12 8 -13 37q0 63 35 64q10 -4 19 -9q12 10 24 11q68 0 82 -9q16 10 80 9l6 -7q8 0 24.5 3.5t24.5 3.5q49 0 66 -25 q20 4 57 -27l2 -14q49 -47 49 -68l-2 -14q14 -20 15 -45q0 -53 -21 -65q6 -47 -37 -66l-4 -8l-30 -8q14 -10 32 -15q16 16 27 17q12 0 29 -6l6 -13q0 -35 -6 -49q4 -12 4 -22q0 -20 -15 -33l15 -31q0 -33 -72 -33q-18 0 -31 11q-20 -10 -26 -11q-33 0 -131 82h-7l-4 -22 q2 -8 4 -25q4 -33 -28 -33q-27 0 -41 9q-12 -6 -29 -7q-16 0 -33 7q-18 -6 -41 -7q-14 0 -28 7l-13 18v8q0 14 5 92zM2562 858q0 -8 5 -24.5t5 -24.5q0 -12 -3 -34.5t-3 -35.5q0 -14 19 -14q12 0 30 14h11q12 -12 30 -12q6 0 15.5 4t15.5 4q2 0 10 -4t10 -4h15l4 6l2 8 q-8 16 -4 31q8 20 8 29v8l8 8l2 8l4 2l4 -4l-2 -16q10 2 43 -22.5t41 -26.5q12 -27 60 -33q12 8 24 8q6 0 19.5 -6t21.5 -6q12 0 27 6l2 6l-12 23l18 84v10l-6 2q-12 -10 -23 -16q-53 18 -79 30l-7 6v11q20 14 31 22q49 2 64 43q-2 8 -2 15q0 8 18 30q2 33 2 49l-16 17 l-2 12q0 8 6 19q-10 27 -39 45q-6 20 -23 28q-8 2 -37 6q-16 25 -112 25q-10 0 -30.5 -5t-31.5 -5q-12 0 -35.5 4t-35.5 4q-8 0 -24.5 -5t-24.5 -5l-11 2l-10 -10v-7q0 10 16 -55q-14 -20 -14 -45q0 -37 12 -45q0 -8 -7 -24.5t-7 -20.5l10 -92q-12 -14 -12 -27zM2720 995 q0 6 4 20.5t4 20.5v2q-8 10 -8 25q0 6 8 14l-4 6l4 7h6l6 -5q14 14 35 15q37 0 39 -21q16 -6 16 -22q0 -4 -2 -6l4 -7q0 -8 3.5 -23.5t3.5 -21.5q-6 -25 -13 -63q-31 -47 -57 -47q-6 4 -10 6q-14 -8 -25 -10l-8 2l-2 8l6 12q-2 18 -2 23q0 2 2 8v12q0 6 -5 21.5t-5 23.5z M2746 985q0 -4 13 -59l8 -6q35 6 35 41v16q0 2 4 9t4 11q-6 6 -6 21q0 55 -29 55l-25 -10l-2 -8l7 -6v-7q0 -10 -4.5 -29.5t-4.5 -27.5z" />
<glyph unicode="$" horiz-adv-x="1167" d="M63 725l13 35l39 -6q272 -365 549 -365q43 0 96 21q66 25 65 61q0 80 -184 133q-285 82 -342 111q-184 96 -184 278q0 152 123 256q111 94 268 111q4 172 -70 315l2 27q10 16 154 16q88 0 174 -2l27 -14v-29q-72 -121 -72 -323q14 -4 80 -25q51 -14 80 -14q59 0 102 55 q35 45 47 109l35 24l25 -33q-4 -49 -5 -104q0 -176 43 -426l-18 -33l-35 10q-78 109 -217 193q-150 94 -270 94q-23 0 -47 -12q-31 -13 -31 -31q0 -109 178 -166q319 -104 330 -110q178 -92 178 -285q0 -178 -105.5 -286.5t-279.5 -100.5l-51 2q0 -57 34.5 -170t34.5 -158 l-2 -26q-10 -16 -153 -17q-88 0 -174 2l-27 15l2 28q66 115 70 363q-47 10 -80 10q-70 0 -130.5 -40t-78.5 -107l-33 -21l-24 31q18 225 -136 604z" />
<glyph unicode="%" horiz-adv-x="1892" d="M23 1194q0 193 119.5 318.5t312.5 125.5q190 0 310 -126t120 -318q0 -193 -120 -318.5t-310 -125.5q-193 0 -312.5 125.5t-119.5 318.5zM311 1194q0 -94 27 -176q39 -113 117 -113q76 0 114 113q29 82 29 176t-29 176q-39 113 -114 113q-78 0 -117 -113q-27 -82 -27 -176 zM358 8l13 37q162 96 460 717q289 604 289 790v-4l6 27l25 10q66 0 204 -8t206 -8q76 0 139 8l31 -18l-11 -35q-258 -178 -522 -639q-270 -471 -270 -772l6 -66q6 -43 -2 -57l-27 -10q-57 0 -173 15t-175 15q-106 0 -162 -18zM1104 406q0 193 119.5 318.5t310.5 125.5 q193 0 312.5 -127t119.5 -317q0 -193 -119.5 -319t-312.5 -126q-190 0 -310 126t-120 319zM1393 406q0 -94 26 -177q39 -113 115 -112q78 0 117 112q27 82 26 177q0 94 -26 176q-39 113 -117 112q-76 0 -115 -112q-26 -82 -26 -176z" />
<glyph unicode="&#x26;" horiz-adv-x="1714" d="M25 422q0 141 106 254q90 94 238 149q-125 37 -203 117q-88 90 -88 213q0 252 217 373q176 96 450 96q229 0 412 -65q256 -92 256 -285t-205 -193q-297 0 -417 320h-21q-96 6 -152.5 -46t-56.5 -149q0 -229 238 -229q4 0 61 6q37 4 60 -4l8 -25l-21 -221l-33 -26 q-145 10 -235 -45q-106 -63 -107 -205q0 -117 66 -201q70 -92 184 -92q102 0 160.5 68.5t58.5 173.5q0 168 -92 258l-8 32l29 19q238 -2 467 20q342 35 387 111l39 12l14 -37l-102 -272l-27 -19l-182 -6q25 -283 -273 -452q-246 -141 -546 -142q-276 0 -459 107 q-223 129 -223 385z" />
<glyph unicode="'" horiz-adv-x="571" d="M104 1976q10 6 23 13q31 2 99.5 -1t101.5 1q29 2 71.5 21.5t51.5 19.5q14 2 36 -27q4 -4 2 -18q-47 -260 -47 -394q0 -129 29 -280q4 -27 -18 -31l-217 -31l-27 11q-6 10 -14 28v144q-8 301 -58 450q0 2 -20 47q-12 29 -13 47z" />
<glyph unicode="(" horiz-adv-x="876" d="M47 756l2 78q20 647 563 1093q125 104 148 105l24 2q10 2 125 -312q6 -18 -20 -36q-242 -176 -326 -338q-88 -168 -92 -478l-2 -57q-4 -242 49 -397q45 -129 158 -264q123 -141 248 -283l16 -16q0 -27 -66 -138q-43 -72 -83 -141l-41 -10q-311 182 -508 508 q-205 340 -195 684z" />
<glyph unicode=")" horiz-adv-x="876" d="M47 1745q0 27 66 137q41 70 84 141l41 11q309 -182 507 -510q205 -338 195 -682l-4 -78q-18 -647 -561 -1094q-127 -104 -148 -104l-24 -2q-12 -2 -125 311q-8 18 18 37q242 176 328 341t92 474v57q4 242 -49 398q-45 129 -156 264q-125 141 -250 283z" />
<glyph unicode="*" horiz-adv-x="10407" d="M150 117h94v-211q35 70 104 69q127 0 127 -163v-287h-96v268q0 86 -60 86q-76 0 -75 -117v-237h-94v592zM524 -37h51v119h95v-119h57v-82h-57v-235q0 -16 4 -33q20 -8 53 -6v-86q-33 -2 -45 -2q-106 0 -107 88v274h-51v82zM752 -37h49v119h94v-119h57v-82h-57v-235 q0 -16 4 -33q20 -8 53 -6v-86q-33 -2 -45 -2q-106 0 -106 88v274h-49v82zM1012 -37h90v-61q35 76 104 75q82 0 123 -77q31 -60 31 -150q0 -240 -156 -239q-63 0 -98 67v-223h-94v608zM1102 -256q0 -135 82 -135q80 0 80 135q0 131 -82 131q-80 0 -80 -131zM1446 -53h100 v-125h-100v125zM1446 -352h100v-123h-100v123zM1571 -475l188 612h80l-190 -612h-78zM1688 1817q0 113 63 200q70 96 180 97q109 0 178 -97q66 -87 66 -200q0 -115 -66 -201q-70 -96 -178 -96q-113 0 -182 96q-61 86 -61 201zM1729 1817q0 -94 53 -168q57 -80 149 -80 q88 0 148 82q53 72 53 166q0 92 -53 165q-59 80 -148 80q-90 0 -146 -76.5t-56 -168.5zM1759 -475l189 612h77l-188 -612h-78zM1800 1817q0 68 31 116q37 59 100 60q111 0 123 -129h-61q-10 61 -58 61q-61 0 -61 -108q0 -109 65 -109q45 0 54 59h61q-14 -127 -119 -127 q-63 0 -102 58q-33 51 -33 119zM2025 -37h93v-63q35 74 104 73q63 0 100 -69q35 70 103 69q119 0 119 -166v-282h-99v276q0 76 -51 76q-61 0 -61 -90v-262h-97v262q0 88 -55 88q-59 0 -59 -88v-262h-97v438zM2228 522v592h103v-225h190v225h100v-592h-100v264h-190v-264 h-103zM2388 1520q8 106 68 184q55 53 110 108.5t55 116.5q0 86 -67 86q-66 0 -68 -114h-94q10 207 166 206q74 0 118 -53t44 -131q0 -80 -51 -141q-25 -33 -97 -90q-55 -43 -63 -70h209v-102h-330zM2603 -256q0 233 172 233q166 0 168 -268h-246q2 -106 82 -106q49 0 64 53 h96q-8 -66 -52 -105.5t-110 -39.5q-174 0 -174 233zM2699 -215h148q-6 100 -72 100q-70 0 -76 -100zM2722 522v594h100v-487h242v-107h-342zM2765 1806q0 303 166 303q166 1 166 -280q0 -324 -170 -324q-162 0 -162 301zM2861 1808q0 -100 4 -125q14 -86 68 -86q49 0 61 93 q4 27 4 127q0 199 -67 198q-51 0 -66 -84q-4 -27 -4 -123zM3004 -37h91v-63q35 74 106 73q61 0 98 -69q37 70 105 69q117 0 117 -166v-282h-97v276q0 76 -53 76q-61 0 -61 -90v-262h-95v262q0 88 -55 88q-61 0 -61 -88v-262h-95v438zM3105 741q0 94 45 160q49 74 141 74 q90 0 139 -74q43 -64 43 -160t-43 -159q-49 -74 -139 -74q-92 0 -141 74q-45 66 -45 159zM3140 1806q0 303 168 303q163 1 163 -280q0 -324 -170 -324q-162 0 -161 301zM3203 741q0 -135 88 -135q86 0 86 135t-86 136q-88 0 -88 -136zM3238 1808q0 -100 4 -125 q14 -86 68 -86q49 0 61 93q4 27 4 127q0 199 -67 198q-51 0 -66 -84q-4 -27 -4 -123zM3541 522v592h94v-211q35 70 105 70q127 0 127 -166v-285h-97v269q0 86 -59 86q-76 0 -76 -117v-238h-94zM3541 1925v76q127 4 131 106h78v-587h-96v405h-113zM3604 119h93v-213 q41 68 104 67q80 0 121 -77q31 -60 31 -148t-31 -154q-41 -82 -121 -81q-66 0 -104 67v-55h-93v594zM3695 -258q0 -135 82 -135q77 0 77 137q0 129 -80 129t-79 -131zM3955 522v439h90v-64q39 74 108 74q127 0 127 -148v-301h-96v269q0 86 -61 86q-74 0 -74 -117v-238h-94z M3994 -256q0 233 172 233q166 0 170 -268h-248q2 -106 82 -106q49 0 63 53h96q-8 -66 -52 -105.5t-107 -39.5q-176 0 -176 233zM4090 -215h147q-6 100 -71 100q-70 0 -76 -100zM4106 1520v591h101v-225h192v225h100v-591h-100v264h-192v-264h-101zM4342 741q0 233 172 234 q164 0 168 -268h-246q2 -106 80 -107q51 0 65 53h97q-8 -66 -52.5 -105.5t-109.5 -39.5q-174 0 -174 233zM4395 -37h90v-76q43 92 103 88l18 -2v-116l-29 2q-86 6 -86 -125v-209h-96v438zM4438 782h147q-6 100 -71 101q-70 0 -76 -101zM4565 1636q0 82 37 111q23 18 86 27.5 t94 29.5q6 14 6 25q0 51 -53 51q-57 0 -66 -61h-94q8 154 168 153q145 0 146 -168q0 -33 -6.5 -96t-6.5 -88q0 -63 27 -82v-18h-102q-8 25 -9 51q-51 -66 -112 -66q-115 0 -115 131zM4639 -336h98q0 -68 72 -67q63 0 63 45q0 31 -57 47q-86 25 -107 35q-57 35 -57 106 q0 147 158 147q137 0 149 -147h-94q-8 61 -63 61q-57 0 -58 -41l6 -20q25 -23 90.5 -40t87.5 -32q43 -29 43 -92q0 -156 -163 -155q-152 0 -168 153zM4659 1642q0 -55 47 -55q82 0 82 99v47q-41 -12 -82 -27q-47 -18 -47 -64zM4743 522v439h90v-76q41 92 101 88l18 -2v-117 l-29 2q-86 6 -86 -125v-209h-94zM4966 1520v438h91v-76q41 90 100 88l18 -2v-117l-28 2q-86 6 -86 -124v-209h-95zM5028 813q0 131 80 226.5t207 95.5q111 0 178 -70.5t67 -179.5q0 -78 -34 -146q-45 -80 -117 -80q-31 0 -47.5 24t-12.5 54q-31 -76 -96 -75q-92 0 -92 129 q0 70 35 131q41 72 104 71q55 0 74 -63l12 49h62q-16 -55 -31 -111q-20 -72 -21 -114q0 -10 9 -23l18 -10q43 0 68 65q20 51 20 101q0 88 -52 139t-140 51q-109 0 -173.5 -79.5t-64.5 -190.5q0 -102 63.5 -173t165.5 -71q94 0 185 78l24 -45q-98 -90 -219 -90 q-125 0 -198.5 90t-73.5 217zM5036 -352h100v-123h-100v123zM5200 -356q0 80 35 108q23 18 86 27.5t94 30.5q8 14 8 24q0 51 -55 51q-57 0 -66 -61h-92q8 154 166 153q145 0 145 -167q0 -33 -6 -95.5t-6 -89.5q0 -63 29 -82v-18h-105q-8 25 -8 51q-51 -66 -110 -65 q-115 0 -115 133zM5208 1739q0 94 45 159q49 74 141 74q90 0 140 -74q43 -63 43 -159t-43 -160q-49 -74 -140 -74q-92 0 -141 74q-45 66 -45 160zM5233 786q0 -68 41 -67q35 0 61 72q21 55 21 98q0 49 -39 49q-37 0 -64 -59q-20 -49 -20 -93zM5292 -352q0 -55 47 -56 q84 0 84 99v49q-43 -14 -84 -29q-47 -16 -47 -63zM5306 1739q0 -135 88 -135q86 0 86 135t-86 135q-88 0 -88 -135zM5579 -256q0 96 43 160q51 74 141 73q92 0 141 -73q43 -64 43 -160t-43 -160q-49 -74 -141 -73q-90 0 -141 73q-43 66 -43 160zM5642 641q0 80 37 109 q20 18 84 27t94 30q8 14 8 24q0 51 -55 52q-57 0 -65 -62h-93q8 154 166 154q145 0 146 -168q0 -33 -5 -96.5t-5 -87.5q0 -63 26 -82v-19h-102q-10 25 -10 51q-51 -66 -111 -65q-115 0 -115 133zM5646 1520v594h95v-594h-95zM5677 -256q0 -135 86 -135t86 135t-84 135 q-88 0 -88 -135zM5734 645q0 -55 50 -55q82 0 81 98v49q-43 -14 -83 -28q-47 -16 -48 -64zM5808 1735q0 88 33 153q43 82 123 82q66 0 100 -67v208h96v-591h-92v61q-37 -76 -106 -76q-80 0 -121 80q-33 61 -33 150zM5906 1735q0 -133 80 -133t80 135q0 133 -82 133 q-78 0 -78 -135zM6017 119h94v-594h-94v594zM6021 741q0 94 45 160q49 74 141 74q90 0 140 -74q43 -64 43 -160t-43 -159q-49 -74 -140 -74q-92 0 -141 74q-45 66 -45 159zM6119 741q0 -135 88 -135q87 0 87 135t-87 136q-88 0 -88 -136zM6201 -352h101v-123h-101v123z M6369 -264q0 242 170 241q145 0 160 -167h-98q-12 70 -60 69q-76 0 -75 -137q0 -133 71 -133q61 0 64 76h98q-4 -72 -48 -123t-116 -51q-86 0 -131 73q-35 59 -35 152zM6441 1520v594h102v-488h240v-106h-342zM6459 522v594h95v-594h-95zM6644 522v123h102v-123h-102z M6744 -256q0 96 45 160q49 74 139 73q92 0 142 -73q43 -64 43 -160t-43 -160q-49 -74 -142 -73q-90 0 -141 73q-43 66 -43 160zM6812 733q0 242 170 242q145 0 159 -168h-96q-12 70 -61 70q-74 0 -74 -138q0 -133 70 -133q61 0 65 76h96q-4 -72 -48 -123t-115 -51 q-86 0 -132 74q-35 59 -34 151zM6824 1739q0 94 45 159q49 74 141 74q90 0 140 -74q43 -63 43 -159t-43 -160q-49 -74 -140 -74q-92 0 -141 74q-45 66 -45 160zM6842 -256q0 -135 88 -135q84 0 84 135t-84 135q-88 0 -88 -135zM6922 1739q0 -135 88 -135q86 0 86 135 t-86 135q-88 0 -88 -135zM7178 -37h90v-63q35 74 107 73q61 0 98 -69q37 70 105 69q117 0 116 -166v-282h-96v276q0 76 -53 76q-61 0 -62 -90v-262h-94v262q0 88 -55 88q-61 0 -62 -88v-262h-94v438zM7186 741q0 94 45 160q49 74 142 74q90 0 139 -74q43 -64 43 -160 t-43 -159q-49 -74 -139 -74q-92 0 -142 74q-45 66 -45 159zM7260 1520v591h94v-210q35 70 105 69q127 0 127 -166v-284h-96v266q0 88 -60 88q-76 0 -76 -117v-237h-94zM7285 741q0 -135 88 -135q86 0 86 135t-86 136q-88 0 -88 -136zM7621 522v439h92v-64q35 74 104 74 q61 0 99 -70q37 70 104 70q117 0 117 -166v-283h-97v277q0 76 -53 75q-61 0 -61 -90v-262h-94v262q0 88 -56 88q-59 0 -59 -88v-262h-96zM7674 1520v438h90v-64q39 74 109 74q127 0 126 -147v-301h-96v266q0 88 -61 88q-74 0 -74 -117v-237h-94zM7700 -475l189 612h78 l-189 -612h-78zM7932 -37h51q0 84 14 115q25 47 99 47q23 0 41 -2v-94l-21 2q-12 0 -26 -4l-11 -13q-2 -16 -2 -51h62v-82h-62v-356h-94v356h-51v82zM8061 1739q0 233 172 233q166 0 168 -268h-246q2 -106 80 -107q51 0 66 54h96q-8 -66 -52 -106t-110 -40q-174 0 -174 234z M8157 1780h148q-6 100 -72 100q-70 0 -76 -100zM8174 -256q0 96 43 160q49 74 141 73q90 0 139 -73q43 -64 43 -160t-43 -160q-49 -74 -139 -73q-92 0 -141 73q-43 66 -43 160zM8270 -256q0 -135 88 -135q86 0 86 135t-86 135q-88 0 -88 -135zM8462 1520v438h90v-76 q41 90 101 88l18 -2v-117l-28 2q-86 6 -86 -124v-209h-95zM8608 -37h92v-63q37 76 106 75q127 0 127 -149v-301h-96v268q0 86 -61 86q-74 0 -74 -117v-237h-94v438zM8985 -37h49v119h94v-119h57v-82h-57v-235q0 -16 4 -33q20 -8 53 -6v-86q-33 -2 -45 -2q-106 0 -106 88v274 h-49v82zM9247 -37h92v-63q37 76 108 75q125 0 125 -149v-301h-96v268q0 86 -61 86q-74 0 -74 -117v-237h-94v438zM9634 -256q0 233 172 233q166 0 170 -268h-248q2 -106 82 -106q49 0 63 53h97q-8 -66 -52.5 -105.5t-109.5 -39.5q-174 0 -174 233zM9730 -215h148 q-6 100 -72 100q-70 0 -76 -100zM10035 -37h90v-76q43 92 101 88l18 -2v-116l-29 2q-86 6 -86 -125v-209h-94v438z" />
<glyph unicode="+" horiz-adv-x="1292" d="M12 664l84 331l35 21q201 -33 389 -49q-2 205 -31 315l17 35l344 168l33 -6l8 -33q-66 -156 -64 -494q356 -2 523 58l32 -9l2 -34l-178 -314l-30 -14q-119 25 -332 29q18 -178 55 -367l-22 -35l-365 -80l-25 7q-10 27 -10 26q0 80 17 221q16 164 20 222q-59 -2 -235 -21 q-147 -12 -234 -12l-27 8z" />
<glyph unicode="," horiz-adv-x="704" d="M57 -129q0 -12 83 221.5t83 368.5q0 84 4 90l25 8q43 0 130 -6t132 -6q37 0 110.5 10t108.5 10q25 0 25 -28q0 -10 -10 -23q-35 -33 -97 -102q-104 -123 -147 -238q-14 -33 -76 -264l-10 -21l-23 -6q-127 0 -149 -2q-70 -6 -144 -39q-10 -4 -12 -4q-33 0 -33 31z" />
<glyph unicode="-" horiz-adv-x="827" d="M88 604q10 104 21 207q20 176 34 184l27 4q4 0 137 -35.5t205 -35.5q70 0 164 32.5t90 32.5q29 0 29 -24q0 -29 -45 -203t-60 -180q-18 -2 -94 14q-82 16 -113 16q-68 0 -195.5 -22.5t-162.5 -22.5l-27 7z" />
<glyph unicode="." horiz-adv-x="778" d="M186 274q0 113 84 181q78 61 195 61q129 0 215 -65q96 -72 96 -199q0 -242 -268 -242q-322 0 -322 264z" />
<glyph unicode="/" horiz-adv-x="1103" d="M-4 8l12 37q162 96 461 717q289 604 289 790v-4l6 27q23 10 22 10q68 0 206 -8t206 -8q76 0 139 8l31 -18l-10 -35q-258 -178 -522 -639q-270 -471 -271 -772l6 -66q6 -43 -2 -57q-27 -10 -26 -10q-57 0 -173 15t-175 15q-106 0 -162 -18z" />
<glyph unicode="0" horiz-adv-x="1583" d="M57 870q0 358 237.5 599t598.5 241q324 0 528 -266q189 -242 189 -574q0 -408 -211 -632q-217 -229 -621 -230q-322 0 -530 279q-190 254 -191 583zM537 930q0 -225 57 -424q82 -287 250 -287q215 0 276 262q27 115 27 434q0 209 -57 373q-84 233 -256 234 q-297 0 -297 -592z" />
<glyph unicode="1" horiz-adv-x="727" d="M-160 1176l21 30q356 119 549 434l16 17q12 4 162 -70l14 -37q-102 -287 -102 -639q0 -535 301 -852l4 -32l-29 -17q-272 29 -524 29q-217 0 -328 -29l-35 19l17 37q129 59 192 301q45 170 45 364q0 156 -41 264q-61 156 -192 156h-41z" />
<glyph unicode="2" horiz-adv-x="1515" d="M68 1061q0 262 237 436q217 158 488 158q266 0 428 -88q209 -113 209 -357q0 -229 -166 -399q-76 -76 -353 -258q-233 -154 -319 -289q59 -49 209 -49q274 0 434 158q127 127 235 422l35 16l21 -33q-92 -463 -92 -723q0 -82 14 -129l-23 -32l-34 18q-14 63 -154 96 q-96 25 -188 25q-102 0 -302 -37t-298 -37q-127 0 -227.5 101.5t-100.5 230.5q0 150 213 311q197 139 393 279q213 174 213 352q0 104 -61.5 168.5t-163.5 64.5q-74 0 -146 -34q2 -37 2 -76q0 -186 -55 -301q-74 -154 -233 -154q-215 0 -215 160z" />
<glyph unicode="3" horiz-adv-x="1472" d="M53 436q0 66 51.5 121t118.5 55q137 0 246 -139q100 -127 111 -270q84 -23 163 -23q260 0 261 275q0 287 -281 286q-72 0 -176 -41l-23 31q2 70 2 141q6 115 21 125l24 4q184 0 224 19q82 39 82 209q0 242 -242 241q-51 0 -103 -12q-10 -188 -63 -313q-78 -180 -229 -180 q-186 0 -187 229q0 238 244 373q201 113 453 112q248 0 411 -94q205 -117 205 -346q0 -94 -63.5 -194.5t-147.5 -143.5q160 -43 250 -147q98 -111 98 -271q0 -262 -239 -393q-190 -104 -476 -104q-285 0 -475 84q-260 115 -260 366z" />
<glyph unicode="4" horiz-adv-x="1632" d="M10 594l2 39q606 614 914 1083l18 21q63 -8 217 -82q141 -68 250 -64l27 -16v-31q-176 -276 -176 -620q0 -88 18 -203l291 -12l26 -21l70 -225l-12 -31l-33 -2q-74 49 -287 72q82 -217 303 -416l7 -35l-29 -16q-219 25 -461 24q-291 0 -448 -49l-35 17l10 36 q88 63 154 203q55 119 77 246q-334 -14 -757 -86l-29 12zM385 694q221 25 543 29q-2 237 -88 522q-383 -344 -455 -551z" />
<glyph unicode="5" horiz-adv-x="1601" d="M55 459q0 82 48.5 129t132.5 47q168 0 288 -150q106 -131 129 -309q53 -6 99 -6q326 0 325 305q0 190 -112 291q-106 94 -301 94q-178 0 -390 -80l-30 6l-8 31q39 125 38 316q0 88 -44 255.5t-44 231.5l7 29q27 10 26 10q109 0 330 -22.5t332 -22.5q403 0 530 88l31 2 l16 -25l10 -665l-26 -31l-33 25q-39 178 -152 295q-127 131 -296 131q-307 0 -299 -304l2 -73q102 14 200 14q295 0 475 -119q217 -141 217 -428q0 -295 -235 -436q-190 -113 -510 -113q-270 0 -485 107q-270 133 -271 377z" />
<glyph unicode="6" horiz-adv-x="1495" d="M61 850q0 313 246 575.5t557 262.5q211 0 373 -95q195 -113 195 -309q0 -109 -58 -149q-49 -35 -162 -35q-129 0 -233 123q-86 100 -127 243h-43q-160 6 -244 -202q-57 -143 -69 -346q139 143 407 143q250 0 414 -137q174 -146 174 -392q0 -272 -195 -407 q-168 -115 -452 -115q-369 0 -580 236q-203 227 -203 604zM567 514q0 -123 68 -217q73 -107 190 -107t183 109q55 92 55 215t-62 219q-70 115 -186 115q-117 0 -186 -115q-61 -96 -62 -219z" />
<glyph unicode="7" horiz-adv-x="1439" d="M31 1642l12 33l35 -4q84 -74 440 -74q123 0 365.5 28t361.5 28q131 0 205 -74t74 -205q0 -61 -164 -274q-229 -299 -305 -422q-164 -266 -164 -459q0 -109 41 -162l4 -32l-33 -15q-129 25 -258 25q-311 0 -514 -105l-37 7v36q289 350 508 668q358 518 377 737 q-68 10 -133 11q-264 0 -471 -179q-197 -168 -269 -430l-36 -20l-21 35q39 143 39 333q0 270 -57 514z" />
<glyph unicode="8" horiz-adv-x="1603" d="M51 489q0 127 121 240q92 86 236 148q-115 55 -187 137q-82 98 -82 213q0 221 262 358q219 113 461 113q229 0 422 -111q225 -131 225 -344q1 -205 -235 -332q152 -59 252 -151q125 -115 125 -256q0 -262 -299 -400q-233 -109 -533 -108q-248 0 -485 121 q-283 145 -283 372zM555 500q0 -131 81 -221.5t210 -90.5t205 95q74 86 73 217q0 129 -74.5 213t-203.5 84t-210 -84t-81 -213zM602 1239q0 -100 61.5 -169t159.5 -69t158 72q55 66 55 166q0 98 -57.5 161.5t-155.5 63.5t-159.5 -63.5t-61.5 -161.5z" />
<glyph unicode="9" horiz-adv-x="1480" d="M59 1155q0 272 205 418q178 127 463 127q367 0 582 -246q203 -233 202 -606q0 -344 -227 -588q-233 -250 -575 -250q-211 0 -373 94q-195 113 -195 310q0 94 43 123q25 14 129 28h45q127 4 232 -104q86 -92 131 -230h35q166 -8 252 199q57 139 69 352 q-139 -145 -444 -145q-229 0 -397 143q-176 150 -177 375zM487 1184q0 -143 62 -232q70 -102 209 -102q115 0 186 115q59 96 60 219q0 123 -66 217q-74 106 -193 106q-258 0 -258 -323z" />
<glyph unicode=":" horiz-adv-x="776" d="M186 274q0 113 84 181q78 61 195 61q129 0 215 -65q96 -72 96 -199q0 -242 -268 -242q-322 0 -322 264zM186 954q0 115 84 181q78 63 195 63q129 0 215 -65q96 -72 96 -199q0 -244 -268 -244q-322 0 -322 264z" />
<glyph unicode=";" horiz-adv-x="722" d="M57 -129q0 -12 83 221.5t83 368.5q0 84 4 90l25 8q43 0 130 -6t132 -6q37 0 110.5 10t108.5 10q25 0 25 -28q0 -10 -10 -23q-35 -33 -97 -102q-104 -123 -147 -238q-14 -35 -76 -264l-10 -21l-23 -6q-127 0 -149 -2q-70 -6 -144 -39q-10 -4 -12 -4q-33 0 -33 31zM186 954 q0 115 84 181q78 63 195 63q129 0 215 -65q96 -72 96 -199q0 -244 -268 -244q-322 0 -322 264z" />
<glyph unicode="=" horiz-adv-x="1359" d="M82 866l80 363l33 22q371 -72 677 -71q328 0 480 63l32 -6l5 -35l-168 -344l-35 -16q-127 33 -369 32q-119 0 -353.5 -22.5t-350.5 -22.5l-25 11zM115 326l104 344l37 20q131 -31 375 -31q117 0 349 21.5t345 21.5l25 -8l8 -22q-2 -100 -4 -203q-6 -172 -21 -182 q-23 -6 -22 -6q-39 0 -109 14q-92 18 -106 20q-258 37 -475 37q-328 0 -467 -61l-31 4z" />
<glyph unicode="?" horiz-adv-x="1603" d="M225 920q0 285 295 481q262 174 557 174q256 0 414 -107q182 -127 182 -372q0 -186 -155 -303q-66 -49 -289 -146q-156 -68 -156 -135q0 -16 11.5 -47t9.5 -47q-23 -16 -41 -17q-98 0 -162 48q-70 51 -70 147q0 109 84 180q80 63 158 127q84 94 84 254q0 84 -68.5 144.5 t-152.5 60.5q-43 0 -178 -59q10 -74 10 -146q0 -188 -68 -301q-84 -141 -260 -141q-94 0 -149.5 55t-55.5 150zM678 147q0 213 319 213q129 0 215 -47q106 -57 107 -176q0 -223 -322 -223q-127 0 -213 51q-106 63 -106 182z" />
<glyph unicode="@" horiz-adv-x="2203" d="M29 606q0 410 364 701q342 272 762 272q473 0 758 -217q319 -242 319 -703q0 -256 -104 -436q-127 -219 -367 -219q-254 0 -422 242q-127 -182 -276 -183q-227 0 -372.5 154t-145.5 381q0 223 149.5 377.5t370.5 154.5q111 0 195 -59v55q0 27 40 27q76 0 203 -14 q158 -20 158 -45q0 -88 -44 -282t-44 -292q0 -332 164 -332q90 0 127 187q23 111 22 246q0 778 -643 778q-858 0 -858 -867q0 -299 172 -505q184 -217 479 -217q283 0 420 86l37 -17l80 -174q8 -20 -18.5 -39.5t-227.5 -36.5q-172 -16 -237 -16q-504 0 -777 244 q-285 256 -284 749zM922 604q0 -106 36 -209q52 -135 140 -135q84 0 127 139q31 96 30 205q0 106 -30 205q-43 139 -127 139q-88 0 -140 -135q-37 -102 -36 -209z" />
<glyph unicode="A" d="M-109 -25l9 39q252 176 456 549q102 186 293 656q33 76 33 71q0 80 -104 152q-51 33 -183 92h4l-20 14q0 35 18 41h19h-4q225 -43 573 -43q270 0 533 35l32 -25l-20 -32q-84 -25 -131 -101.5t-47 -167.5q0 -276 293.5 -731.5t549.5 -574.5l17 -35l-33 -23 q-403 57 -727 58q-207 0 -309 -31l-35 16l12 37q68 45 110 125t42 164q0 43 -10 88h-711l-4 -41q0 -170 215 -287l14 -34l-33 -21q-260 51 -499 51q-213 0 -314 -53zM629 557h549q-98 215 -299 520q-164 -330 -250 -520z" />
<glyph unicode="B" horiz-adv-x="1896" d="M53 1622l37 16q158 -61 426 -61q135 0 400.5 26.5t396.5 26.5q197 0 342 -121q154 -129 153 -319q0 -244 -258 -336q166 0 277.5 -120t111.5 -288q0 -238 -239 -383q-203 -124 -453 -124h-4q-113 0 -338 33.5t-340 33.5q-287 0 -434 -63l-37 10l4 39q205 205 275 387 q65 169 65 474v9q0 211 -96 410q-104 211 -276 313zM831 535q-2 -357 293 -357q287 0 287 268q0 98 -70.5 180.5t-169.5 82.5h-337zM834 920h178q121 0 203.5 63.5t82.5 181.5q0 111 -55 178q-59 76 -170 76q-127 0 -190 -114q-49 -90 -49 -228v-157z" />
<glyph unicode="C" horiz-adv-x="1466" d="M45 772q0 379 203 631q219 270 590 270q233 0 426 -143q211 -156 211 -385q0 -90 -62.5 -136t-157.5 -46q-188 0 -294 176q-70 115 -121 350q-176 -39 -262 -221q-68 -145 -68 -353q0 -250 102 -399q119 -174 355 -174q166 0 282 86q66 47 146 156q61 86 92 86 q57 0 57 -66q0 -233 -231 -428q-221 -186 -455 -186q-354 0 -583.5 216t-229.5 566z" />
<glyph unicode="D" horiz-adv-x="1824" d="M47 -29l10 39q231 152 318 336q80 170 80 471q0 240 -86 449q-104 252 -297 338l-17 34l33 21q162 -31 324 -31q111 0 332 27.5t331 27.5q334 0 555 -227t221 -561q0 -397 -163 -627q-186 -264 -566 -264q-86 0 -255 19.5t-257 19.5q-334 0 -524 -84zM827 838 q0 -205 50 -379q72 -260 223 -260q193 0 256 221q35 119 35 377q0 221 -52 405q-76 281 -237 281q-182 0 -244 -252q-31 -133 -31 -393z" />
<glyph unicode="E" horiz-adv-x="1826" d="M57 1645l37 12q127 -55 541 -55h108q84 -2 142 -3q580 0 680 148l30 14l25 -24l121 -705l-19 -33l-34 15q-123 229 -236 311q-131 98 -371 98q-248 0 -260 -497h221q115 0 203 108q74 92 101 215l32 23l27 -31q-14 -227 -14 -407q0 -260 30 -345l-14 -36l-39 12 q-51 100 -133 168q-96 82 -193 82h-219q6 -215 60 -330q78 -166 262 -166q188 0 348 164q139 141 201 340l35 20l22 -34q-33 -197 -78 -760l-18 -25l-31 6q-125 119 -696 119q-403 0 -817 -49l-31 18l10 35q180 125 268 359q78 201 78 450q0 207 -102.5 413t-267.5 331z" />
<glyph unicode="F" horiz-adv-x="1701" d="M53 1638l33 15q299 -66 662 -66q174 0 482 71q287 66 287 72l-1 1l26 -2q14 -6 84 -359q39 -203 78 -405l-21 -33l-34 14q-96 186 -246 320q-177 161 -352 161h-2q-143 0 -203 -149q-38 -96 -38 -231q0 -19 1 -39l4 -117h105q143 0 259.5 85t176.5 220l37 16l18 -34 q-27 -113 -27 -301q0 -236 58 -480l-19 -32l-35 10q-86 127 -208 211q-139 96 -273 96h-78q63 -469 488 -655l16 -37l-37 -19q-377 111 -721 111q-211 0 -434 -100l-37 14l11 39q319 180 319 758q0 330 -72 473q-57 111 -301 338z" />
<glyph unicode="G" horiz-adv-x="1634" d="M55 840q0 352 221 598q229 254 576 254q215 0 391 -113q205 -129 205 -332q0 -94 -47 -155q-51 -70 -144 -70q-150 0 -282 172q-123 158 -135 315q-178 -41 -267 -221q-69 -141 -69 -342v-6q0 -250 57 -444q86 -289 275 -289q100 0 183 62.5t83 156.5q0 158 -205 158 q-4 0 -61 -6q-39 -4 -62 4q-10 23 -10 22v221l10 21l23 8q43 0 170 -8t198 -8q221 0 318 63l33 -2l10 -33q-45 -147 -45 -372q0 -226 61 -439l-16 -35l-37 9q-78 102 -215 102q-76 0 -200 -67.5t-236 -67.5q-330 0 -559 260q-223 252 -224 584z" />
<glyph unicode="H" horiz-adv-x="1863" d="M-217 1622l37 16q274 -88 506 -88q244 0 358 74l39 -4l2 -37q-76 -109 -117 -330q-33 -176 -33 -346h533q-55 430 -320 594l-12 35l33 20q207 -32 429 -32h13q315 0 453 78l39 -9l-2 -37q-125 -139 -203 -329q-82 -199 -82 -375q0 -270 105 -479q112 -227 333 -346 l15 -37l-35 -19q-260 51 -512 52q-268 0 -385 -76l-39 4v37q94 125 143 340q41 178 41 352v16h-536q16 -168 69 -327q70 -207 174 -281l13 -35l-33 -18q-170 26 -330 26h-12q-383 0 -588 -112l-41 12l10 39q164 102 261 352q84 217 84 436q0 242 -95 453q-106 240 -301 342z " />
<glyph unicode="I" horiz-adv-x="1159" d="M55 1563v34l33 11q193 -63 444 -64q299 0 533 117l37 -10l-6 -39q-143 -109 -228 -320q-75 -188 -75 -382v-5q0 -584 403 -842l12 -34l-30 -19q-324 37 -615 37q-330 0 -399 -57l-41 8l8 41q150 104 229 330q66 188 66 399t-41 338q-35 104 -125 215q-102 121 -205 242z " />
<glyph unicode="J" horiz-adv-x="1454" d="M33 719q0 86 41 137q43 59 125 59q170 0 276 -229q83 -174 83 -340q0 -14 -1 -29l-4 -94h12h2q254 0 254 570q0 281 -49 419q-45 123 -164 228q-147 117 -297 235l-6 37l33 14q342 -81 670 -81h8q266 0 414 69l36 -8l-4 -39q-96 -98 -159 -237q-68 -147 -68 -279 q0 -106 13.5 -320.5t13.5 -322.5q0 -195 -175 -348q-166 -150 -360 -150q-309 0 -501.5 200t-192.5 509z" />
<glyph unicode="K" horiz-adv-x="2033" d="M14 18l15 37q207 100 323 357q102 223 103 477q0 213 -86 424q-94 238 -254 346l-11 37l35 16q250 -86 494 -86q209 0 321 82l37 -2l6 -37q-174 -346 -176 -745q141 147 283 293q180 209 180 342q0 102 -94 170l-10 36l34 15q131 -35 334 -35t396 45l34 -18l-16 -37 q-139 -59 -352 -238q-236 -199 -236 -299q0 -197 268 -582q266 -377 469 -483l15 -37l-35 -16q-135 33 -334 33q-229 0 -438 -35l-29 12l-2 29q8 25 8 61q0 160 -104 383q-109 236 -203 236q-43 0 -86 -47q-31 -43 -61 -86q25 -170 78 -332q74 -227 165 -291l11 -37l-35 -14 q-228 69 -532 69h-9q-250 0 -471 -61z" />
<glyph unicode="L" horiz-adv-x="1566" d="M-84 10l16 35q203 98 336 322q127 215 127 446q0 309 -86 494q-94 205 -332 362l-10 37l33 16q248 -98 594 -98q270 0 516 78l35 -16l-10 -37q-193 -115 -295 -349q-92 -207 -92 -448q0 -201 51 -354q74 -223 231 -224q301 0 481 672l35 23l23 -33q-63 -489 -64 -786 q0 -6 2 -47.5t2 -63.5q-2 -33 -10 -43l-29 -4q-72 0 -305 40t-358 40q-395 0 -858 -82z" />
<glyph unicode="M" horiz-adv-x="2347" d="M-49 6l10 37q362 252 363 860q0 217 -88 416q-98 227 -271 319l-14 35l33 21q264 -51 485 -52q113 0 252 21q186 29 240 74l40 -6l-8 -41q-88 -49 -88 -195q0 -129 88 -324q74 -150 150 -301q102 225 123 279q72 182 71 278q0 137 -73 193l-11 37l37 16q135 -45 369 -45 q301 0 614 55l35 -20l-18 -37q-139 -63 -215 -321q-59 -199 -60 -396q0 -233 82 -430q101 -241 291 -315l16 -37l-34 -18q-130 36 -396 36h-14q-276 0 -559 -28l-31 20l10 33q252 174 252 651q0 340 -82 475q-235 -475 -235 -893q0 -34 2 -78t2 -57q0 -57 -25.5 -74.5 t-119.5 -17.5h11h-290q-35 0 -35 35q0 287 -72 516q-70 219 -231 471l-22 -6q-8 -76 -9 -379q0 -217 58 -420q76 -268 221 -348l14 -37l-37 -16q-164 45 -368 45q-238 0 -428 -45z" />
<glyph unicode="N" horiz-adv-x="1904" d="M37 39l12 35q195 111 283 389q65 208 65 481v8q0 197 -84 377q-98 203 -260 279l-16 37l37 18q111 -35 442 -35q260 0 524 17l29 -17q0 -20 -12.5 -59t-12.5 -60q0 -174 136 -430q111 -193 221 -387l8 318q1 30 1 60q0 542 -212 636l-16 35l32 20q181 -32 401 -32h13 q217 0 381 22l31 -18l-12 -35q-395 -258 -396 -916q0 -166 29 -333q41 -223 119 -312l2 -37l-33 -10q-102 35 -244 35q-186 0 -356 -45l-33 12l2 33q37 47 37 115q0 129 -227 522q-147 242 -297 485q-41 -291 -41 -434q0 -219 63 -418q84 -262 244 -329l16 -37l-36 -19 q-150 53 -371 53q-231 0 -434 -43z" />
<glyph unicode="O" horiz-adv-x="1642" d="M57 862q0 358 239 598t597 240q324 0 528 -264q191 -242 191 -574q0 -360 -238.5 -611t-595.5 -251q-319 0 -530 279q-190 254 -191 583zM537 920q0 -731 297 -732q215 0 282 275q33 131 33 444q0 207 -62 381q-84 246 -253 246q-176 0 -250 -238q-47 -151 -47 -376z" />
<glyph unicode="P" horiz-adv-x="1579" d="M-66 8l15 39q193 80 303 361q92 231 92 473q0 233 -84 436q-98 240 -283 330l-14 36l35 19q209 -49 479 -49q92 0 274.5 25.5t272.5 25.5q262 0 412.5 -144.5t150.5 -406.5q0 -266 -153.5 -411.5t-419.5 -145.5q-217 0 -314 47q27 -190 162 -354q121 -147 307 -244 l15 -37l-37 -16q-317 92 -666 92q-285 0 -510 -92zM719 1135q0 -359 233 -359q106 0 166 131q47 104 47 228q0 123 -47 225q-57 133 -166 133q-233 0 -233 -358z" />
<glyph unicode="Q" horiz-adv-x="1619" d="M41 842q0 346 234.5 592.5t578.5 246.5q336 0 545 -256q196 -241 196 -583q0 -264 -131 -486q-137 -231 -370 -331q14 -262 163 -263q25 0 43 -8l5 -28q-27 -72 -138 -115q-88 -33 -178 -33q-133 0 -203 133q-51 102 -57 252q-311 25 -508 301q-180 252 -180 578z M500 895q0 -258 43 -432q72 -293 254 -293q190 0 266 285q47 174 47 438q0 209 -49 354q-74 221 -244 221q-317 0 -317 -573z" />
<glyph unicode="R" horiz-adv-x="1916" d="M-39 1642l33 21q213 -41 481 -41q104 0 308 27.5t307 27.5q252 0 419 -112q190 -131 191 -373q0 -170 -113 -293q-104 -111 -276 -156q203 -72 305 -258q62 -150 126 -296q62 -140 185 -140h10l29 -29l-27 -30h-12q-53 0 -146 -2t-132 -2q-207 0 -303 65 q-121 84 -201 332q-90 281 -338 281h-21l-55 -2q33 -371 324 -611l8 -35l-33 -16q-213 49 -481 49q-313 0 -545 -86l-37 17l15 36q186 96 299 367q96 233 96 469q0 240 -92 438q-106 231 -308 318zM752 1106q0 -90 10 -248q133 -6 217 -6q117 0 182 92q57 80 58 203 q0 123 -54 211q-65 104 -180 104q-233 0 -233 -356z" />
<glyph unicode="S" horiz-adv-x="1492" d="M57 711l21 32l35 -16q96 -201 237 -365q188 -217 348 -217q117 0 197 37q104 49 104 152q0 147 -231 256q-217 100 -432 198q-231 150 -232 394q0 207 185 350q170 133 379 133q70 0 199.5 -37t191.5 -37q92 0 176 156l33 14l22 -28q0 -532 86 -803l-16 -37l-37 14 q-96 207 -240 365q-186 205 -360 205q-205 0 -205 -174q0 -119 238 -232q436 -205 442 -209q240 -147 240 -354q0 -209 -189 -373q-180 -158 -393 -158q-76 0 -224.5 34t-221.5 34q-133 0 -199 -156l-31 -16l-24 25z" />
<glyph unicode="T" horiz-adv-x="1873" d="M66 1694l14 35l37 -9q70 -96 329 -125q104 -10 369 -10q244 0 498 29q416 49 436 155l31 21l26 -29q-37 -188 -37 -637q0 -244 9 -458l-27 -29l-33 22q-33 195 -123 416q-127 315 -258 316q-209 0 -209 -471q0 -260 76 -486q100 -297 299 -366l19 -37l-33 -21 q-217 39 -438 39q-360 0 -596 -78l-35 15l8 39q178 123 268 337q82 195 82 431q0 197 -39 358q-61 248 -196 248q-139 0 -264 -283q-86 -195 -127 -407l-35 -23l-23 33q39 217 39 436q0 328 -67 539z" />
<glyph unicode="U" horiz-adv-x="1822" d="M-63 1661l81 8q150 -115 426 -115q139 0 285 37l57 -16l15 -57q-129 -406 -129 -744q0 -395 250 -395q194 0 194 549v6q0 188 -51 371q-66 236 -193 305l-24 78l76 28q293 -119 532 -119q168 0 236 76l82 2q12 -25 12 -51q0 -25 -12 -33h2q-113 -117 -177 -334 q-55 -188 -55 -372q0 -568 291 -750l23 -69l-64 -37q-92 10 -203 10q-281 0 -352 -80l-63 -16l-39 53l-7 166q-199 -223 -444 -223q-217 0 -344 147q-117 139 -117 360q0 98 8.5 255t8.5 221q0 193 -56 327q-68 166 -245 330z" />
<glyph unicode="V" horiz-adv-x="2082" d="M-16 1612l34 22q393 -104 744 -104q172 0 321 26l35 -22l-18 -35q-104 -37 -167 -131t-63 -205q0 -246 340 -714q104 201 211 403q137 289 138 451q0 221 -199 325l-14 37l36 16q213 -63 486 -63q176 0 330 35l34 -21l-18 -35q-160 -53 -354 -333q-172 -248 -298 -564.5 t-126 -492.5q0 -131 125 -191l16 -34l-33 -21q-182 31 -403 31q-244 0 -461 -62l-31 25l19 33h2q41 0 67 73q20 57 21 111q0 168 -123 492q-125 334 -289 585q-188 289 -342 328z" />
<glyph unicode="W" horiz-adv-x="2410" d="M-156 1614l35 20q436 -102 785 -102q207 0 323 51l39 -14l-14 -39h-2q-96 -45 -154 -152q-51 -96 -51 -209q0 -236 201 -553q176 346 176 658q0 6 -7.5 60.5t-7.5 82.5q0 61 27 62h479q27 0 27 -45q0 -37 -23.5 -130.5t-23.5 -142.5q0 -260 121 -571q164 346 163 608 q0 293 -227 389l-14 37l33 21q209 -43 454 -43q199 0 375 43l35 -23l-21 -35q-160 -37 -309 -297q-127 -219 -215 -530q-80 -285 -80 -461q0 -76 19 -147q27 -98 75 -105l23 -35l-35 -22q-180 41 -360 41q-164 0 -281 -39l-35 16l12 37q61 37 62 191q0 203 -137 532 q-123 -291 -123 -535q0 -150 53 -260l-8 -34l-35 -2q-80 51 -264 51q-166 0 -369 -56l-35 19l17 37q96 43 96 264q0 365 -223 774q-242 442 -557 551z" />
<glyph unicode="X" horiz-adv-x="1832" d="M-90 1665l37 16q376 -118 704 -118h6q219 0 363 79l35 -14l-11 -39q-135 -63 -135 -207q0 -137 121 -327q166 299 166 381q0 152 -123 190l-18 35l35 22q225 -49 423 -49q131 0 207 29l35 -12l-4 -39q-313 -281 -618 -709q250 -369 329 -467q254 -317 422 -340l23 -33 l-31 -24q-158 27 -301 27q-297 0 -494 -111l-37 8l5 41q55 45 55 160q0 180 -176 424q-84 -141 -107 -185q-57 -119 -57 -200q0 -131 125 -207l12 -35l-29 -20q-113 4 -210 4q-296 0 -441 -41l-35 12l7 37q326 309 636 774q-250 348 -397 508q-227 244 -510 393z" />
<glyph unicode="Y" horiz-adv-x="1757" d="M-182 1608l30 26h2q129 0 391.5 -28.5t395.5 -28.5q166 0 262 18l33 -20l-19 -37q-63 -25 -106 -82t-43 -123q0 -137 209 -424q164 236 174 254q86 150 86 289q0 109 -57 184v37l36 6q106 -55 310 -55q180 0 383 57l34 -18l-16 -37q-285 -117 -542 -507t-257 -697 q0 -270 324 -445l12 -36l-35 -19q-272 68 -563 68q-231 0 -389 -58l-37 19l17 37q121 51 196 190q70 127 70 266q0 152 -156 426q-152 266 -350 469q-217 223 -371 238z" />
<glyph unicode="Z" horiz-adv-x="1509" d="M61 1679l17 31l35 -8q100 -127 454 -127q96 0 290 20.5t290 20.5q254 0 254 -191q0 -86 -189 -319l-352 -426q-188 -248 -188 -371q0 -94 131 -94q213 0 387 172q152 152 223 375l35 20l20 -37q-80 -325 -80 -631q0 -31 1 -63l2 -127l-17 -28l-33 6q-103 108 -363 108h-5 q-117 0 -345.5 -34.5t-342.5 -34.5q-217 0 -217 170q0 135 168 411q125 205 350 500q147 188 295 377h-152q-203 0 -379 -195q-154 -172 -213 -389l-35 -22l-22 34q24 148 24 318v14q0 242 -43 520z" />
<glyph unicode="^" horiz-adv-x="1585" d="M102 553q23 123 60 195l-17 6q27 72 66 98l12 -16q-31 -23 -51 -74q25 39 59 49q76 113 181 174q-51 -12 -95 -63l2 -2q-4 -4 -10 -9q-27 -25 -55 -65l-16 10q12 18 22 31q-16 -12 -31 -35l-18 10q14 23 31 39l-23 -12l-2 -2q-74 -55 -80 -166l-20 2q8 117 84 178v2h4 q4 55 117 103l2 6l4 -2q109 92 243 94q225 4 494 -178q111 -76 197 -208t116 -265q37 -51 47 -119l-20 -4q-10 68 -47 114q-51 238 -266 433q-70 61 -191 118q-113 51 -213 74q-72 14 -123 14q-115 -2 -229 -92q-23 -39 -60 -69q8 6 23 8q47 59 107 76q49 51 153 53 q127 2 268 -53q266 -100 404 -310q84 -127 115 -241q63 -88 71 -222h-20q-4 78 -35 150q16 -78 16 -137q2 -70 -16 -107l-19 11q16 33 15 94q0 70 -25 172q-25 111 -55 164q-45 76 -68 110q-41 61 -80 103q-111 117 -311 194q-137 53 -260 51q-94 -2 -139 -49q61 35 145 37 q152 2 314 -88h8q57 2 183 -101.5t222 -326.5q47 -111 49 -254q2 -57 -8 -113l-20 4q8 51 8 119q-4 182 -115.5 371.5t-271.5 267.5q143 -100 244.5 -266t126.5 -338l2 -4l-2 -2q4 -31 4 -57q2 -115 -66 -195q-39 -47 -57 -66q-35 -31 -72 -47q-57 -59 -119 -61 q-92 -2 -178 121q-55 80 -129 258t-98 217q12 -127 141 -377q123 -236 268 -231q86 0 181 86l14 -17q-43 -37 -80 -59q68 29 146 72l10 -19q-203 -113 -324 -115q-18 0 -33 2q-16 -4 -32 -4q-100 -2 -181.5 110t-95.5 136q-53 80 -78 146v8q0 31 -16 55q18 -123 78 -219 q94 -150 125 -180q78 -80 198 -78h50q39 2 94 31q84 43 188 73l10 4l7 -20l-11 -2q-104 -33 -184 -74q-61 -31 -104 -33h-24.5h-25.5q-166 -2 -280 172q-131 203 -146 349l-4 4l4 4q-43 129 -45 231q-2 68 17 121l18 -6q-14 -49 -14 -113q2 -100 43 -229q45 -37 43 -94 q57 -147 184 -293q74 -84 148 -82q18 0 34 4q12 -2 35 -2q31 0 70 10q-8 -2 -17 -2q-172 -2 -288 246q-137 291 -144 385q-2 14 -4 41l2 2q-6 27 -6 55q-2 123 82 144q27 4 78 16q-27 12 -47 12q-31 -2 -58 -22l-12 16q33 27 72 27q25 0 63 -19q127 -61 232 -229 q20 -33 88 -174q31 -61 86 -187q6 -14 8 -32q4 10 4 24t-4 29l-6 10l4 2q-10 41 -37 88q-4 8 -12 25q-12 35 -37 102q-111 260 -293 355q-59 31 -131 28q-143 -2 -143 -139h-21q0 158 158 160q82 2 145 -31q188 -96 301 -360q12 -37 39 -107q6 -8 15 -27q29 -53 36 -96 q10 -14 17 -14q8 0 8 22q-147 406 -274 508q-84 68 -115 84q-49 27 -139 41l4 21q92 -16 143 -43q33 -16 119 -86q133 -106 283 -523q-2 -47 -25 -47q-6 0 -14 6v-6q2 -72 -58 -71q-59 -2 -114 108q-117 227 -125 242q-106 193 -158 190h-4q-6 -25 -6 -45q0 -35 39 -96 q41 -68 178 -311q82 -152 164 -150q20 0 41 12q0 2 2 3q98 72 96 139q-2 82 -96 278q-92 188 -156 256q-127 129 -285 176q-12 -12 -84 -18q-80 -6 -131 -37q-76 -51 -114 -172l-21 6q68 203 277 226q23 0 57 8l-2 -2l2 -2l6 8q-10 -2 -22 -2q-8 0 -27 3t-25 3 q-49 0 -104 -23q-203 -80 -197 -395q2 -72 13 -125q31 -170 94 -332q88 -225 184 -268q8 -8 23 -6q14 0 32 6q23 -39 125 -35v-20l-10 -2q-70 -2 -108 20l2 -8q-23 -6 -45 -6q-45 0 -91 20l9 19q43 -18 82 -19q20 0 30 5l-2 2q-14 -2 -24 -2q-14 -2 -35 10q-37 23 -58 41 q-82 82 -151 268q-59 158 -78 303q-12 80 -12 129q-6 303 178 402q-213 -84 -209 -340q0 -29 6 -70q2 -25 4 -76q45 -432 281 -637l-12 -16q-182 154 -256 459q-27 113 -41 307q-2 -47 -2 -98q8 -416 237 -617l-12 -16q-141 125 -197 293q-45 133 -49 348q-4 303 100 442 q-72 -72 -110 -240q-33 -139 -31 -270q0 -49 6 -100l-20 -2q-6 53 -6 102q-2 115 26 250q33 156 88 235l-22 -32v-6h-6q-92 -150 -99 -351l-20 2q4 186 86 332q-57 -51 -88 -227zM127 854l37 64l2 -3l53 72l17 -12l-54 -72h-2l-35 -59zM156 954q43 74 88 74q10 0 18 -4 q141 117 297 119q59 0 113 -15q14 -4 41 -12q47 -10 143 -37q297 -111 465 -407q70 -4 123 -180l-21 -5q-37 123 -86 156q74 -133 86 -213l-20 -2q-12 84 -94 223q-4 4 -9 15q-76 135 -204.5 244.5t-274.5 158.5q-31 10 -114 27q-14 6 -39 14q-51 12 -109 12 q-61 -2 -160 -37q-109 -41 -133 -86v2l-22 -20l-15 14l15 13q-35 -2 -70 -64zM172 1026q201 131 268 137q43 10 131 19q70 2 156 -27q113 -37 154 -51q82 -33 143 -72q215 -135 428 -459l-16 -10q-276 418 -584 531q-43 14 -129 41.5t-152 25.5q-104 -2 -204 -47 q-61 -27 -183 -104zM184 395v68h21v-72q6 -327 131 -483l-14 -12q-131 156 -138 499zM229 915q41 23 68 56q-53 -29 -68 -56zM233 1104q49 43 78 45h11v-21q-31 0 -76 -41zM250 1165q98 59 166 62q31 0 49 -10l78 16l4 -21l-76 -16q-12 -31 -59 -33q-39 0 -80 -24l-10 16 q45 29 100 29q20 0 29 18q-14 6 -33 6q-59 -2 -158 -61zM266 1223q121 43 207 43q28 2 53 -4l-4 -19q-23 4 -47 4q-84 -2 -203 -45zM279 727q43 92 132 144.5t193 52.5h10v-9q27 -8 50 -8q22 1 32 11q-88 29 -159 26q-190 -2 -258 -217zM289 1272q61 31 145 33q35 -1 68 -5 l-4 -20q-33 4 -68 4q-74 -2 -133 -31zM305 870q111 115 270 119q41 0 152 -22q25 -4 72 -19q94 -37 224 -171t169 -228q49 -127 84 -197q-41 186 -162 346q-125 168 -291 244q-137 66 -256 64q-143 -4 -262 -136zM330 1370l98 14l4 -18q14 8 39 16l6 -20q-33 -8 -49 -23 q16 -6 27 -6q8 0 18 10l14 -16q-16 -12 -36 -14q-14 0 -37 10v-2l-6 2l-70 -16l-4 20l72 16q8 12 20 19l-92 -12zM332 518q0 66 6 123l20 -2q-8 -78 -8 -154q8 -397 230 -659q34 -41 57 -59l-12 -17q-141 121 -222 352q-68 199 -71 416zM336 -135l18 10q21 -39 82 -84 l-12 -16q-66 47 -88 90zM369 522q-2 100 49 205q16 35 20 41q14 25 33 33l10 -19q-25 -12 -49 -71l-8 2l6 -4q-43 -49 -41 -185q4 -176 60 -374q27 -92 100 -213q84 -137 153 -175q39 -23 125 -20q47 0 107 10l2 -20q-57 -10 -105 -11q-96 -2 -139 23q-74 43 -160 180 q-76 123 -102 219q-57 201 -61 379zM369 1395v20l20 2q340 8 733 -200q197 -107 338 -222l-14 -16q-211 178 -506 299q-315 127 -571 117zM371 1440v20q201 0 411 -61q328 -96 443 -201l6 -2q-43 51 -150 109q-236 129 -630 190l2 21q532 -82 766 -279q14 -14 47 -45l55 -6 q29 -14 82 -47l-12 -17q-23 16 -76 43l-21 4q41 -37 129 -96l-8 -18q-37 16 -158 119l-43 4q-57 55 -206 120q-127 53 -232 80q-233 61 -405 62zM408 494q-6 344 223 348h31l-3 -21h-22q-213 -4 -207 -321q0 -68 10 -135q27 -170 117 -353q115 -229 242 -239l-2 -21l-11 2 q-39 2 -96 47q-193 152 -270 559q-10 63 -12 134zM477 559q0 23 2 49l21 -2q-2 -23 -2 -45q6 -266 172 -498q-12 66 -99 250q-59 121 -61 254q-2 188 145 211l4 -20q-131 -20 -127 -189q2 -125 58 -247q104 -233 100 -283q43 -55 86 -111q51 -57 117 -82l-8 -18 q-70 27 -123 84q-45 59 -92 119h-2v2q-184 227 -191 526zM481 1532v20q211 -6 471 -114q225 -95 424 -238l-10 -16q-184 133 -422 231q-264 111 -463 117zM518 1335h17q47 2 112 -47q313 0 639 -287q2 0 6 3q59 0 142 -82l-15 -15q-68 68 -112 76q98 -90 161 -172l-14 -12 q-76 96 -172 180l-4 -2l-2 8q-322 276 -627 283l-2 -4l-6 4q-29 27 -109 20l-2 21q20 2 39 0q-27 10 -47 6zM518 1352l2 20q332 -55 586 -190q51 -27 158 -101q98 -67 157 -96l-8 -18q-47 20 -127 75q-53 49 -190 123q-250 133 -578 187zM537 965q61 2 155 -25t142 -59l4 2 l2 -4q70 -4 108 -74q20 -12 103 -107q70 -82 131 -225q10 -23 28 -70q6 -10 19 -32q41 -78 43 -142q0 -47 -21 -82q-10 -76 -98 -137q-10 -53 -84 -55q-98 -2 -238 221q14 -53 84 -131l-14 -14q-90 100 -92 157q0 10 2 21q-160 270 -162 369q-2 55 33 57q12 0 27 -6 q6 2 12 2q61 0 174 -189q70 -121 129 -256q43 -98 96 -96q-14 10 -26 31q-2 4 -64 117q-51 98 -156 288q-80 139 -174 138q-76 -2 -73 -76q0 -35 20 -80q102 -256 139 -328q121 -240 215 -260l-4 -20q-137 31 -284 393q-35 82 -101 246v2q-6 25 -6 47q-2 94 94 96 q104 2 193 -147q23 -41 156 -289q20 -39 63 -117q12 -18 23 -27q0 14 -9 35q0 2 -41 92q-92 203 -133 271q-94 156 -211 211q-12 -12 -45 -19q-25 -2 -49 -6q-70 -20 -67 -117q0 -35 12 -77q25 -23 108 -222q68 -162 111 -233q92 -152 184 -150q39 0 76 31h-12 q-84 -2 -144 88l17 10q53 -80 129 -77q20 0 41 6l6 10l6 -4q55 25 125 117q51 68 49 172q0 25 -2 49q-25 33 -61 123q-49 123 -51 127q-16 31 -74 110q-160 221 -309 279q-18 6 -68 16q-115 23 -148 21q-18 0 -38 -2zM541 1266h12q342 8 666 -260q162 -136 262 -281l-17 -12 q-152 225 -401 377q-268 162 -520 155zM555 1200l2 21q170 -4 324 -70q63 0 155 -49q201 -111 437 -418l-17 -12q-264 346 -479 436q256 -141 481 -483l-16 -11q-106 164 -252 304q-174 168 -324 217q-150 61 -311 65zM565 -330l4 21q37 -8 68 -8q27 0 59 10l4 -21 q-33 -8 -63 -10q-35 0 -72 8zM565 1567l2 20q174 -10 398 -106q190 -82 362 -203l-10 -16q-158 111 -359 198q-227 96 -393 107zM608 1608l4 18q369 -70 635 -248l-10 -16q-260 174 -629 246zM655 -369l127 11l2 -21l-127 -10zM670 586q0 -106 149 -353q158 -260 252 -258 q35 1 51 19q-14 -4 -28 -6q-109 -2 -205 200q-41 88 -154 269q-43 68 -43 108q0 20 6 45q-8 2 -14 2q-16 0 -14 -26zM696 893q178 -51 299 -182q137 -150 252 -518q4 16 4 32q-2 43 -21.5 86t-37.5 84q-6 18 -21 58q-55 137 -137 231q-29 37 -92 100l-2 -4q-92 37 -115 82 q-33 23 -108 49q-6 -12 -21 -18zM711 1628l4 21q160 -25 270 -101q92 -10 176 -80l-14 -16q-80 70 -170 78q-104 74 -266 98zM723 578l18 10l4 -8q109 -184 181 -308q27 -47 80 -139q51 -80 96 -80q47 2 96 70l16 -12q-53 -78 -108 -78q-61 -2 -117 90q-25 43 -76 131 q-72 123 -184 315zM745 -399h21q109 0 184 32l8 -18q-78 -35 -194 -35h-19v21zM791 -354q57 4 165 28l9 -18q-39 -16 -172 -31zM797 -303q250 10 456 147l13 -16q-205 -135 -469 -152v21zM834 211zM852 856q19 -22 68 -45q-29 37 -68 45zM862 922l8 -4zM870 918l4 -3h3z M969 -328q35 12 98 45l12 -18q-25 -16 -102 -45zM1090 -279l106 46l8 -21l-106 -43zM1161 -43q117 63 137 160l19 -4q-8 -39 -31 -76q18 14 43 74l21 -9q-29 -63 -56 -84l-12 15q-37 -55 -111 -94zM1208 -49q39 14 76 67l16 -10q-41 -61 -83 -78zM1409 422l18 6l17 -55 l-21 -4zM1444 541l20 6l17 -49l-21 -6z" />
<glyph unicode="`" horiz-adv-x="714" d="M68 1493q0 14 102.5 124.5t118.5 108.5l22 -12q57 -55 158 -141q39 -27 129 -71t119 -66l16 -21q4 -16 -57.5 -87t-79.5 -71l-16 5q-31 10 -86 45q-66 39 -84 47q-117 55 -320 110q-23 6 -22 29z" />
<glyph unicode="a" horiz-adv-x="1318" d="M109 274q0 180 176 261q162 53 325 106q174 72 174 231q0 49 -37.5 76t-89.5 27l-41 -4q1 -15 1 -30q0 -134 -66 -220q-80 -102 -229 -103q-94 0 -146.5 55.5t-52.5 151.5q0 158 209 250q164 72 342 72q219 0 375 -96q184 -115 184 -320q0 -72 -12.5 -215t-12.5 -215 q0 -166 201 -281l12 -32l-28 -23h-373q-33 0 -102 72q-63 66 -80 102q-166 -178 -400 -178q-139 0 -234 87t-95 226zM541 322q0 -78 82 -78q196 0 196 281v20v33q-86 -53 -172 -107q-106 -70 -106 -149z" />
<glyph unicode="b" horiz-adv-x="1347" d="M-215 1536l35 14q174 -47 397 -47q203 0 379 47l29 -8l8 -29q0 -92 -31 -272q-33 -199 -37 -276q125 139 295 139q270 0 414 -154q137 -150 137 -422q0 -244 -165 -415.5t-408 -171.5q-182 0 -275 116q1 -31 1 -54q0 -58 -7 -66l-22 -9q-57 0 -182.5 12.5t-188.5 12.5 q-100 0 -176 -23l-35 19l16 37q133 51 199 301q47 178 47 368q0 334 -88 496q-70 127 -336 348zM602 524q0 -121 45 -243q58 -164 154 -164q121 0 157 145q20 74 21 240q0 123 -35 231q-47 156 -143 156q-100 0 -156 -139q-43 -106 -43 -226z" />
<glyph unicode="c" horiz-adv-x="1167" d="M76 487q0 256 170 443.5t424 187.5q217 0 362 -125q156 -131 156 -344q0 -125 -217 -125q-143 0 -213 138q-55 109 -58 266q-213 -47 -213 -383q0 -129 76 -238q86 -121 211 -121q156 0 369 176l37 3l10 -35q-68 -176 -213.5 -270.5t-337.5 -94.5q-225 0 -391 146 q-172 154 -172 376z" />
<glyph unicode="d" horiz-adv-x="1386" d="M68 553q0 244 163.5 405.5t409.5 161.5q117 0 209 -59q-39 385 -399 461l-23 34l33 25q274 -37 543 -37q14 0 130.5 7.5t159.5 7.5q31 0 37 -3l4 -28q0 -43 -24 -131q-31 -111 -35 -133q-55 -309 -55 -637q0 -262 47 -389q65 -179 258 -269l16 -35l-33 -20 q-248 35 -438 35q-12 0 -102 -10q-55 -6 -77 -6q-8 0 -11 1q-12 25 -13 25l4 117q-113 -98 -254 -99q-270 0 -410 152t-140 424zM479 580q0 -408 199 -408q94 0 143 156q35 109 35 229q0 123 -35 231q-49 156 -143 156q-102 0 -158 -139q-41 -106 -41 -225z" />
<glyph unicode="e" horiz-adv-x="1241" d="M82 551q0 254 185.5 432t439.5 178q229 0 392 -166t163 -395q0 -72 -47.5 -117t-118.5 -45h-584q68 -215 328 -215q190 0 354 146l33 4l14 -31q-35 -174 -205 -270q-147 -84 -338 -84q-283 0 -444 139q-172 147 -172 424zM492 616q51 0 153.5 -2t153.5 -2q61 0 61 72 q0 113 -37 190q-49 105 -145 105q-102 0 -152 -137q-33 -92 -34 -226z" />
<glyph unicode="f" horiz-adv-x="1257" d="M37 43l22 -53q152 43 453 43q190 0 401 -23l31 21l-14 35q-137 74 -199 219q-49 113 -57 293q0 150 -2 301q39 -4 63 -5q66 0 94 39q37 63 72 129l2 29l-26 14h-207l-2 115v7q0 81 43 177q49 109 116 146q2 -143 91.5 -237.5t230.5 -94.5q172 0 172 199q0 137 -191 241 q-162 90 -309 91q-542 0 -542 -558q0 -41 2 -86h-162l-25 -14v-31q35 -57 70 -116q33 -47 94 -47q16 0 35 2q14 -268 14 -291q0 -172 -61 -314q-72 -162 -209 -231z" />
<glyph unicode="g" horiz-adv-x="1320" d="M59 528q0 246 164 412t410 166q133 0 231 -76q0 37 2 74q2 55 17 63l26 4q43 0 139.5 -19t145.5 -19q133 0 279 24l32 -18l-12 -35q-139 -76 -217 -270q-66 -164 -66 -345q0 -106 32 -314t32 -312q0 -256 -158 -387q-147 -123 -407 -123q-227 0 -390 80 q-208 102 -208 307q0 78 44 128t119 50q125 0 213 -133q76 -113 86 -248l66 -6q12 -1 23 -1q89 0 138 56q56 64 56 174q0 49 -6 136q-6 96 -8 137q-109 -90 -242 -90q-268 0 -410 161q-131 150 -131 424zM471 555q0 -408 199 -408q96 0 145 162q33 109 33 236q0 190 -12 241 q-35 133 -166 134q-102 0 -158 -140q-41 -106 -41 -225z" />
<glyph unicode="h" horiz-adv-x="1404" d="M-92 1632l29 15q88 -8 188 -9q82 0 241.5 7t243.5 8l27 -6l8 -27q-1 -102 -31 -312q-29 -197 -28 -305v-14q166 152 338 152q156 0 256 -76q113 -82 112 -234v-434q0 -129 66.5 -236.5t181.5 -168.5l14 -35l-32 -20q-179 24 -359 24h-14q-236 0 -311 -49l-37 2l-4 37 q112 203 112 476q0 19 2 71t2 88q0 276 -127 276q-76 0 -122 -133q-37 -104 -37 -192q0 -209 127 -486l-6 -33l-31 -6q-139 49 -311 49q-215 0 -369 -98l-39 8l4 39q125 102 193 326q57 186 57 377q0 240 -33 372q-29 121 -106 240q-102 137 -203 274z" />
<glyph unicode="i" horiz-adv-x="890" d="M8 1124l39 13q113 -59 406 -60q51 0 156.5 9.5t156.5 9.5l27 -13l2 -28q0 -23 -47.5 -207t-47.5 -289q0 -372 258 -524l15 -35l-31 -20q-290 32 -536 32h-15q-186 0 -276 -24l-35 18l16 37q121 57 189 217q57 135 57 285q0 172 -86 319.5t-236 220.5zM162 1382 q0 125 73.5 194t200.5 69q145 0 244 -58q121 -70 121 -205q0 -123 -72 -187.5t-197 -64.5q-147 0 -245 54q-125 66 -125 198z" />
<glyph unicode="j" horiz-adv-x="923" d="M-364.5 -167q38.5 48 108.5 48q141 0 253 -89t140 -226l47 -6q176 0 176 284q0 133 -11 398.5t-11 396.5q0 297 -256 455l-12 36l34 17q254 -72 476 -72q150 0 229 43l35 -6l6 -33q-104 -213 -105 -501q0 -106 28 -319.5t28 -319.5q0 -274 -191 -422q-172 -135 -452 -135 q-188 0 -353 73q-208 94 -208 258q0 72 38.5 120zM170 1393q0 127 73.5 195.5t202.5 68.5q145 0 244 -58q121 -70 121 -204q0 -246 -352 -246q-125 0 -203 59q-86 66 -86 185z" />
<glyph unicode="k" horiz-adv-x="1615" d="M-121 1626l35 21q313 -72 547 -72q154 0 196 41l35 6l15 -33q-65 -363 -65 -673q0 -34 1 -68l2 -146q334 147 334 271q0 96 -133 137l-21 33l31 24q182 -18 358 -18q215 0 414 29l33 -23l-19 -35q-330 -111 -503 -266q109 -262 260 -465q186 -250 393 -346l16 -33 l-30 -22q-330 20 -537 20q-201 0 -262 -20l-35 20l19 37h2q86 27 86 119q0 143 -125 246q-117 96 -262 104q41 -315 167 -455l5 -34l-31 -15q-186 27 -389 27q-250 0 -379 -55l-39 16l14 39q137 63 205 330q51 195 51 397q0 250 -82 467q-100 272 -290 360z" />
<glyph unicode="l" horiz-adv-x="876" d="M-47 1604l31 22q268 -20 491 -20q184 0 258 18l29 -10l6 -31q-86 -199 -86 -594q0 -385 27 -522q61 -305 278 -401l17 -35l-31 -21q-215 23 -457 23q-285 0 -465 -45l-35 22l21 35q152 33 229 307q55 195 56 398q0 244 -74 460q-94 281 -277 359z" />
<glyph unicode="m" horiz-adv-x="2183" d="M-39 1106l31 18q218 -24 388 -24h13h-1q0 1 87 6q26 1 44 1q31 0 37 -4q9 -7 9 -128q193 217 412 217q113 0 199 -47q100 -53 125 -152q195 154 395 154q137 0 244 -78q114 -85 114 -217q0 -53 -7 -171t-7 -179q0 -334 219 -436l16 -33l-30 -23q-106 4 -238 4 q-424 0 -481 -55l-39 -2l-8 39q166 268 166 543q0 348 -138 348q-96 0 -145 -115q-33 -86 -33 -197q0 -334 117 -409l12 -33l-30 -20q-168 14 -293 14q-160 0 -203 -25l-33 2l-10 31q65 204 65 484v8q0 301 -145 301q-90 0 -137 -178q-33 -125 -33 -240q0 -117 31 -238 q41 -154 110 -211l11 -32l-31 -19q-184 16 -328 17q-268 0 -336 -58l-39 8l2 39q219 158 220 482q0 225 -63.5 339.5t-246.5 233.5z" />
<glyph unicode="n" horiz-adv-x="1484" d="M-76 1186l35 18q180 -45 406 -45l131 8q50 3 78 3t34 -3q8 -25 8 -24q0 -25 -2 -113q-1 -35 -1 -63.5t1 -51.5q219 231 435 232q154 0 239 -72q94 -80 94 -231q0 -701 236 -805l16 -39l-39 -16q-83 32 -254 32h-10q-209 0 -436 -34l-31 18l10 35q82 55 134 248 q41 156 41 286q0 293 -166 293q-211 0 -211 -313q0 -78 41 -226.5t41 -216.5l-6 -24q-18 -10 -275 -25q-268 -16 -356 -47l-37 17l14 39q100 51 152 227q39 133 39 276q0 408 -346 580z" />
<glyph unicode="o" horiz-adv-x="1243" d="M76 588q0 244 192 411q184 158 432 158q270 0 443 -147q182 -156 182 -422q0 -244 -192 -410q-185 -160 -433 -160q-260 0 -438 154q-186 160 -186 416zM504 588q0 -133 37 -244q51 -156 159 -156q106 0 160 158q37 109 37 242q0 135 -37 243q-51 158 -160 158t-159 -158 q-37 -108 -37 -243z" />
<glyph unicode="p" horiz-adv-x="1445" d="M-90 1239l33 12q193 -51 403 -51q14 0 131 12q80 8 104 8q7 0 9 -1q10 -8 16 -218q141 168 295 168q250 0 404 -168q147 -162 147 -413q0 -244 -164 -411t-409 -167q-141 0 -244 86q8 -287 43 -389q61 -187 268 -287l15 -36l-33 -19q-281 61 -570 62q-211 0 -346 -41 l-37 18l21 37q145 37 221 336q53 211 53 420q0 379 -53 561q-74 256 -303 444zM653 582q0 -385 178 -385q109 0 158 147q31 98 31 238q0 376 -178 376q-98 0 -150 -147q-39 -109 -39 -229z" />
<glyph unicode="q" horiz-adv-x="1507" d="M57 594q0 254 165 418t419 164q147 0 252 -93q-2 44 -2 74q0 60 8 66l25 6q63 0 209 -21q123 -20 197 -20h18l106 4l29 -18l-6 -33q-141 -139 -191 -326q-37 -137 -37 -385q0 -270 80 -534q99 -316 273 -463l8 -35l-33 -16q-225 38 -451 38h-12h1q0 -1 -122 -8 q-31 -1 -54 -1q-46 0 -62 5q-8 25 -9 25l33 686q-90 -111 -270 -111q-266 0 -420 156t-154 422zM500 610q0 -387 178 -387t178 387q0 127 -25 224q-41 151 -132 151h-1q-113 0 -163 -141q-35 -96 -35 -234z" />
<glyph unicode="r" horiz-adv-x="1253" d="M-33 1069l35 21q152 -41 301 -41q51 1 155 27q91 23 139 23q7 0 13 -1l27 -2q19 -15 19 -72q0 -12 -1 -27q41 31 113 62t119 31q342 0 342 -396q0 -250 -176 -250q-135 0 -201 134q-47 100 -47 241v12v39q-145 -106 -146 -411q0 -145 125 -281q109 -119 258 -176l19 -37 l-35 -20q-164 41 -383 41q-279 0 -524 -49l-31 12l2 35q129 137 174 246.5t45 301.5q0 158 -90 299.5t-235 202.5z" />
<glyph unicode="s" horiz-adv-x="1193" d="M70 547l12 37l39 -9q272 -362 549 -362q49 0 98 16q63 25 63 66q0 78 -184 131q-285 82 -342 113q-184 96 -184 278q0 172 147 277q133 92 312 92q55 0 157.5 -26.5t149.5 -26.5q59 0 102 55q35 44 47 110l35 23l25 -31q-6 -53 -6 -112q0 -160 45 -418l-19 -33l-35 10 q-76 106 -217 193q-152 92 -272 92q-78 0 -78 -64q0 -86 178 -141q283 -88 332 -115q178 -96 178 -284q0 -174 -105.5 -280.5t-279.5 -106.5q-59 0 -174 25.5t-172 25.5q-70 0 -130 -41t-79 -107l-33 -22l-24 33q1 20 1 41q0 226 -136 561z" />
<glyph unicode="t" horiz-adv-x="989" d="M59 1042q0 25 29 27q176 12 330 141q139 117 221 291l35 17l22 -31l-28 -420h-3l99 2q43 1 77.5 1t59.5 -1q74 -4 80 -14l2 -29l-68 -147l-26 -19l-232 8q-20 -338 -20 -426q0 -82 27 -147q35 -88 106 -88q29 0 78 19.5t72 41.5l36 2l13 -32q-33 -152 -95 -209 q-70 -68 -227 -68q-139 0 -283 131q-140 127 -139 262v8l17 519q-4 -1 -9 -1q-46 0 -107 56q-67 61 -67 106z" />
<glyph unicode="u" horiz-adv-x="1476" d="M-84 1159l37 15q174 -59 459 -60h-2q0 1 139 6q40 2 67 2q45 0 54 -6l6 -26q0 -74 -38 -236t-38 -244q0 -286 163 -286h1q102 0 154 161q34 108 34 235v7q0 106 -56 224t-138 182l-8 36l34 15q182 -55 402 -56q106 0 200 17l29 -10l2 -31q-94 -213 -94 -496 q0 -172 63 -311q75 -155 216 -231l14 -35l-31 -21h-600l-24 6q-10 25 -11 25l13 170q-143 -180 -355 -180q-162 0 -262 91t-100 251q0 307 -39 426q-61 193 -279 321z" />
<glyph unicode="v" horiz-adv-x="1429" d="M-139 1167l33 19q244 -41 577 -41q113 0 307 12l31 -29l-29 -30q-59 0 -94 -56q-27 -45 -27 -108q0 -119 66 -252q23 -49 133 -229q66 117 131 231q82 158 82 252q0 143 -133 246l-10 35l33 16q227 -43 450 -43q145 0 242 24l35 -18l-13 -37q-246 -143 -420 -389 q-192 -269 -192 -527q0 -136 80 -177l16 -37l-35 -19q-188 35 -385 35q-225 0 -338 -59l-39 10l9 39q111 84 110 246q0 219 -213 481q-164 205 -397 371z" />
<glyph unicode="w" horiz-adv-x="1972" d="M-84 1096l29 20q113 -7 264 -7q60 0 127 1l389 4q20 0 31 -27l-27 -30h-5q-32 0 -50 -49q-14 -39 -15 -80q0 -178 166 -445l158 523l29 22h352q29 0 29 -35q0 -283 125 -461q109 180 127 220q61 129 61 243q0 147 -119 201l-16 35l33 20q176 -26 322 -26h11q145 0 240 26 l35 -16l-10 -37q-168 -109 -336 -431.5t-168 -530.5q0 -143 69 -181l17 -35l-33 -20q-262 27 -389 27q-82 0 -152 -9l-32 25q18 37 53 63q10 49 10 50q0 74 -65 217q-49 102 -97 202q-96 -211 -96 -348q0 -113 51 -143l15 -35l-33 -20q-150 20 -291 20q-215 0 -350 -49 l-37 16l10 37q102 68 103 215q0 203 -177 445q-150 209 -348 350z" />
<glyph unicode="x" horiz-adv-x="1511" d="M33 1087l33 23q317 -35 565 -35q174 0 243 23l35 -15l-10 -36q-55 -37 -55 -125q0 -70 63 -166q106 174 107 288q0 59 -29 78l-12 35l33 21q201 -29 403 -29q98 0 176 10l31 -22l-14 -33q-256 -129 -590 -500q365 -506 592 -553l24 -31l-31 -26q-60 1 -115 1 q-450 0 -628 -58l-35 14l10 39q33 20 33 92q0 92 -82 233q-145 -207 -145 -301q0 -14 43 -73l-33 -27q-223 16 -321 16q-123 0 -220 -16l-32 23l20 34q131 43 322 211q145 129 272 275q-121 164 -287 331q-213 215 -348 265z" />
<glyph unicode="y" horiz-adv-x="1460" d="M-51 1114l37 16q207 -63 426 -63q37 0 108.5 12.5t104.5 12.5l26 -7q10 -27 11 -26q0 -70 -19.5 -216.5t-19.5 -219.5q0 -160 6 -207q25 -145 110 -146q127 0 174 117q31 76 31 225q0 207 -29 293q-39 115 -174 223l-8 37l31 17q244 -44 440 -44q24 0 47 1l123 4l27 -15 v-30q0 -68 -29 -250t-29 -277q0 -102 13.5 -308t13.5 -308q0 -311 -184 -436q-152 -102 -475 -103q-203 0 -355 80q-184 100 -184 285q0 176 186 176q127 0 232 -123q96 -115 108 -246q43 -14 76 -14q207 0 207 375q0 80 -10 178q-203 -152 -359 -152q-168 0 -278 134 q-104 127 -105 297v270q-10 135 -61 221q-61 104 -207 180z" />
<glyph unicode="z" horiz-adv-x="1390" d="M88 618q92 240 92 504q0 68 -6 109l19 31l34 -11q63 -90 355 -90q82 0 244.5 23.5t242.5 23.5q193 0 193 -221q0 -158 -230 -401q-150 -160 -366 -326h47h7q182 0 329 102q162 113 192 289l35 25l24 -33q-30 -190 -30 -479v-53l2 -109l-23 -29l-32 13q-84 139 -213 139 q-94 0 -279.5 -50t-284.5 -50q-121 0 -213 53q-108 65 -108 178q0 80 78 131q158 104 335 270q195 180 289 322q-10 20 -108 20q-137 0 -320 -145q-139 -113 -254 -264l-37 -8z" />
<glyph unicode="&#xa1;" horiz-adv-x="808" d="M78 1294q0 131 90 185q68 39 209 39q125 0 201 -54q88 -61 88 -180q0 -213 -289 -213q-299 0 -299 223zM80 -156q141 281 141 580t-108 500l2 30l30 13q80 -23 172 -23q45 0 134.5 20.5t128.5 20.5l28 -6l10 -27q0 -41 -10 -129t-10 -131q0 -219 64 -442 q73 -257 200 -400l4 -34l-32 -13q-72 16 -254 17q-217 0 -471 -19l-27 15z" />
<glyph unicode="&#xa2;" horiz-adv-x="1087" d="M51 709q0 219 129 395t338 221q0 59 -37 182q-33 117 -32 168l2 27q10 16 153 16q88 0 174 -2l27 -14l-2 -29q-61 -109 -70 -336q184 -25 307 -153.5t123 -311.5q0 -127 -217 -127q-143 0 -215 140q-55 106 -57 266q-211 -47 -211 -383q0 -129 76 -238q86 -123 209 -122 q158 0 370 178h37l10 -33q-106 -279 -393 -346q4 -51 37 -164t33 -160l-2 -26q-10 -16 -154 -17q-88 0 -174 2l-27 15v28q59 100 70 305q-209 20 -356.5 167t-147.5 352z" />
<glyph unicode="&#xa3;" horiz-adv-x="1544" d="M41 639l59 248l33 22l168 -26q-4 53 -4 102q0 309 156 481q168 184 501 185q207 0 353 -119q154 -129 153 -330q0 -80 -58.5 -126t-139.5 -46q-129 0 -213 154q-57 111 -84 270q-281 -31 -265 -436l7 -156q195 6 284 41l33 -8l4 -33l-125 -235l-33 -17q-61 14 -159 21 q10 -426 250 -426q176 0 344 170q139 143 217 334l34 16l21 -33q-29 -193 -137 -762l-21 -22l-28 8q-111 117 -592 117q-348 0 -705 -49l-31 16l11 35q180 137 214 213t29 330v45q-2 0 -94 -11q-76 -8 -119 -8q-41 0 -57 8z" />
<glyph unicode="&#xa5;" horiz-adv-x="1835" d="M-10 1606l30 26h3q117 0 353 -27.5t355 -27.5q150 0 236 18l34 -20l-18 -37q-57 -23 -95 -77t-38 -118q0 -74 68 -204q53 -104 118 -191q141 215 154 240q78 139 78 270q0 102 -54 174l3 37l36 6q94 -53 277 -53q162 0 344 55l37 -16l-17 -39q-201 -86 -378 -319 q-147 -193 -246 -439q266 10 391 43l33 -12l-2 -35l-183 -235l-28 -11q-104 16 -287 21q-18 -84 -18 -156q0 -256 288 -422l13 -37l-35 -16q-246 63 -506 64q-209 0 -350 -54l-37 17l14 37q111 51 178 184q61 121 62 250q0 49 -23 127l-172 -11q-150 -10 -227 -10 q-72 0 -88 8l-4 29l86 248l31 18l268 -26q-115 215 -281 411q-219 262 -379 279z" />
<glyph unicode="&#xa8;" horiz-adv-x="1161" d="M88 1442q0 80 76 133q68 45 151 45q86 0 152 -45q76 -51 76 -133t-76 -133q-66 -47 -152 -47q-84 0 -151 47q-76 51 -76 133zM700 1470q0 78 70 129q63 45 145 46q80 0 144 -46q72 -49 71 -129q0 -78 -71 -127q-64 -45 -144 -45q-82 0 -145 45q-70 49 -70 127z" />
<glyph unicode="&#xab;" horiz-adv-x="1705" d="M143 676q4 8 13 20q127 123 256 248q137 140 221 279l29 14q59 -4 118 -10q90 -10 109 -25l4 -24q0 -84 -141 -260q-119 -150 -217 -232q313 -600 311 -616v-29l-27 -14l-244 8l-26 16q-43 100 -227 367q-178 256 -179 258zM805 682q4 8 12 23q123 117 244 233 q131 135 203 270l30 15q2 0 140 -9q106 -6 125 -18l4 -25q0 -86 -146 -266q-119 -150 -221 -233l313 -594l-2 -33l-30 -10l-234 43l-20 18q-59 113 -203 332q-98 106 -205 229z" />
<glyph unicode="&#xad;" horiz-adv-x="827" d="M88 604q10 104 21 207q20 176 34 184l27 4q4 0 137 -35.5t205 -35.5q70 0 164 32.5t90 32.5q29 0 29 -24q0 -29 -45 -203t-60 -180q-18 -2 -94 14q-82 16 -113 16q-68 0 -195.5 -22.5t-162.5 -22.5l-27 7z" />
<glyph unicode="&#xb4;" horiz-adv-x="729" d="M68 1415q6 8 18 21q29 23 119 65.5t129 71.5q66 63 158 141l20 12q18 2 120.5 -108.5t102.5 -124.5q0 -23 -22 -29q-205 -55 -320 -110q-59 -37 -170 -92q-16 -4 -16 -5q-18 0 -79.5 71t-59.5 87z" />
<glyph unicode="&#xb8;" horiz-adv-x="634" d="M82 -283q0 -6 70.5 147.5t70.5 248.5q0 45 25 45q41 0 122 -13.5t124 -13.5q-2 0 34 4q27 2 39 -2q20 -4 21 -22q0 -16 -13 -27q-162 -147 -210 -279q-6 -29 -23 -84l-12 -18l-23 -4q-14 0 -44 4t-44 4q-18 0 -54 -9t-50 -9q-33 0 -33 28z" />
<glyph unicode="&#xbb;" horiz-adv-x="1705" d="M143 1171l4 25q18 12 125 18q137 8 140 9l28 -15q74 -135 205 -270q121 -117 242 -233q6 -8 12 -23l-8 -25q-88 -94 -207 -229q-45 -59 -104 -166q-68 -123 -97 -166l-22 -18l-234 -43l-28 10l-2 33l311 594q-100 84 -221 233q-143 182 -144 266zM813 1178l4 26 q18 12 109 23q59 6 118 10l29 -14q84 -139 221 -279q127 -125 256 -248l13 -20q-2 -2 -179 -258q-184 -266 -227 -367l-27 -16l-243 -8l-27 14l-2 29q0 16 313 616q-98 82 -217 232q-141 176 -141 260z" />
<glyph unicode="&#xbf;" horiz-adv-x="1431" d="M-164 258q0 186 156 303q66 49 289 146q156 68 155 133q0 16 -11 47t-7 49q20 16 39 16q100 0 161 -47q70 -53 70 -149q0 -109 -84 -181q-78 -63 -155 -124q-86 -94 -87 -254q0 -84 69 -144.5t155 -60.5q41 0 176 59q-10 74 -10 146q0 188 69 301q84 141 258 141 q96 0 150.5 -55.5t54.5 -151.5q0 -283 -293 -479q-262 -176 -557 -176q-256 0 -414 108q-184 127 -184 373zM193 1217q0 223 319 223q127 0 215 -54q104 -61 104 -180q0 -213 -319 -213q-129 0 -213 47q-106 57 -106 177z" />
<glyph unicode="&#xc0;" d="M-109 -25l9 39q252 176 456 549q102 186 293 656q33 76 33 71q0 80 -104 152q-51 33 -183 92h4l-20 14q0 35 18 41h19h-4q225 -43 573 -43q270 0 533 35l32 -25l-20 -32q-84 -25 -131 -101.5t-47 -167.5q0 -276 293.5 -731.5t549.5 -574.5l17 -35l-33 -23 q-403 57 -727 58q-207 0 -309 -31l-35 16l12 37q68 45 110 125t42 164q0 43 -10 88h-711l-4 -41q0 -170 215 -287l14 -34l-33 -21q-260 51 -499 51q-213 0 -314 -53zM629 557h549q-98 215 -299 520q-164 -330 -250 -520zM696 1970q0 14 103 125t121 109l22 -13 q55 -55 156 -141q39 -29 129 -72t119 -65l18 -21q4 -16 -58.5 -86.5t-80.5 -70.5l-17 4q-29 10 -84 43q-66 41 -86 49q-115 55 -317 111q-25 6 -25 28z" />
<glyph unicode="&#xc1;" d="M-109 -25l9 39q252 176 456 549q102 186 293 656q33 76 33 71q0 80 -104 152q-51 33 -183 92h4l-20 14q0 35 18 41h19h-4q225 -43 573 -43q270 0 533 35l32 -25l-20 -32q-84 -25 -131 -102t-47 -167q0 -276 294 -732q293 -455 549 -574l17 -35l-33 -23q-403 57 -727 58 q-207 0 -309 -31l-35 16l12 37q68 45 110 125t42 164q0 43 -10 88h-711l-4 -41q0 -170 215 -287l14 -34l-33 -21q-260 51 -499 51q-213 0 -314 -53zM629 557h549q-98 215 -299 520q-164 -330 -250 -520z" />
<glyph unicode="&#xc2;" d="M-109 -25l9 39q252 176 456 549q102 186 293 656q33 76 33 71q0 80 -104 152q-51 33 -183 92h4l-20 14q0 35 18 41h19h-4q225 -43 573 -43q270 0 533 35l32 -25l-20 -32q-84 -25 -131 -102t-47 -167q0 -276 294 -732q293 -455 549 -574l17 -35l-33 -23q-403 57 -727 58 q-207 0 -309 -31l-35 16l12 37q68 45 110 125t42 164q0 43 -10 88h-711l-4 -41q0 -170 215 -287l14 -34l-33 -21q-260 51 -499 51q-213 0 -314 -53zM629 557h549q-98 215 -299 520q-164 -330 -250 -520z" />
<glyph unicode="&#xc3;" d="M-109 -25l9 39q252 176 456 549q102 186 293 656q33 76 33 71q0 80 -104 152q-51 33 -183 92h4l-20 14q0 35 18 41h19h-4q225 -43 573 -43q270 0 533 35l32 -25l-20 -32q-84 -25 -131 -101.5t-47 -167.5q0 -276 293.5 -731.5t549.5 -574.5l17 -35l-33 -23 q-403 57 -727 58q-207 0 -309 -31l-35 16l12 37q68 45 110 125t42 164q0 43 -10 88h-711l-4 -41q0 -170 215 -287l14 -34l-33 -21q-260 51 -499 51q-213 0 -314 -53zM506 1827q37 115 115 196q90 98 194 99q100 0 200.5 -64.5t184.5 -64.5q106 0 162 39q33 23 53 73 q20 45 39 52q35 -10 35 -97q0 -317 -293 -317q-109 0 -220.5 65.5t-207.5 65.5q-90 0 -219 -82l-33 2zM629 557h549q-98 215 -299 520q-164 -330 -250 -520z" />
<glyph unicode="&#xc4;" d="M-109 -25l9 39q252 176 456 549q102 186 293 656q33 76 33 71q0 80 -104 152q-51 33 -183 92h4l-20 14q0 35 18 41h19h-4q225 -43 573 -43q270 0 533 35l32 -25l-20 -32q-84 -25 -131 -101.5t-47 -167.5q0 -276 293.5 -731.5t549.5 -574.5l17 -35l-33 -23 q-403 57 -727 58q-207 0 -309 -31l-35 16l12 37q68 45 110 125t42 164q0 43 -10 88h-711l-4 -41q0 -170 215 -287l14 -34l-33 -21q-260 51 -499 51q-213 0 -314 -53zM473 1919q0 80 76 131q68 47 151 47q84 0 152 -45q76 -53 76 -133q0 -82 -76 -133q-68 -47 -152 -47 q-86 0 -151 47q-76 51 -76 133zM629 557h549q-98 215 -299 520q-164 -330 -250 -520zM1083 1948q0 78 72 129q63 45 145 45q80 0 144 -45q72 -51 72 -129t-72 -129q-64 -45 -144 -45q-82 0 -145 45q-72 51 -72 129z" />
<glyph unicode="&#xc5;" d="M-109 -25l9 39q252 176 456 549q102 186 293 656q33 76 33 71q0 80 -104 152q-51 33 -183 92h4l-20 14q0 35 18 41h19h-4q225 -43 573 -43q270 0 533 35l32 -25l-20 -32q-84 -25 -131 -101.5t-47 -167.5q0 -276 293.5 -731.5t549.5 -574.5l17 -35l-33 -23 q-403 57 -727 58q-207 0 -309 -31l-35 16l12 37q68 45 110 125t42 164q0 43 -10 88h-711l-4 -41q0 -170 215 -287l14 -34l-33 -21q-260 51 -499 51q-213 0 -314 -53zM629 557h549q-98 215 -299 520q-164 -330 -250 -520zM700 1939q0 109 99 177q90 61 200 61q113 0 201 -61 q98 -68 98 -177q0 -106 -98 -176q-88 -61 -201 -61t-200 61q-98 70 -99 176zM879 1939q0 -39 43 -63q35 -20 77 -21q43 0 78 21q43 25 43 63q0 41 -39 63.5t-82 22.5t-77 -20q-43 -25 -43 -66z" />
<glyph unicode="&#xc6;" horiz-adv-x="2705" d="M-10 49l16 37q115 43 402 336q258 262 494.5 556t236.5 357l45 107q-12 37 -110.5 104.5t-98.5 77.5l8 27l37 2l-4 4q94 -41 252 -51q59 -4 260 -4h104q82 -2 135 -3q578 0 676 148l31 14l25 -24l122 -705l-20 -33l-35 15q-123 229 -223 303q-121 86 -361 86 q-160 0 -233 -203q-51 -143 -49 -334l2 -96q205 -2 365.5 122t207.5 329l33 22l25 -33q-37 -305 -37 -534q0 -145 20 -201l-10 -33l-35 -2q-147 121 -350 121h-207q47 -342 309 -342q188 0 349 164q139 141 202 340l35 20l21 -34q-33 -197 -78 -760l-19 -25l-30 6 q-137 129 -680 129q-508 0 -789 -73l-35 18l15 37q139 72 229 197q98 135 96 280v43h-483q-74 -96 -96 -137q-45 -82 -45 -156q0 -102 110 -180l11 -37l-33 -16q-217 49 -445 49q-193 0 -335 -53zM1010 770h323q-8 125 -59 363z" />
<glyph unicode="&#xc7;" horiz-adv-x="1466" d="M45 776q0 377 205 629q221 268 590 268q231 0 424 -143q211 -156 211 -385q0 -88 -62.5 -135t-152.5 -47q-190 0 -299 176q-70 113 -121 350q-176 -39 -260 -223q-68 -145 -68 -351q0 -250 102 -399q117 -174 353 -174q164 0 282 86q68 47 148 156q61 86 92 86 q55 0 55 -66q0 -209 -207 -405q-199 -184 -409 -205q-80 -92 -107 -187q-23 -80 -45 -92q-39 -24 -203 -24l-34 6l-2 35q84 139 120 278q-279 55 -446 271q-166 209 -166 495z" />
<glyph unicode="&#xc8;" horiz-adv-x="1826" d="M57 1645l37 12q127 -55 541 -55h108q84 -2 142 -3q580 0 680 148l30 14l25 -24l121 -705l-19 -33l-34 15q-123 229 -236 311q-131 98 -371 98q-248 0 -260 -497h221q115 0 203 108q74 92 101 215l32 23l27 -31q-14 -227 -14 -407q0 -260 30 -345l-14 -36l-39 12 q-51 100 -133 168q-96 82 -193 82h-219q6 -215 60 -330q78 -166 262 -166q188 0 348 164q139 141 201 340l35 20l22 -34q-33 -197 -78 -760l-18 -25l-31 6q-125 119 -696 119q-403 0 -817 -49l-31 18l10 35q180 125 268 359q78 201 78 450q0 207 -102.5 413t-267.5 331z M545 1970q0 14 102.5 125t118.5 109l22 -13q57 -55 158 -141q39 -29 128 -72t120 -65l16 -21q4 -16 -58 -86.5t-79 -70.5q-2 0 -16 4q-31 10 -86 43q-66 41 -84 49q-117 55 -320 111q-23 6 -22 28z" />
<glyph unicode="&#xc9;" horiz-adv-x="1826" d="M57 1645l37 12q127 -55 541 -55h108q84 -2 142 -3q580 0 680 148l30 14l25 -24l121 -705l-19 -33l-34 15q-123 229 -236 311q-131 98 -371 98q-248 0 -260 -497h221q115 0 203 108q74 92 101 215l32 23l27 -31q-14 -227 -14 -407q0 -260 30 -345l-14 -36l-39 12 q-51 100 -133 168q-96 82 -193 82h-219q6 -215 60 -330q78 -166 262 -166q188 0 348 164q139 141 201 340l35 20l22 -34q-33 -197 -78 -760l-18 -25l-31 6q-125 119 -696 119q-403 0 -817 -49l-31 18l10 35q180 125 268 359q78 201 78 450q0 207 -102.5 413t-267.5 331z M571 1892q6 8 19 21q29 23 119 65.5t129 71.5q66 63 157 141l21 13q18 2 120.5 -108.5t102.5 -125.5q0 -23 -22 -28q-205 -55 -320 -111q-59 -37 -170 -92l-16 -4q-18 0 -80 70.5t-60 86.5z" />
<glyph unicode="&#xca;" horiz-adv-x="1826" d="M57 1645l37 12q127 -55 541 -55h108q84 -2 142 -3q580 0 680 148l30 14l25 -24l121 -705l-19 -33l-34 15q-123 229 -236 311q-131 98 -371 98q-248 0 -260 -497h221q115 0 203 108q74 92 101 215l32 23l27 -31q-14 -227 -14 -407q0 -260 30 -345l-14 -36l-39 12 q-51 100 -133 168q-96 82 -193 82h-219q6 -215 60 -330q78 -166 262 -166q188 0 348 164q139 141 201 340l35 20l22 -34q-33 -197 -78 -760l-18 -25l-31 6q-125 119 -696 119q-403 0 -817 -49l-31 18l10 35q180 125 268 359q78 201 78 450q0 207 -102.5 413t-267.5 331z M451 1806l16 27q18 12 41 25q111 72 197 147q49 41 98 106q43 55 86 113l22 17l27 -13q14 -16 31 -37q80 -96 166 -172q47 -43 120 -86q104 -63 125 -75q6 -8 19 -23q2 -16 -113 -115l-29 -6q-186 70 -323 189l-309 -193l-31 -2l-127 74z" />
<glyph unicode="&#xcb;" horiz-adv-x="1826" d="M57 1645l37 12q127 -55 541 -55h108q84 -2 142 -3q580 0 680 148l30 14l25 -24l121 -705l-19 -33l-34 15q-123 229 -236 311q-131 98 -371 98q-248 0 -260 -497h221q115 0 203 108q74 92 101 215l32 23l27 -31q-14 -227 -14 -407q0 -260 30 -345l-14 -36l-39 12 q-51 100 -133 168q-96 82 -193 82h-219q6 -215 60 -330q78 -166 262 -166q188 0 348 164q139 141 201 340l35 20l22 -34q-33 -197 -78 -760l-18 -25l-31 6q-125 119 -696 119q-403 0 -817 -49l-31 18l10 35q180 125 268 359q78 201 78 450q0 207 -102.5 413t-267.5 331z M360 1919q0 80 76 131q68 47 152 47q86 0 151 -45q76 -53 76 -133q0 -82 -76 -133q-65 -47 -151 -47q-84 0 -152 47q-76 51 -76 133zM973 1948q0 78 69 129q63 45 146 45q80 0 143 -45q72 -51 72 -129t-72 -129q-63 -45 -143 -45q-82 0 -146 45q-70 51 -69 129z" />
<glyph unicode="&#xcc;" horiz-adv-x="1159" d="M55 1563v34l33 11q193 -63 444 -64q299 0 533 117l37 -10l-6 -39q-143 -109 -228 -320q-76 -190 -75 -387q0 -584 403 -842l12 -34l-30 -19q-324 37 -615 37q-330 0 -399 -57l-41 8l8 41q150 104 229 330q66 188 66 399t-41 338q-35 104 -125 215q-102 121 -205 242z M272 1970q0 14 103 125t119 109l22 -13q57 -55 158 -141q39 -29 128 -72t120 -65l16 -21q4 -16 -58.5 -86.5t-78.5 -70.5q-2 0 -17 4q-31 10 -86 43q-66 41 -84 49q-117 55 -319 111q-23 6 -23 28z" />
<glyph unicode="&#xcd;" horiz-adv-x="1159" d="M55 1563v34l33 11q193 -63 444 -64q299 0 533 117l37 -10l-6 -39q-143 -109 -228 -320q-76 -190 -75 -387q0 -584 403 -842l12 -34l-30 -19q-324 37 -615 37q-330 0 -399 -57l-41 8l8 41q150 104 229 330q66 188 66 399t-41 338q-35 104 -125 215q-102 121 -205 242z M272 1892q6 8 19 21q29 23 118 65.5t130 71.5q63 63 155 141l23 13q16 2 119.5 -108.5t103.5 -125.5q0 -23 -25 -28q-203 -55 -319 -111q-57 -37 -168 -92l-16 -4q-18 0 -81 70.5t-59 86.5z" />
<glyph unicode="&#xce;" horiz-adv-x="1159" d="M55 1563v34l33 11q193 -63 444 -64q299 0 533 117l37 -10l-6 -39q-143 -109 -228 -320q-76 -190 -75 -387q0 -584 403 -842l12 -34l-30 -19q-324 37 -615 37q-330 0 -399 -57l-41 8l8 41q150 104 229 330q66 188 66 399t-41 338q-35 104 -125 215q-102 121 -205 242z M96 1806l17 27q18 12 41 25q111 72 196 147q49 41 99 106q43 55 86 113l22 17l27 -13q14 -16 30 -37q80 -96 166 -172q47 -43 121 -86q104 -63 125 -75q6 -8 18 -23q4 -16 -112 -115l-29 -6q-186 70 -323 189l-310 -193l-30 -2l-127 74z" />
<glyph unicode="&#xcf;" horiz-adv-x="1159" d="M55 1563v34l33 11q193 -63 444 -64q299 0 533 117l37 -10l-6 -39q-143 -109 -228 -320q-76 -190 -75 -387q0 -584 403 -842l12 -34l-30 -19q-324 37 -615 37q-330 0 -399 -57l-41 8l8 41q150 104 229 330q66 188 66 399t-41 338q-35 104 -125 215q-102 121 -205 242z M61 1919q0 80 76 131q66 47 152 47q84 0 151 -45q74 -53 74 -133q0 -82 -70.5 -131t-154.5 -49q-86 0 -152 47q-76 51 -76 133zM672 1948q0 78 71 129q63 45 144 45q82 0 145 -45q72 -51 72 -129t-72 -129q-63 -45 -145 -45q-80 0 -144 45q-72 51 -71 129z" />
<glyph unicode="&#xd0;" horiz-adv-x="1822" d="M45 -29l10 39q207 137 291 284.5t103 405.5q-2 0 -103 -10q-82 -8 -127 -8t-61 8l-6 27l61 239l33 23l200 -29q-16 199 -108 375q-106 205 -268 279l-17 34l33 21q162 -31 324 -31q111 0 329.5 27.5t329.5 27.5q336 0 558 -226t222 -562q0 -397 -163 -627 q-186 -264 -566 -264q-86 0 -255 19.5t-257 19.5q-334 0 -526 -84zM825 932q195 8 287 41l33 -8l2 -35l-127 -228l-33 -14q-61 14 -158 19q14 -172 64 -308q76 -200 205 -200q193 0 256 223q35 121 35 383q0 217 -52 401q-78 276 -237 277q-166 0 -232 -209 q-37 -117 -43 -342z" />
<glyph unicode="&#xd1;" horiz-adv-x="1904" d="M37 39l12 35q195 111 283 389q66 211 65 489q0 197 -84 377q-98 203 -260 279l-16 37l37 18q111 -35 442 -35q260 0 524 17l29 -17q0 -20 -12.5 -59t-12.5 -60q0 -174 136 -430q111 -193 221 -387l8 318q12 596 -211 696l-16 35l32 20q186 -33 414 -32q217 0 381 22 l31 -18l-12 -35q-395 -258 -396 -916q0 -166 29 -333q41 -223 119 -312l2 -37l-33 -10q-102 35 -244 35q-186 0 -356 -45l-33 12l2 33q37 47 37 115q0 129 -227 522q-147 242 -297 485q-41 -291 -41 -434q0 -219 63 -418q84 -262 244 -329l16 -37l-36 -19q-150 53 -371 53 q-231 0 -434 -43zM449 1894q37 115 112 197q92 98 197 98q100 0 199.5 -64.5t185.5 -64.5q106 0 160 39q33 23 55 76q20 45 39 51q33 -12 33 -98q0 -318 -291 -318q-111 0 -221.5 67t-206.5 67q-90 0 -219 -84l-35 2z" />
<glyph unicode="&#xd2;" horiz-adv-x="1642" d="M57 862q0 358 239 598t597 240q324 0 528 -264q191 -242 191 -574q0 -360 -236 -610q-242 -252 -598 -252q-319 0 -530 279q-190 254 -191 583zM475 1970q0 14 102.5 125t120.5 109l23 -13q55 -55 156 -141q39 -29 129 -72t118 -65l19 -21q4 -16 -58.5 -86.5t-80.5 -70.5 l-17 4q-29 10 -84 43q-66 41 -86 49q-115 55 -317 111q-25 6 -25 28zM537 920q0 -731 297 -732q215 0 282 275q33 131 33 444q0 207 -62 381q-84 246 -253 246q-176 0 -250 -238q-47 -151 -47 -376z" />
<glyph unicode="&#xd3;" horiz-adv-x="1642" d="M57 862q0 358 239 598t597 240q324 0 528 -264q191 -242 191 -574q0 -360 -236 -610q-242 -252 -598 -252q-319 0 -530 279q-190 254 -191 583zM451 1892q6 8 16 21q29 23 119 65.5t129 71.5q66 63 157 141l23 13q16 2 118.5 -108.5t102.5 -125.5q0 -23 -22 -28 q-203 -55 -320 -111q-59 -37 -170 -92l-16 -4q-18 0 -80 70.5t-57 86.5zM537 920q0 -731 297 -732q215 0 282 275q33 131 33 444q0 207 -62 381q-84 246 -253 246q-176 0 -250 -238q-47 -151 -47 -376z" />
<glyph unicode="&#xd4;" horiz-adv-x="1642" d="M57 862q0 358 239 598t597 240q324 0 528 -264q191 -242 191 -574q0 -360 -236 -610q-242 -252 -598 -252q-319 0 -530 279q-190 254 -191 583zM356 1806l15 27q20 12 43 25q109 72 196 147q47 41 97 106q43 55 86 113l24 17l27 -13q12 -16 28 -37q82 -96 166 -172 q47 -43 123 -86q104 -63 123 -75q8 -8 19 -23q4 -16 -111 -115l-31 -6q-186 70 -323 189l-310 -193l-30 -2l-127 74zM537 920q0 -731 297 -732q215 0 282 275q33 131 33 444q0 207 -62 381q-84 246 -253 246q-176 0 -250 -238q-47 -151 -47 -376z" />
<glyph unicode="&#xd5;" horiz-adv-x="1642" d="M57 862q0 358 239 598t597 240q324 0 528 -264q191 -242 191 -574q0 -360 -236 -610q-242 -252 -598 -252q-319 0 -530 279q-190 254 -191 583zM326 1894q37 115 112 197q92 98 197 98q100 0 200.5 -64.5t184.5 -64.5q106 0 162 39q33 23 53 76q20 45 39 51 q35 -12 35 -98q0 -318 -293 -318q-109 0 -220.5 67t-207.5 67q-90 0 -219 -84l-33 2zM537 920q0 -731 297 -732q215 0 282 275q33 131 33 444q0 207 -62 381q-84 246 -253 246q-176 0 -250 -238q-47 -151 -47 -376z" />
<glyph unicode="&#xd6;" horiz-adv-x="1642" d="M57 862q0 358 239 598t597 240q324 0 528 -264q191 -242 191 -574q0 -360 -236 -610q-242 -252 -598 -252q-319 0 -530 279q-190 254 -191 583zM293 1919q0 80 76 131q68 47 151 47q84 0 152 -45q74 -53 73 -133q0 -82 -70.5 -131t-154.5 -49q-86 0 -151 47 q-76 51 -76 133zM537 920q0 -731 297 -732q215 0 282 275q33 131 33 444q0 207 -62 381q-84 246 -253 246q-176 0 -250 -238q-47 -151 -47 -376zM903 1948q0 78 72 129q63 45 143 45q82 0 146 -45q72 -51 71 -129q0 -78 -71 -129q-64 -45 -146 -45q-80 0 -143 45 q-72 51 -72 129z" />
<glyph unicode="&#xd8;" horiz-adv-x="1622" d="M39 813q0 348 234.5 594t580.5 246q162 0 299 -64q33 117 90 269l17 20q29 0 165 -77t138 -97q-92 -113 -209 -258q240 -244 239 -633q0 -350 -233 -602q-240 -258 -586 -258q-147 0 -285 63q-29 -68 -59 -137q-51 -111 -80 -100q-66 27 -129 51q-102 43 -108 59 q-4 16 84 127q53 66 106 131q-264 254 -264 666zM518 872q0 -205 29 -368q117 219 235 436q174 322 240 403q-86 142 -207 142q-176 0 -250 -238q-47 -152 -47 -375zM633 248q69 -107 182 -107q215 0 283 273q31 133 30 444q0 119 -16 219q-117 -215 -235 -430 q-170 -305 -244 -399z" />
<glyph unicode="&#xd9;" horiz-adv-x="1822" d="M-63 1661l81 8q150 -115 426 -115q139 0 285 37l57 -16l15 -57q-129 -406 -129 -744q0 -395 250 -395q195 0 194 555q0 188 -51 371q-66 236 -193 305l-24 78l76 28q293 -119 532 -119q168 0 236 76l82 2q12 -25 12 -51q0 -25 -12 -33h2q-113 -117 -177 -334 q-55 -188 -55 -372q0 -568 291 -750l23 -69l-64 -37q-92 10 -203 10q-281 0 -352 -80l-63 -16l-39 53l-7 166q-199 -223 -444 -223q-217 0 -344 147q-117 139 -117 360q0 98 8.5 255t8.5 221q0 193 -56 327q-68 166 -245 330zM653 1970q0 14 102.5 125t118.5 109l23 -13 q57 -55 158 -141q39 -29 128 -72t120 -65l16 -21q4 -16 -57.5 -86.5t-79.5 -70.5q-2 0 -17 4q-31 10 -86 43q-66 41 -84 49q-117 55 -319 111q-23 6 -23 28z" />
<glyph unicode="&#xda;" horiz-adv-x="1822" d="M-63 1661l81 8q150 -115 426 -115q139 0 285 37l57 -16l15 -57q-129 -406 -129 -744q0 -395 250 -395q195 0 194 555q0 188 -51 371q-66 236 -193 305l-24 78l76 28q293 -119 532 -119q168 0 236 76l82 2q12 -25 12 -51q0 -25 -12 -33h2q-113 -117 -177 -334 q-55 -188 -55 -372q0 -568 291 -750l23 -69l-64 -37q-92 10 -203 10q-281 0 -352 -80l-63 -16l-39 53l-7 166q-199 -223 -444 -223q-217 0 -344 147q-117 139 -117 360q0 98 8.5 255t8.5 221q0 193 -56 327q-68 166 -245 330zM668 1892q6 8 16 21q31 23 120 65.5t128 71.5 q66 63 158 141l22 13q16 2 118.5 -108.5t102.5 -125.5q0 -23 -22 -28q-203 -55 -320 -111q-57 -37 -170 -92q-14 -4 -16 -4q-16 0 -78.5 70.5t-58.5 86.5z" />
<glyph unicode="&#xdb;" horiz-adv-x="1822" d="M-63 1661l81 8q150 -115 426 -115q139 0 285 37l57 -16l15 -57q-129 -406 -129 -744q0 -395 250 -395q195 0 194 555q0 188 -51 371q-66 236 -193 305l-24 78l76 28q293 -119 532 -119q168 0 236 76l82 2q12 -25 12 -51q0 -25 -12 -33h2q-113 -117 -177 -334 q-55 -188 -55 -372q0 -568 291 -750l23 -69l-64 -37q-92 10 -203 10q-281 0 -352 -80l-63 -16l-39 53l-7 166q-199 -223 -444 -223q-217 0 -344 147q-117 139 -117 360q0 98 8.5 255t8.5 221q0 193 -56 327q-68 166 -245 330zM547 1806l14 27q20 12 43 25q109 72 197 147 q47 41 96 106q43 55 86 113l25 17l26 -13q12 -16 29 -37q82 -96 166 -172q47 -43 123 -86q104 -63 125 -75q6 -8 18 -23q2 -16 -113 -115l-30 -6q-186 70 -324 189l-309 -193l-31 -2l-127 74z" />
<glyph unicode="&#xdc;" horiz-adv-x="1822" d="M-63 1661l81 8q150 -115 426 -115q139 0 285 37l57 -16l15 -57q-129 -406 -129 -744q0 -395 250 -395q195 0 194 555q0 188 -51 371q-66 236 -193 305l-24 78l76 28q293 -119 532 -119q168 0 236 76l82 2q12 -25 12 -51q0 -25 -12 -33h2q-113 -117 -177 -334 q-55 -188 -55 -372q0 -568 291 -750l23 -69l-64 -37q-92 10 -203 10q-281 0 -352 -80l-63 -16l-39 53l-7 166q-199 -223 -444 -223q-217 0 -344 147q-117 139 -117 360q0 98 8.5 255t8.5 221q0 193 -56 327q-68 166 -245 330zM498 1919q0 80 75 131q66 47 152 47 q84 0 152 -45q74 -53 73 -133q0 -82 -70.5 -131t-154.5 -49q-86 0 -152 47q-76 51 -75 133zM1108 1948q0 78 72 129q63 45 143 45q82 0 145 -45q70 -51 70 -129t-66.5 -126t-148.5 -48t-143 45q-72 51 -72 129z" />
<glyph unicode="&#xdd;" horiz-adv-x="1757" d="M-182 1608l30 26h2q129 0 391.5 -28.5t395.5 -28.5q166 0 262 18l33 -20l-19 -37q-63 -25 -106 -82t-43 -123q0 -137 209 -424q164 236 174 254q86 150 86 289q0 109 -57 184v37l36 6q106 -55 310 -55q180 0 383 57l34 -18l-16 -37q-285 -117 -542 -507t-257 -697 q0 -270 324 -445l12 -36l-35 -19q-272 68 -563 68q-231 0 -389 -58l-37 19l17 37q121 51 196 190q70 127 70 266q0 152 -156 426q-152 266 -350 469q-217 223 -371 238zM750 1892q6 8 16 21q31 23 120 65.5t128 71.5q66 63 157 141l23 13q16 2 118.5 -108.5t102.5 -125.5 q0 -23 -22 -28q-203 -55 -320 -111q-57 -37 -170 -92q-14 -4 -16 -4q-16 0 -79 70.5t-58 86.5z" />
<glyph unicode="&#xde;" horiz-adv-x="1628" d="M27 -25l14 37q193 80 303 363q90 231 90 473q0 229 -86 432q-100 231 -280 334l-13 37l35 18q209 -49 477 -49q147 0 412 41l31 -19l-9 -32q-168 -138 -223 -328q152 63 328 64q244 0 403 -117q176 -129 177 -367q0 -250 -170 -383q-154 -123 -410 -123q-199 0 -297 39 q90 -197 453 -383l12 -37l-35 -18q-317 94 -666 94q-285 0 -510 -92zM809 852q0 -152 43 -225q53 -103 190 -103q111 0 168 115q45 90 45 213t-49 205q-59 100 -174 100q-223 0 -223 -305z" />
<glyph unicode="&#xdf;" horiz-adv-x="1708" d="M63 18q147 170 193 261q63 127 63 315q0 74 -8 164l-98 -2l-27 16l-84 164v29q8 14 181 18q-10 66 -11 125q0 266 177.5 422t463.5 156q254 0 457 -107q250 -131 250 -362q0 -98 -41 -185q-45 -92 -125 -137q137 -53 212 -169t75 -267q0 -188 -147.5 -318.5 t-338.5 -130.5q-164 0 -284 68q-150 82 -150 233q0 184 180 185q113 0 170 -93q51 -80 48 -198v-41q61 4 90 123q16 76 16 166q0 127 -49 206q-59 98 -180 99q-68 0 -123 -29l-25 31q0 61 2 125q4 102 19 110l28 2q135 10 170 47t35 181q0 283 -282 282q-152 0 -175 -368 q-2 -238 -4 -475l-2 -207q-4 -317 17 -416l-8 -25l-25 -6q-51 0 -157.5 13.5t-159.5 13.5q-246 0 -297 -55l-39 -2z" />
<glyph unicode="&#xe0;" horiz-adv-x="1318" d="M109 274q0 180 176 261q162 53 325 106q174 72 174 231q0 49 -37.5 76t-89.5 27l-41 -4q8 -154 -65 -250q-80 -102 -229 -103q-94 0 -146.5 55.5t-52.5 151.5q0 158 209 250q164 72 342 72q219 0 375 -96q184 -115 184 -320q0 -72 -12.5 -215t-12.5 -215q0 -166 201 -281 l12 -32l-28 -23h-373q-33 0 -102 72q-63 66 -80 102q-166 -178 -400 -178q-139 0 -234 87t-95 226zM315 1493q0 14 103 124.5t121 108.5l20 -12q57 -55 158 -141q39 -29 129 -72t119 -65l18 -21q2 -16 -59.5 -87t-79.5 -71l-17 5q-29 10 -84 45q-66 39 -86 47 q-115 55 -317 110q-25 6 -25 29zM541 322q0 -78 82 -78q203 0 196 301v33q-86 -53 -172 -107q-106 -70 -106 -149z" />
<glyph unicode="&#xe1;" horiz-adv-x="1318" d="M109 274q0 180 176 261q162 53 325 106q174 72 174 231q0 49 -37.5 76t-89.5 27l-41 -4q8 -154 -65 -250q-80 -102 -229 -103q-94 0 -146.5 55.5t-52.5 151.5q0 158 209 250q164 72 342 72q219 0 375 -96q184 -115 184 -320q0 -72 -12.5 -215t-12.5 -215q0 -166 201 -281 l12 -32l-28 -23h-373q-33 0 -102 72q-63 66 -80 102q-166 -178 -400 -178q-139 0 -234 87t-95 226zM324 1415q6 8 18 21q29 23 118 65.5t130 71.5q63 63 155 141l23 12q16 2 119.5 -108.5t103.5 -124.5q0 -23 -24 -29q-203 -55 -320 -110q-57 -37 -168 -92q-16 -4 -16 -5 q-18 0 -81 71t-58 87zM541 322q0 -78 82 -78q203 0 196 301v33q-86 -53 -172 -107q-106 -70 -106 -149z" />
<glyph unicode="&#xe2;" horiz-adv-x="1318" d="M109 274q0 180 176 261q162 53 325 106q174 72 174 231q0 49 -37.5 76t-89.5 27l-41 -4q8 -154 -65 -250q-80 -102 -229 -103q-94 0 -146.5 55.5t-52.5 151.5q0 158 209 250q164 72 342 72q219 0 375 -96q184 -115 184 -320q0 -72 -12.5 -215t-12.5 -215q0 -166 201 -281 l12 -32l-28 -23h-373q-33 0 -102 72q-63 66 -80 102q-166 -178 -400 -178q-139 0 -234 87t-95 226zM197 1329l14 27q20 12 43 26q109 70 195 146q49 43 98 106q43 57 86 113l24 16l25 -10q14 -18 31 -39q82 -96 166 -172q47 -43 120 -86q106 -61 125 -76q8 -8 19 -22 q4 -16 -113 -115l-29 -6q-186 70 -323 188l-309 -192h-31l-127 72zM541 322q0 -78 82 -78q203 0 196 301v33q-86 -53 -172 -107q-106 -70 -106 -149z" />
<glyph unicode="&#xe3;" horiz-adv-x="1318" d="M109 274q0 180 176 261q162 53 325 106q174 72 174 231q0 49 -37.5 76t-89.5 27l-41 -4q8 -154 -65 -250q-80 -102 -229 -103q-94 0 -146.5 55.5t-52.5 151.5q0 158 209 250q164 72 342 72q219 0 375 -96q184 -115 184 -320q0 -72 -12.5 -215t-12.5 -215q0 -166 201 -281 l12 -32l-28 -23h-373q-33 0 -102 72q-63 66 -80 102q-166 -178 -400 -178q-139 0 -234 87t-95 226zM172 1350q37 115 115 196q90 98 196 99q98 0 198.5 -64.5t184.5 -64.5q109 0 162 38q33 23 55 76q18 45 37 51q35 -12 35 -98q0 -317 -293 -317q-109 0 -219.5 66.5 t-206.5 66.5q-90 0 -221 -84l-33 2zM541 322q0 -78 82 -78q203 0 196 301v33q-86 -53 -172 -107q-106 -70 -106 -149z" />
<glyph unicode="&#xe4;" horiz-adv-x="1318" d="M109 274q0 180 176 261q162 53 325 106q174 72 174 231q0 49 -37.5 76t-89.5 27l-41 -4q8 -154 -65 -250q-80 -102 -229 -103q-94 0 -146.5 55.5t-52.5 151.5q0 158 209 250q164 72 342 72q219 0 375 -96q184 -115 184 -320q0 -72 -12.5 -215t-12.5 -215q0 -166 201 -281 l12 -32l-28 -23h-373q-33 0 -102 72q-63 66 -80 102q-166 -178 -400 -178q-139 0 -234 87t-95 226zM147 1442q0 80 74 133q68 45 152 45q86 0 151 -45q76 -51 76 -133t-76 -133q-65 -47 -151 -47q-84 0 -152 47q-74 51 -74 133zM541 322q0 -78 82 -78q203 0 196 301v33 q-86 -53 -172 -107q-106 -70 -106 -149zM758 1470q0 78 69 129q63 45 146 46q82 0 148.5 -47.5t66.5 -127.5q0 -78 -66.5 -125t-148.5 -47t-146 45q-70 49 -69 127z" />
<glyph unicode="&#xe5;" horiz-adv-x="1318" d="M109 274q0 180 176 261q162 53 325 106q174 72 174 231q0 49 -37.5 76t-89.5 27l-41 -4q8 -154 -65 -250q-80 -102 -229 -103q-94 0 -146.5 55.5t-52.5 151.5q0 158 209 250q164 72 342 72q219 0 375 -96q184 -115 184 -320q0 -72 -12.5 -215t-12.5 -215q0 -166 201 -281 l12 -32l-28 -23h-373q-33 0 -102 72q-63 66 -80 102q-166 -178 -400 -178q-139 0 -234 87t-95 226zM373 1462q0 109 100 176q88 61 201 62q111 0 198 -62q100 -68 101 -176q0 -106 -101 -176q-87 -59 -198 -59q-113 0 -201 59q-100 70 -100 176zM541 322q0 -78 82 -78 q203 0 196 301v33q-86 -53 -172 -107q-106 -70 -106 -149zM551 1462q0 -39 43 -63q37 -20 80 -21q41 0 81 22.5t40 61.5q0 41 -40 63.5t-81 22.5q-43 0 -80 -20q-43 -25 -43 -66z" />
<glyph unicode="&#xe6;" horiz-adv-x="1892" d="M82 324q0 182 176 262q162 53 326 106q174 72 174 238q0 94 -137 94l-31 -2q8 -156 -66 -250q-80 -102 -229 -102q-94 0 -146.5 55t-52.5 149q0 158 209 250q164 74 342 74q252 0 385 -115q141 106 342 107q229 0 392 -166t163 -395q0 -184 -370 -185q-86 0 -220.5 10.5 t-158.5 10.5q68 -215 325 -215q193 0 357 147l32 4l15 -30q-35 -174 -205 -271q-147 -84 -338 -84q-365 0 -496 222q-168 -225 -436 -226q-145 0 -246 82q-106 88 -106 230zM514 371q0 -76 82 -76q207 0 197 317v17q-86 -53 -172 -107q-106 -70 -107 -151zM1161 645 q51 0 152.5 -2t152.5 -2q61 0 62 72q0 111 -37 190q-49 105 -145 105q-170 0 -185 -363z" />
<glyph unicode="&#xe7;" horiz-adv-x="1167" d="M76 487q0 256 171 443.5t423 187.5q217 0 362 -125q156 -131 156 -344q0 -125 -215 -125q-143 0 -215 138q-55 106 -58 266q-213 -47 -213 -383q0 -129 76 -238q86 -121 211 -121q156 0 371 176l35 3l10 -35q-113 -295 -424 -353q-37 -43 -84 -155.5t-54 -117.5t-22 -5 q-12 0 -45 4t-53 4q-49 0 -84 -16l-35 6l-2 35q74 121 113 250q-182 43 -303 182t-121 323z" />
<glyph unicode="&#xe8;" horiz-adv-x="1241" d="M82 551q0 254 185.5 432t439.5 178q229 0 392 -166t163 -395q0 -72 -47.5 -117t-118.5 -45h-584q68 -215 328 -215q190 0 354 146l33 4l14 -31q-35 -174 -205 -270q-147 -84 -338 -84q-283 0 -444 139q-172 147 -172 424zM367 1493q0 14 102.5 124.5t120.5 108.5l20 -12 q57 -55 158 -141q39 -29 129 -72t119 -65l18 -21q2 -16 -59.5 -87t-79.5 -71l-16 5q-29 10 -84 45q-66 39 -86 47q-115 55 -320 110q-23 6 -22 29zM492 616q51 0 153.5 -2t153.5 -2q61 0 61 72q0 113 -37 190q-49 105 -145 105q-102 0 -152 -137q-33 -92 -34 -226z" />
<glyph unicode="&#xe9;" horiz-adv-x="1241" d="M82 551q0 254 185 432t440 178q229 0 392 -166t163 -395q0 -72 -48 -117q-47 -45 -118 -45h-584q68 -215 328 -215q190 0 354 146l33 4l14 -31q-35 -174 -205 -270q-147 -84 -338 -84q-283 0 -444 139q-172 147 -172 424zM492 616q51 0 153 -2t154 -2q61 0 61 72 q0 113 -37 190q-49 105 -145 105q-102 0 -152 -137q-33 -92 -34 -226z" />
<glyph unicode="&#xea;" horiz-adv-x="1241" d="M82 551q0 254 185.5 432t439.5 178q229 0 392 -166t163 -395q0 -72 -47.5 -117t-118.5 -45h-584q68 -215 328 -215q190 0 354 146l33 4l14 -31q-35 -174 -205 -270q-147 -84 -338 -84q-283 0 -444 139q-172 147 -172 424zM193 1329l14 27q20 12 43 26q111 70 196 146 q47 43 97 106q43 57 86 113l24 16l27 -10q14 -18 29 -39q82 -96 165 -172q47 -43 123 -86q104 -61 125 -76q6 -8 19 -22q2 -16 -113 -115l-31 -6q-186 70 -323 188l-309 -192h-29l-129 72zM492 616q51 0 153.5 -2t153.5 -2q61 0 61 72q0 113 -37 190q-49 105 -145 105 q-102 0 -152 -137q-33 -92 -34 -226z" />
<glyph unicode="&#xeb;" horiz-adv-x="1241" d="M82 551q0 254 185.5 432t439.5 178q229 0 392 -166t163 -395q0 -72 -47.5 -117t-118.5 -45h-584q68 -215 328 -215q190 0 354 146l33 4l14 -31q-35 -174 -205 -270q-147 -84 -338 -84q-283 0 -444 139q-172 147 -172 424zM158 1442q0 80 73 133q68 45 152 45 q86 0 152 -45q76 -51 75 -133q0 -82 -75 -133q-66 -47 -152 -47q-84 0 -152 47q-74 51 -73 133zM492 616q51 0 153.5 -2t153.5 -2q61 0 61 72q0 113 -37 190q-49 105 -145 105q-102 0 -152 -137q-33 -92 -34 -226zM768 1470q0 78 70 129q63 45 145 46q82 0 148.5 -47.5 t66.5 -127.5q0 -78 -66.5 -125t-148.5 -47t-145 45q-70 49 -70 127z" />
<glyph unicode="&#xec;" horiz-adv-x="890" d="M8 1124l39 13q113 -59 406 -60q51 0 156.5 9.5t156.5 9.5l27 -13l2 -28q0 -23 -47.5 -207t-47.5 -289q0 -372 258 -524l15 -35l-31 -20q-297 33 -551 32q-186 0 -276 -24l-35 18l16 37q121 57 189 217q57 135 57 285q0 172 -86 319.5t-236 220.5zM121 1493 q0 14 103.5 124.5t119.5 108.5l23 -12q55 -55 155 -141q41 -29 130 -72t118 -65l18 -21q4 -16 -58 -87t-81 -71l-16 5q-29 10 -84 45q-66 39 -86 47q-115 55 -318 110q-25 6 -24 29z" />
<glyph unicode="&#xed;" horiz-adv-x="890" d="M8 1124l39 13q113 -59 406 -60q51 0 156.5 9.5t156.5 9.5l27 -13l2 -28q0 -23 -47.5 -207t-47.5 -289q0 -372 258 -524l15 -35l-31 -20q-297 33 -551 32q-186 0 -276 -24l-35 18l16 37q121 57 189 217q57 135 57 285q0 172 -86 319.5t-236 220.5zM154 1415q6 8 16 21 q31 23 120 65.5t128 71.5q66 63 157 141l23 12q16 2 118.5 -108.5t102.5 -124.5q0 -23 -22 -29q-203 -55 -320 -110q-57 -37 -170 -92q-14 -4 -16 -5q-16 0 -78.5 71t-58.5 87z" />
<glyph unicode="&#xee;" horiz-adv-x="890" d="M-2 1329l14 27q20 12 43 26q111 70 197 146q47 43 98 106q43 57 86 113l23 16l26 -10q14 -18 31 -39q80 -96 166 -172q45 -43 121 -86q104 -61 125 -76q6 -8 18 -22q2 -16 -112 -115l-29 -6q-186 70 -326 188l-309 -192h-29l-129 72zM8 1124l39 13q113 -59 406 -60 q51 0 156.5 9.5t156.5 9.5l27 -13l2 -28q0 -23 -47.5 -207t-47.5 -289q0 -372 258 -524l15 -35l-31 -20q-297 33 -551 32q-186 0 -276 -24l-35 18l16 37q121 57 189 217q57 135 57 285q0 172 -86 319.5t-236 220.5z" />
<glyph unicode="&#xef;" horiz-adv-x="890" d="M-72 1442q0 80 76 133q68 45 152 45t151 -45q76 -51 76 -133t-76 -133q-67 -47 -151 -47q-86 0 -152 47q-76 51 -76 133zM8 1124l39 13q113 -59 406 -60q51 0 156.5 9.5t156.5 9.5l27 -13l2 -28q0 -23 -47.5 -207t-47.5 -289q0 -372 258 -524l15 -35l-31 -20 q-297 33 -551 32q-186 0 -276 -24l-35 18l16 37q121 57 189 217q57 135 57 285q0 172 -86 319.5t-236 220.5zM539 1470q0 78 71 129q63 45 146 46q80 0 143 -46q72 -49 72 -129q0 -78 -72 -127q-63 -45 -143 -45q-82 0 -146 45q-72 49 -71 127z" />
<glyph unicode="&#xf0;" horiz-adv-x="1259" d="M55 1257q23 20 103 43q55 16 112 33q-2 90 49 180q57 100 140 119l30 -10l3 -31q-25 -53 -25 -116q0 -33 10 -62q102 59 215 119q16 -4 50 -69.5t28 -82.5q-18 -18 -88 -43l-98 -32q713 -305 723 -707q16 -602 -578 -602q-618 0 -618 549q0 164 155 301q139 125 314 155 q-127 51 -154 66q-78 45 -117 115q-66 -41 -153 -82q-16 4 -61.5 72.5t-39.5 84.5zM522 571q0 -385 199 -385q94 0 143 144q35 104 35 221t-33 199q-47 113 -145 112q-106 0 -158 -98q-41 -78 -41 -193z" />
<glyph unicode="&#xf1;" horiz-adv-x="1484" d="M-76 1186l35 18q180 -45 406 -45l131 8q100 6 112 0q8 -25 8 -24q0 -25 -2 -113q-2 -70 0 -115q219 231 435 232q154 0 239 -72q94 -80 94 -231q0 -701 236 -805l16 -39l-39 -16q-86 33 -264 32q-209 0 -436 -34l-31 18l10 35q82 55 134 248q41 156 41 286 q0 293 -166 293q-211 0 -211 -313q0 -78 41 -226.5t41 -216.5l-6 -24q-18 -10 -275 -25q-268 -16 -356 -47l-37 17l14 39q100 51 152 227q39 133 39 276q0 408 -346 580zM254 1350q37 115 113 196q92 98 196 99q100 0 200.5 -64.5t184.5 -64.5q106 0 162 38q33 23 53 76 q20 45 39 51q35 -12 35 -98q0 -317 -293 -317q-109 0 -220.5 66.5t-207.5 66.5q-90 0 -219 -84l-33 2z" />
<glyph unicode="&#xf2;" horiz-adv-x="1243" d="M76 588q0 244 192 411q184 158 432 158q270 0 443 -147q182 -156 182 -422q0 -244 -192 -410q-185 -160 -433 -160q-260 0 -438 154q-186 160 -186 416zM393 1493q0 14 103.5 124.5t119.5 108.5l23 -12q55 -55 158 -141q39 -29 128 -72t117 -65l19 -21q4 -16 -58.5 -87 t-80.5 -71l-15 5q-31 10 -86 45q-66 39 -84 47q-117 55 -319 110q-25 6 -25 29zM504 588q0 -133 37 -244q51 -156 159 -156q106 0 160 158q37 109 37 242q0 135 -37 243q-51 156 -160 156t-159 -156q-37 -108 -37 -243z" />
<glyph unicode="&#xf3;" horiz-adv-x="1243" d="M76 588q0 244 192 411q184 158 432 158q270 0 443 -147q182 -156 182 -422q0 -244 -192 -410q-185 -160 -433 -160q-260 0 -438 154q-186 160 -186 416zM354 1415q6 8 17 21q31 23 120 65.5t127 71.5q66 63 158 141l23 12q16 2 119.5 -108.5t103.5 -124.5q0 -23 -25 -29 q-203 -55 -319 -110q-57 -37 -170 -92q-14 -4 -16 -5q-16 0 -79 71t-59 87zM504 588q0 -133 37 -244q51 -156 159 -156q106 0 160 158q37 109 37 242q0 135 -37 243q-51 156 -160 156t-159 -156q-37 -108 -37 -243z" />
<glyph unicode="&#xf4;" horiz-adv-x="1243" d="M76 588q0 244 192 411q184 158 432 158q270 0 443 -147q182 -156 182 -422q0 -244 -192 -410q-185 -160 -433 -160q-260 0 -438 154q-186 160 -186 416zM219 1329l17 27q18 12 40 26q111 70 197 146q49 43 98 106q43 57 86 113l23 16l27 -10q14 -18 30 -39 q80 -96 166 -172q47 -43 121 -86q104 -61 125 -76q6 -8 18 -22q2 -16 -112 -115l-29 -6q-186 70 -326 188l-307 -192h-31l-126 72zM504 588q0 -133 37 -244q51 -156 159 -156q106 0 160 158q37 109 37 242q0 135 -37 243q-51 156 -160 156t-159 -156q-37 -108 -37 -243z" />
<glyph unicode="&#xf5;" horiz-adv-x="1243" d="M76 588q0 244 192 411q184 158 432 158q270 0 443 -147q182 -156 182 -422q0 -244 -192 -410q-185 -160 -433 -160q-260 0 -438 154q-186 160 -186 416zM176 1350q37 115 113 196q92 98 196 99q100 0 199.5 -64.5t185.5 -64.5q106 0 160 38q33 23 55 76q20 45 39 51 q33 -12 33 -98q0 -317 -291 -317q-111 0 -221 66.5t-207 66.5q-90 0 -219 -84l-35 2zM504 588q0 -133 37 -244q51 -156 159 -156q106 0 160 158q37 109 37 242q0 135 -37 243q-51 156 -160 156t-159 -156q-37 -108 -37 -243z" />
<glyph unicode="&#xf6;" horiz-adv-x="1243" d="M76 588q0 244 192 411q184 158 432 158q270 0 443 -147q182 -156 182 -422q0 -244 -192 -410q-185 -160 -433 -160q-260 0 -438 154q-186 160 -186 416zM170 1442q0 80 76 133q68 45 151 45q84 0 152 -45q76 -51 76 -133t-76 -133q-68 -47 -152 -47q-86 0 -151 47 q-76 51 -76 133zM504 588q0 -133 37 -244q51 -156 159 -156q106 0 160 158q37 109 37 242q0 135 -37 243q-51 156 -160 156t-159 -156q-37 -108 -37 -243zM780 1470q0 78 72 129q63 45 145 46q80 0 144 -46q72 -49 71 -129q0 -78 -71 -127q-64 -45 -144 -45q-82 0 -145 45 q-72 49 -72 127z" />
<glyph unicode="&#xf8;" horiz-adv-x="1220" d="M0 588q0 244 193 411q184 158 432 158q129 0 243 -37q20 29 74 142q47 98 78 127q18 6 131 -70t113 -96q-92 -82 -211 -199q197 -168 196 -436q0 -244 -192 -410q-184 -160 -432 -160q-123 0 -236 39q-55 -98 -49 -178l2 -29l-12 -28l-31 -2l-248 137l-14 27l14 24 q74 41 166 139q-217 164 -217 441zM428 588q0 -133 37 -244q51 -156 160 -156q106 0 159 158q37 109 37 242q0 135 -37 243q-51 158 -159 158q-109 0 -160 -158q-37 -108 -37 -243z" />
<glyph unicode="&#xf9;" horiz-adv-x="1476" d="M-84 1159l37 15q174 -59 459 -60q-16 0 137 6q106 6 121 -4l6 -26q0 -74 -38 -236t-38 -244q0 -287 164 -286q102 0 154 161q35 111 34 242q0 106 -56 224t-138 182l-8 36l34 15q182 -55 402 -56q106 0 200 17l29 -10l2 -31q-94 -213 -94 -496q0 -172 63 -311 q75 -155 216 -231l14 -35l-31 -21h-600l-24 6q-10 25 -11 25l13 170q-143 -180 -355 -180q-162 0 -262 91t-100 251q0 307 -39 426q-61 193 -279 321zM442 1493q0 14 103 124.5t119 108.5l22 -12q57 -55 158 -141q39 -29 128 -72t120 -65l16 -21q4 -16 -58.5 -87t-78.5 -71 q-2 0 -17 5q-31 10 -86 45q-66 39 -84 47q-117 55 -319 110q-23 6 -23 29z" />
<glyph unicode="&#xfa;" horiz-adv-x="1476" d="M-84 1159l37 15q174 -59 459 -60q-16 0 137 6q106 6 121 -4l6 -26q0 -74 -38 -236t-38 -244q0 -287 164 -286q102 0 154 161q35 111 34 242q0 106 -56 224t-138 182l-8 36l34 15q182 -55 402 -56q106 0 200 17l29 -10l2 -31q-94 -213 -94 -496q0 -172 63 -311 q75 -155 216 -231l14 -35l-31 -21h-600l-24 6q-10 25 -11 25l13 170q-143 -180 -355 -180q-162 0 -262 91t-100 251q0 307 -39 426q-61 193 -279 321zM481 1415q4 8 17 21q29 23 119 65.5t128 71.5q66 63 158 141l21 12q18 2 120.5 -108.5t102.5 -124.5q0 -23 -23 -29 q-205 -55 -319 -110q-59 -37 -170 -92q-16 -4 -17 -5q-18 0 -79.5 71t-57.5 87z" />
<glyph unicode="&#xfb;" horiz-adv-x="1476" d="M-84 1159l37 15q174 -59 459 -60q-16 0 137 6q106 6 121 -4l6 -26q0 -74 -38 -236t-38 -244q0 -287 164 -286q102 0 154 161q35 111 34 242q0 106 -56 224t-138 182l-8 36l34 15q182 -55 402 -56q106 0 200 17l29 -10l2 -31q-94 -213 -94 -496q0 -172 63 -311 q75 -155 216 -231l14 -35l-31 -21h-600l-24 6q-10 25 -11 25l13 170q-143 -180 -355 -180q-162 0 -262 91t-100 251q0 307 -39 426q-61 193 -279 321zM285 1329l14 27q20 12 43 26q109 70 195 146q49 43 98 106q43 57 86 113l24 16l25 -10q14 -18 31 -39q82 -96 166 -172 q47 -43 120 -86q106 -61 125 -76q8 -8 19 -22q4 -16 -113 -115l-28 -6q-186 70 -324 188l-309 -192h-31l-127 72z" />
<glyph unicode="&#xfc;" horiz-adv-x="1476" d="M-84 1159l37 15q174 -59 459 -60q-16 0 137 6q106 6 121 -4l6 -26q0 -74 -38 -236t-38 -244q0 -287 164 -286q102 0 154 161q35 111 34 242q0 106 -56 224t-138 182l-8 36l34 15q182 -55 402 -56q106 0 200 17l29 -10l2 -31q-94 -213 -94 -496q0 -172 63 -311 q75 -155 216 -231l14 -35l-31 -21h-600l-24 6q-10 25 -11 25l13 170q-143 -180 -355 -180q-162 0 -262 91t-100 251q0 307 -39 426q-61 193 -279 321zM215 1442q0 80 74 133q68 45 151 45q86 0 152 -45q76 -51 76 -133t-76 -133q-66 -47 -152 -47q-84 0 -151 47 q-74 51 -74 133zM825 1470q0 78 70 129q63 45 145 46q82 0 148.5 -47.5t66.5 -127.5q0 -78 -66.5 -125t-148.5 -47t-145 45q-70 49 -70 127z" />
<glyph unicode="&#xfd;" horiz-adv-x="1460" d="M-51 1114l37 16q207 -63 426 -63q37 0 108.5 12.5t104.5 12.5l26 -7q10 -27 11 -26q0 -70 -19.5 -216.5t-19.5 -219.5q0 -160 6 -207q25 -145 110 -146q127 0 174 117q31 76 31 225q0 207 -29 293q-39 115 -174 223l-8 37l31 17q274 -49 487 -43l123 4l27 -15v-30 q0 -68 -29 -250t-29 -277q0 -102 13.5 -308t13.5 -308q0 -311 -184 -436q-152 -102 -475 -103q-203 0 -355 80q-184 100 -184 285q0 176 186 176q127 0 232 -123q96 -115 108 -246q43 -14 76 -14q207 0 207 375q0 80 -10 178q-203 -152 -359 -152q-168 0 -278 134 q-104 127 -105 297v270q-10 135 -61 221q-61 104 -207 180zM504 1415q6 8 18 21q29 23 119 65.5t129 71.5q63 63 156 141l22 12q16 2 119.5 -108.5t103.5 -124.5q0 -23 -24 -29q-203 -55 -318 -110q-59 -37 -170 -92q-16 -4 -16 -5q-18 0 -80.5 71t-58.5 87z" />
<glyph unicode="&#xfe;" horiz-adv-x="1314" d="M-260 1577l31 20q344 -49 583 -49q145 0 193 25l28 -2l15 -25l-8 -506q113 103 256 103q270 0 411.5 -151.5t141.5 -424.5q0 -244 -165 -405.5t-409 -161.5q-119 0 -211 59q39 -537 117 -606l-4 2l16 -35l-33 -20q-274 51 -542 51q-178 0 -297 -31l22 35l-30 25 q231 18 342 481q72 303 71 629q0 426 -88 596q-94 182 -428 356zM602 563q0 -123 35 -231q47 -156 143 -156q100 0 156 139q43 106 43 226q0 408 -199 407q-96 0 -143 -155q-35 -109 -35 -230z" />
<glyph unicode="&#xff;" horiz-adv-x="1460" d="M-51 1114l37 16q207 -63 426 -63q37 0 108.5 12.5t104.5 12.5l26 -7q10 -27 11 -26q0 -70 -19.5 -216.5t-19.5 -219.5q0 -160 6 -207q25 -145 110 -146q127 0 174 117q31 76 31 225q0 207 -29 293q-39 115 -174 223l-8 37l31 17q274 -49 487 -43l123 4l27 -15v-30 q0 -68 -29 -250t-29 -277q0 -102 13.5 -308t13.5 -308q0 -311 -184 -436q-152 -102 -475 -103q-203 0 -355 80q-184 100 -184 285q0 176 186 176q127 0 232 -123q96 -115 108 -246q43 -14 76 -14q207 0 207 375q0 80 -10 178q-203 -152 -359 -152q-168 0 -278 134 q-104 127 -105 297v270q-10 135 -61 221q-61 104 -207 180zM225 1442q0 80 74 133q68 45 152 45q86 0 151 -45q76 -51 76 -133t-76 -133q-65 -47 -151 -47q-84 0 -152 47q-74 51 -74 133zM836 1470q0 78 69 129q63 45 146 46q82 0 148.5 -47.5t66.5 -127.5q0 -78 -66.5 -125 t-148.5 -47t-146 45q-70 49 -69 127z" />
<glyph unicode="&#x152;" horiz-adv-x="2529" d="M49 858q0 336 219 582q227 258 559 258q117 0 347.5 -43t351.5 -43q270 0 393 16q250 35 350 148l31 10l20 -23l123 -706l-20 -33l-35 14q-123 229 -234 314q-133 98 -372 98q-246 0 -258 -498q250 0 331 37q131 61 183 287l33 22l24 -30q-14 -236 -14 -410 q0 -256 30 -340l-14 -39l-39 13q-53 102 -133 170q-94 80 -192 79h-207q12 -496 319 -495q188 0 348 162q141 141 203 340l35 20l23 -33q-35 -199 -78 -762l-21 -24l-31 6q-117 113 -600 113q-158 0 -468 -35t-461 -35q-334 0 -547 268q-199 250 -199 592zM530 915 q0 -729 295 -729q217 0 283 273q33 133 33 446q0 205 -60 379q-84 246 -254 246q-176 0 -249 -238q-47 -152 -48 -377z" />
<glyph unicode="&#x153;" horiz-adv-x="2048" d="M59 633q0 244 195 409q184 160 430 160q281 0 453 -155q154 145 389 145q229 0 392 -166t163 -395q0 -184 -377 -185q-88 0 -219 10.5t-154 10.5q68 -215 328 -215q190 0 354 147l35 4l14 -32q-37 -172 -207 -271q-147 -84 -337 -84q-311 0 -453 164q-170 -117 -381 -117 q-258 0 -436 154q-188 162 -189 416zM489 633q0 -135 35 -244q54 -158 160 -158q109 0 160 158q37 111 37 244t-35 244q-53 156 -162 155q-106 0 -160 -155q-35 -111 -35 -244zM1311 647q51 0 154.5 -2t152.5 -2q61 0 61 72q0 111 -37 190q-47 102 -145 103 q-102 0 -151 -136q-33 -94 -35 -225z" />
<glyph unicode="&#x178;" horiz-adv-x="1757" d="M-182 1608l30 26h2q129 0 391.5 -28.5t395.5 -28.5q166 0 262 18l33 -20l-19 -37q-63 -25 -106 -82t-43 -123q0 -137 209 -424q164 236 174 254q86 150 86 289q0 109 -57 184v37l36 6q106 -55 310 -55q180 0 383 57l34 -18l-16 -37q-285 -117 -542 -507t-257 -697 q0 -270 324 -445l12 -36l-35 -19q-272 68 -563 68q-231 0 -389 -58l-37 19l17 37q121 51 196 190q70 127 70 266q0 152 -156 426q-152 266 -350 469q-217 223 -371 238zM477 1919q0 80 76 131q66 47 149 47q86 0 152 -45q76 -53 76 -133q0 -82 -76 -133q-66 -47 -152 -47 q-84 0 -151 47q-74 51 -74 133zM1087 1948q0 78 70 129q66 45 146 45q82 0 145 -45q70 -51 70 -129t-66.5 -126t-148.5 -48t-146 45q-70 51 -70 129z" />
<glyph unicode="&#x2c6;" horiz-adv-x="960" d="M43 1329l14 27q20 12 43 26q109 70 197 146q47 43 96 106q43 57 86 113l25 16l26 -10q12 -18 29 -39q82 -96 166 -172q47 -43 123 -86q104 -61 123 -76q8 -8 20 -22q2 -16 -112 -115l-31 -6q-186 70 -324 188l-309 -192h-31l-127 72z" />
<glyph unicode="&#x2dc;" horiz-adv-x="1122" d="M80 1350q37 115 115 196q90 98 196 99q100 0 199.5 -64.5t183.5 -64.5q109 0 162 38q33 23 55 76q18 45 39 51q33 -12 33 -98q0 -317 -293 -317q-109 0 -219.5 66.5t-206.5 66.5q-90 0 -221 -84l-33 4z" />
<glyph unicode="&#x2000;" horiz-adv-x="1120" />
<glyph unicode="&#x2001;" horiz-adv-x="2241" />
<glyph unicode="&#x2002;" horiz-adv-x="1120" />
<glyph unicode="&#x2003;" horiz-adv-x="2241" />
<glyph unicode="&#x2004;" horiz-adv-x="747" />
<glyph unicode="&#x2005;" horiz-adv-x="560" />
<glyph unicode="&#x2006;" horiz-adv-x="373" />
<glyph unicode="&#x2007;" horiz-adv-x="373" />
<glyph unicode="&#x2008;" horiz-adv-x="280" />
<glyph unicode="&#x2009;" horiz-adv-x="448" />
<glyph unicode="&#x200a;" horiz-adv-x="124" />
<glyph unicode="&#x2010;" horiz-adv-x="827" d="M88 604q10 104 21 207q20 176 34 184l27 4q4 0 137 -35.5t205 -35.5q70 0 164 32.5t90 32.5q29 0 29 -24q0 -29 -45 -203t-60 -180q-18 -2 -94 14q-82 16 -113 16q-68 0 -195.5 -22.5t-162.5 -22.5l-27 7z" />
<glyph unicode="&#x2011;" horiz-adv-x="827" d="M88 604q10 104 21 207q20 176 34 184l27 4q4 0 137 -35.5t205 -35.5q70 0 164 32.5t90 32.5q29 0 29 -24q0 -29 -45 -203t-60 -180q-18 -2 -94 14q-82 16 -113 16q-68 0 -195.5 -22.5t-162.5 -22.5l-27 7z" />
<glyph unicode="&#x2012;" horiz-adv-x="827" d="M88 604q10 104 21 207q20 176 34 184l27 4q4 0 137 -35.5t205 -35.5q70 0 164 32.5t90 32.5q29 0 29 -24q0 -29 -45 -203t-60 -180q-18 -2 -94 14q-82 16 -113 16q-68 0 -195.5 -22.5t-162.5 -22.5l-27 7z" />
<glyph unicode="&#x2013;" horiz-adv-x="1093" d="M76 623q16 98 30 196q29 166 44 174q23 4 22 4q27 0 78 -14q68 -16 78 -18q188 -35 352 -35q244 0 356 57l33 -2l8 -33q-35 -98 -71 -196q-59 -156 -78 -156q-45 0 -142.5 15.5t-146.5 15.5q-90 0 -267 -20.5t-263 -20.5l-25 8z" />
<glyph unicode="&#x2014;" horiz-adv-x="1411" d="M82 643l80 330l33 22q369 -63 673 -63q326 0 473 55l35 -6l2 -35l-168 -313l-30 -15q-127 29 -369 29q-117 0 -349.5 -20.5t-346.5 -20.5l-27 10z" />
<glyph unicode="&#x2018;" horiz-adv-x="571" d="M68 1968q-2 -4 4 -16q115 -203 155 -303q66 -150 95 -330q4 -27 28 -27l234 -10l26 12l2 29q0 -12 -47 133q-96 285 -96 430q0 2 6 45q2 29 -4 45q-27 10 -27 11q-35 0 -103.5 -9.5t-102.5 -9.5q-31 0 -82.5 14.5t-59.5 14.5q-16 0 -28 -29z" />
<glyph unicode="&#x2019;" horiz-adv-x="571" d="M72 1323q0 -12 49 133q94 285 94 430q0 2 -4 45q-4 29 4 45q27 10 27 11q33 0 101.5 -9.5t102.5 -9.5q31 0 82.5 14.5t59.5 14.5q16 0 30 -29q2 -4 -6 -16q-113 -203 -155 -303q-63 -150 -95 -330q-4 -27 -26 -27l-236 -10l-24 12z" />
<glyph unicode="&#x201a;" horiz-adv-x="704" d="M57 -129q0 -12 83 221.5t83 368.5q0 84 4 90l25 8q43 0 130 -6t132 -6q37 0 110.5 10t108.5 10q25 0 25 -28q0 -10 -10 -23q-35 -33 -97 -102q-104 -123 -147 -238q-14 -35 -76 -264l-10 -21l-23 -6q-127 0 -149 -2q-70 -6 -144 -39q-10 -4 -12 -4q-33 0 -33 31z" />
<glyph unicode="&#x201c;" horiz-adv-x="931" d="M80 2005q0 31 29 31h215l22 -8l8 -23q0 -23 -2 -66t-2 -63q0 -172 19 -309q2 -12 14 -66q10 -43 10 -65l-4 -23q-8 -12 -119.5 -36.5t-134.5 -24.5q-27 0 -26 24q0 47 12 144.5t12 146.5q0 164 -51 328q-2 8 -2 10zM424 2089l6 25q10 6 23 10q16 0 49 -2h49q23 0 68 6 t65 6q33 0 33 -35q0 -63 -15.5 -196.5t-15.5 -200.5q0 -104 10 -182q2 -8 10.5 -39t8.5 -43l-4 -27l-25 -12h-205q-29 0 -28 31q0 262 -11 466q-2 27 -12 97q-6 61 -6 96z" />
<glyph unicode="&#x201d;" horiz-adv-x="743" d="M80 2099q0 -63 15.5 -196.5t15.5 -200.5q0 -104 -13 -182q0 -8 -8 -39t-8 -43l4 -27l23 -12h206q29 0 29 31q0 262 10 466q2 27 11 97q8 61 8 96l-6 25q-10 6 -25 10q-16 0 -49 -2h-47q-25 0 -69 6t-64 6q-33 0 -33 -35zM403 1436q1 0 5 -23q6 -12 120 -37 q109 -25 134 -24q25 0 24 24q0 47 -11 144.5t-11 146.5q0 164 51 328q2 8 2 10q0 31 -31 31h-215l-20 -8q-8 -23 -9 -23v-66q2 -43 2 -63q0 -172 -16 -309q-2 -12 -14 -66q-10 -43 -11 -65z" />
<glyph unicode="&#x201e;" horiz-adv-x="743" d="M27 -102v-25l22 -12h205q31 0 35 28q47 262 92 467q20 66 53 193l-2 26q-10 4 -22 11q-16 0 -49 -2t-50 -2q-23 0 -66.5 6t-64.5 6q-31 0 -37 -33q-12 -66 -20 -198t-21 -199q-18 -104 -43 -182q-14 -31 -32 -84zM350 -102v-23q4 -12 115 -39q104 -25 127 -24q25 0 31 24 q6 111 34 330q31 141 101 291q2 2 4 8q6 33 -23 33h-217l-22 -11q-6 -10 -13 -22q-2 -20 -8 -63.5t-10 -65.5q-31 -170 -72 -307q-20 -47 -47 -131z" />
<glyph unicode="&#x2022;" horiz-adv-x="876" d="M90 821q0 152 111 242q102 82 258 82q174 0 289 -88q125 -94 124 -262q0 -162 -95 -243t-259 -81q-428 0 -428 350z" />
<glyph unicode="&#x202f;" horiz-adv-x="448" />
<glyph unicode="&#x2039;" horiz-adv-x="1036" d="M143 676q4 8 13 20q127 123 256 248q137 140 221 279l29 14q59 -4 118 -10q90 -10 109 -25l4 -24q0 -84 -141 -260q-119 -150 -217 -232q313 -600 311 -616v-29l-27 -14l-244 8l-26 16q-43 100 -227 367q-178 256 -179 258z" />
<glyph unicode="&#x203a;" horiz-adv-x="1042" d="M143 1171l4 25q18 12 125 18q137 8 140 9l28 -15q74 -135 205 -270q121 -117 242 -233q6 -8 12 -23l-8 -25q-88 -94 -207 -229q-45 -59 -104 -166q-68 -123 -97 -166l-22 -18l-234 -43l-28 10l-2 33l311 594q-100 84 -221 233q-143 182 -144 266z" />
<glyph unicode="&#x205f;" horiz-adv-x="560" />
<glyph unicode="&#x20ac;" horiz-adv-x="1832" d="M12 680l80 248l31 20l268 -30q41 336 240 542q213 219 545 219q231 0 423 -143q213 -158 213 -385q0 -88 -62 -135t-153 -47q-193 0 -299 174q-70 115 -120 350q-178 -37 -265 -221q-72 -150 -65 -352v-21q291 4 426 43l33 -10v-35l-168 -235l-29 -13q-88 14 -229 21 q45 -154 154.5 -238t267.5 -84q166 0 282 84q68 49 148 158q61 84 92 84q55 0 55 -66q0 -231 -231 -426q-219 -188 -453 -188q-319 0 -537 176q-227 180 -268 492q-66 -4 -129 -11q-111 -8 -168 -8q-61 0 -78 8z" />
<glyph unicode="&#xe000;" horiz-adv-x="1177" d="M0 0v1178h1178v-1178h-1178z" />
</font>
</defs>
</svg>
