<?xml version="1.0" standalone="no"?>
<!DOCTYPE svg PUBLIC "-//W3C//DTD SVG 1.1//EN" "http://www.w3.org/Graphics/SVG/1.1/DTD/svg11.dtd" >
<svg xmlns="http://www.w3.org/2000/svg">
<metadata></metadata>
<defs>
<font id="daisywheelregular" horiz-adv-x="1100" >
<font-face units-per-em="2048" ascent="1638" descent="-410" />
<missing-glyph horiz-adv-x="500" />
<glyph horiz-adv-x="2048" />
<glyph horiz-adv-x="2048" />
<glyph unicode="&#xd;" horiz-adv-x="2048" />
<glyph unicode=" " />
<glyph unicode="!" d="M407 155l17 -57l43 -68l16 -17l29 -8l34 -3l59 11l25 12l34 39l29 79l-15 54l-11 25l-37 37l-45 25l-62 6l-23 -14l-59 -48l-31 -42zM430 1081l42 -175l-3 -74l12 -51v-132l5 -57l-8 -39l14 -96l8 -29l15 -19l19 -17h34l23 14l28 42l11 26l3 56l-5 40v200l22 158l28 79 l9 65l-3 71l-6 31l-31 42l-19 17l-51 20l-34 5l-51 -19l-20 -17l-25 -48l-14 -57z" />
<glyph unicode="&#x22;" d="M209 1137l60 -463l16 -42l29 -31l17 -9l31 3l31 28l17 40l70 415v45l-8 51l-20 36l-34 29l-42 17l-51 8q-28 -8 -42 -17l-37 -22zM633 1106l25 -263l17 -48l6 -96l11 -48l20 -36l48 -26l39 3l29 31l25 91l39 361v59l-11 45l-25 34l-31 26l-48 11l-48 -8l-43 -17l-28 -29 l-22 -48z" />
<glyph unicode="#" d="M175 -14l22 -31l17 -9l29 6l28 22l22 34l31 76l20 85l34 76l23 85l22 31l17 5l28 -2l37 -17l9 -34l-29 -141l-17 -37l-31 -133l15 -39l33 -22l12 -3l31 8l42 67l26 82l16 37l9 45l20 37l14 39l20 34l48 23l56 -9l23 6l34 20l8 22l-3 23l-20 34l-59 48l-20 48l6 37l14 39 l20 34l28 28l82 26l28 25l3 11l-6 31l-22 31l-28 29l-23 39v40l17 90l65 220l-3 31l-14 43l-14 8l-28 -3l-29 -28l-50 -113l-65 -203l-23 -34l-42 -11l-48 5l-17 37l39 172l17 37l9 102l-12 42l-39 17l-54 -54l-17 -36l-70 -204l-20 -31l-40 -17l-96 -5l-34 -23l-5 -17 l8 -25l23 -31l65 -43l14 -39l-31 -130l-26 -31l-96 -14l-31 -20l-8 -23l3 -22l51 -60l28 -53l-11 -68q-6 -34 -12 -45l-20 -34l-28 -25l12 -26l-12 -3l9 -36l-14 -40l-20 -90v-53zM488 584l6 34l-6 22l23 68l25 17l37 -3l23 -14l14 -25l2 -37l-14 -65l-14 -26l-25 -14 l-37 -2l-25 14z" />
<glyph unicode="$" d="M204 140l14 -31l43 -42l79 -54l62 -22l25 -19l20 -23l25 -62l20 -26l26 -19l39 3l20 25l20 68l20 22l53 31l62 25l71 62l37 48l31 57l25 73l-14 147l-14 31l-9 34l-96 121l-76 57l-65 65l-17 39l3 68l6 9l-12 64l-2 127l8 34l14 29l37 17l104 -15l43 3l19 26l-11 31 l-22 22l-54 31l-99 34l-39 45l-26 20l-20 68l-33 11l-23 -20l-20 -25v-37l-8 -36l-20 -20l-107 -68l-40 -48l-45 -85l-23 -65l14 -110l23 -65l62 -70l122 -93l14 -74l-3 -42l14 -152l-6 -37l-5 -127l-12 -28l-28 -17l-39 -3l-65 20l-71 33l-25 -2l-23 -23zM357 945l14 73 l17 26l31 17q22 -6 31 -11l22 -23l-8 -34l8 -37l-2 -79l-12 -31l-34 -11l-28 14l-22 25l-12 32zM605 282l9 169l28 37q28 -2 51 -12l34 -31q16 -19 19 -42l20 -48l6 -28l-14 -79l-17 -48l-31 -31l-45 -20l-20 -3l-26 17z" />
<glyph unicode="%" d="M168 903l11 -110l17 -31l43 -54l28 -23l42 -17l31 3l37 12l62 36l51 43l62 81l31 65l11 37l20 11l-6 -31l-33 -65l-48 -141l-23 -39l3 -31l-23 -26l-11 -34l-17 -31l-14 -67l3 -12l-45 -99l-23 -73l-45 -99l-12 -36l-16 -29l-6 -42l-17 -31l-48 -141l-20 -31l-14 -76 l20 -28l37 -6l31 17l19 28l195 474l34 62l14 82l201 514l8 39l34 62l11 37l31 62l23 74l17 31l11 36l6 43l-14 31l-34 14l-28 -17l-77 -71l-28 -17l-107 -36l-243 -45l-31 -14l-56 -40l-20 -28l-12 -37l-39 -54l-14 -36zM309 866v93l14 43l20 36l25 28l37 23q29 -2 45 -8 l26 -31l5 -51l-11 -93l-54 -63l-48 -16l-33 -6zM515 143l31 -93l31 -31l37 -25l48 -14l59 6l108 78l48 76l56 133l-3 122l-34 90l-28 34l-39 22l-60 17h-50l-40 -22l-34 -29l-22 -39l-79 -107l-12 -51zM620 188l11 99l17 43l23 34l76 42q24 -1 45 -11l11 -46l-11 -98 l-17 -43l-23 -34l-28 -28l-45 -14l-42 17zM625 1086l3 34l20 20q13 -3 25 -9v-36l-28 -48l-14 -6z" />
<glyph unicode="&#x26;" d="M163 287l14 -62l65 -121l37 -37l65 -48l144 -42l130 14l79 34l62 11l28 -8l62 -48l26 -11l22 -3l9 6l14 22l8 28l-8 65l-31 82l-6 31l17 59l26 48l11 37l-3 22l-17 23l-28 20l-26 -3l-50 -26l-31 3l-23 14l-113 187l-39 107l8 28l51 96l17 23l28 82l11 56l12 28l2 71 l-19 56l-26 48l-39 34l-51 26l-62 14l-31 -6l-54 -20l-65 -45l-20 -20l-28 -45l-11 -138l11 -62l14 -26v-36l29 -93l-20 -46l-57 -53l-84 -102l-43 -107zM299 273v91l5 48l17 36l71 88l28 25l37 20q24 -2 39 -11l147 -277q8 -23 20 -37l6 -45l-17 -37l-31 -22l-71 -34 l-96 -11l-68 39l-28 26l-22 28zM471 1024l17 45l20 29l31 16q22 -5 34 -11l19 -28l15 -31l-20 -122l-17 -31l-31 -17l-31 12l-20 25z" />
<glyph unicode="'" d="M395 1146l6 -116l85 -441l25 -39q17 -22 42 -26l43 23l28 40l17 48l65 460l-11 53l-20 46l-31 36l-40 26l-62 5l-51 -14l-39 -28l-31 -31z" />
<glyph unicode="(" d="M369 702l23 -290l37 -130l53 -116l94 -130l31 -25l67 -25l46 27l11 15l-3 28l-17 42l-20 34l-48 62l-19 40l-23 31l-73 209v53l-9 48l-3 96l12 57l-3 31l14 96l73 206l62 104q-2 31 -11 48q-17 17 -37 20l-36 -20l-31 -22l-48 -65l-54 -113l-23 -34l-8 -45l-23 -37 l-14 -39l-14 -65l3 -31z" />
<glyph unicode=")" d="M378 22q2 -25 17 -39l39 -17l51 8l34 23l88 141l14 45l42 73l28 85l23 150l8 19v141l-5 40l-15 45v91l-64 163q-18 15 -37 20l8 25l-2 23l-96 136l-29 28l-48 11l-31 -25l-8 -17l3 -31l19 -37l54 -62l88 -201l28 -141l-6 -53v-105l-11 -102l-48 -180l-130 -215z" />
<glyph unicode="*" d="M172 855l11 -28l57 -32l96 6l25 -14l11 -37l-19 -45l-17 -20l-12 -28l-19 -17l-48 -144l11 -28l17 -20l28 -11l28 11l37 37l93 172l12 28l19 17l34 -5l9 5l25 -34l11 -28l17 -22l23 -91l17 -22l11 -26l20 -20l31 -19l23 3l25 14l14 22l3 37l-23 54l-2 33l-51 102l-9 28 l9 31l22 15l40 8h59l91 25l28 26l-12 51l-16 19l-26 14l-31 9h-107l-26 11l-8 31l14 62l45 108l11 65l-11 28l-22 14l-32 8l-19 -16l-31 -46l-43 -110l-42 -70l-25 -14l-29 8l-22 17l-17 20l-23 53l-79 110l-34 20l-22 -3l-23 -17l-6 -31l43 -110l28 -51l11 -62l-42 -31 l-105 -11l-25 -11l-20 -20z" />
<glyph unicode="+" d="M148 668l2 -28l26 -28l59 -23l28 3l147 -17l37 -20l22 -33v-54l12 -93l-6 -105l11 -45l23 -31l17 -11l28 3l31 22l26 31l11 57v36l14 96l-3 54l9 48l20 34l42 11l48 20l39 -6l65 9h37l37 17l22 36l-11 43l-37 20l-203 17l-37 19l-25 29l-14 42l-6 48l9 48l-17 87l-3 54 l-26 31q-19 12 -42 14l-31 -22l-20 -48v-88l-5 -51l5 -48l-8 -48l-17 -39l-31 -23l-96 -22l-99 2l-45 -11z" />
<glyph unicode="," d="M364 -218l9 -22q15 -21 34 -28l8 -3l42 8l40 20l62 59l37 23l101 138l20 39l20 74l-14 73l-17 45l-26 34l-36 23l-48 11h-62l-40 -20l-34 -28l-22 -37l-15 -56l6 -43l14 -48l23 -47l-9 -40l-19 -39l-54 -68l-17 -42z" />
<glyph unicode="-" d="M168 550l14 -28q19 -21 40 -26l116 -22l231 3l68 8l198 -8l28 5l42 20l28 52l-19 45q-21 18 -40 22l-62 15l-537 8l-33 -3l-48 -17l-20 -45z" />
<glyph unicode="." d="M387 107l17 -54l16 -23l49 -33l28 -11l36 -6l71 6l31 8l26 17l19 22l26 54l8 34l-11 67l-28 54l-20 23l-23 17l-65 17l-39 2l-28 -11l-51 -31l-20 -20l-17 -25l-11 -28z" />
<glyph unicode="/" d="M188 -169l6 -8l51 -17l50 8l32 34l42 93l14 48l260 537l51 82l218 517v48l-9 14l-42 3l-40 -25l-28 -40l-153 -308l-14 -54l-51 -79l-107 -226l-28 -37l-74 -192l-25 -39l-147 -317z" />
<glyph unicode="0" d="M139 752l9 -54l-6 -31l17 -141l5 -8l-5 -60l25 -161l34 -99l79 -119l37 -31l85 -48l119 -30l107 11l51 17l42 22l71 62l28 40l65 133l43 158l8 119l6 11l2 113l-42 280l-23 42l-16 51l-49 85l-67 65l-85 48l-110 26l-60 -6l-104 -28l-48 -20l-105 -96l-25 -40l-40 -93 l-23 -110l-16 -51zM311 475l12 348l42 152l37 60l45 51l28 20l80 16l42 -2l65 -31l28 -20l23 -26l34 -62l65 -271l-9 -51l12 -108l-15 -48v-39l-17 -79l-28 -71l-8 -37l-34 -62l-23 -28l-87 -57l-34 -11l-40 -3l-40 9l-33 14l-26 22l-56 88l-48 144z" />
<glyph unicode="1" d="M391 1029l5 -22l20 -32l31 -19l45 -9l31 -20l17 -34l12 -104l-6 -76l11 -91l-8 -45l6 -96l-6 -91l3 -99l-12 -135l-8 -46l14 -36l20 -31q8 -20 25 -29l43 -8l31 14l20 34l11 39v51l8 54l-5 37l-3 141l11 102l-8 28v85l-6 31l9 382l8 42l-14 91l-11 39l-23 28l-37 15 l-48 5l-59 -42l-23 -28l-56 -46l-26 -28z" />
<glyph unicode="2" d="M159 77l8 -46l29 -25l39 -14h43l104 -11l93 11l133 -8l105 11l39 -3l133 19q22 8 31 23l-5 45l-31 23l-49 20l-183 -9l-94 6l-50 -3l-77 26l-8 39l104 158l54 54l107 153l51 56l20 31l82 80l43 62l25 28l37 119l-3 51l-20 79l-34 73l-25 29l-91 67l-36 15l-102 17l-91 -3 l-45 -9l-42 -17h-45l-80 -25l-31 -23l-51 -56l-39 -65l-9 -43q0 -22 12 -39l28 -23l45 -8l102 110l59 45l91 14l138 -3l37 -8l34 -20l20 -31l25 -85l-8 -87l-63 -97l-14 -36l-133 -133l-65 -91l-175 -195l-20 -34l-50 -51l-88 -124z" />
<glyph unicode="3" d="M159 71l8 -34l20 -26l31 -16l82 -8l133 5l40 8l28 17l116 28l209 125l43 54l14 31l36 59l23 96l-3 65l-28 113l-31 65l-20 26l-73 73l-111 79l-22 34l2 28l156 176l37 59l11 37l-11 37l-23 25l-31 17l-54 6l-118 -6l-40 11l-40 -8l-87 6l-204 -23l-31 -34l6 -25l22 -26 l28 -20l122 -11l43 3l121 -20l11 -37l-11 -36l-124 -162l-37 -73l3 -31l20 -28l31 -17l59 -12l23 3l79 -14l37 -11l28 -17l48 -51l34 -60l20 -73v-82l-29 -68l-67 -73l-29 -23l-161 -76l-79 -14l-37 -12l-175 -11l-34 -14z" />
<glyph unicode="4" d="M160 404l3 -36l20 -43q19 -21 39 -28l46 -17l59 -6l59 6l54 -6l82 12l79 -20q22 -10 34 -28l17 -48l14 -113l26 -40q21 -15 48 -17q23 4 39 20q16 23 17 48l14 51l17 104l26 37l45 20l37 28l5 20l-14 25l-82 48l-31 31l-14 51l11 65l-11 255l20 104l-12 43l6 59l-23 147 l-31 31l-51 17l-48 -14l-42 -23l-59 -70l-88 -170l-51 -76l-62 -130l-175 -274l-14 -48zM383 458v34l12 6l-9 20l147 254l43 51l28 17q13 -5 28 -14l20 -68l3 -127l11 -80l-20 -67l-14 -32l-28 -16l-51 -12l-147 12z" />
<glyph unicode="5" d="M176 40l28 -48l37 -17h96l12 6l79 6l82 19l65 34l28 22l17 37l45 3l122 85l45 53l56 97l37 130l-31 209l-14 37l-62 90l-54 48l-105 48l-39 6l-187 -6l-34 14l-17 34l3 93l17 34l29 20l158 12l31 -3l28 5l11 -5l145 8l42 9l28 22l17 40l-3 42l-8 14l-173 -11l-56 6 l-45 -6l-170 17l-90 -3l-40 -14l-31 -20l-20 -28l-25 -79l-6 -105l9 -87l-9 -65l9 -20v-88l14 -34l22 -31l37 -5l74 28l31 20l110 42l45 8l43 -5l39 -12l34 -16l51 -51l20 -31l22 -80v-42l-19 -127l-17 -34l-65 -88l-82 -68l-105 -48l-164 -39l-90 -12l-31 -19l-23 -29z" />
<glyph unicode="6" d="M136 512l26 -175l31 -88l5 -28l17 -26l12 -28l79 -82l96 -62l130 -31l71 -8l99 19l31 11l45 34l17 23l28 11l93 108l14 25l34 206l-25 133l-54 108l-37 42l-65 57l-48 31l-36 3l-122 39l-34 6l-144 -14l-25 17l-3 34l79 118l20 20l73 48l215 65l48 31l17 26l-14 25 l-20 20l-68 14l-133 -25l-87 -32l-105 -56l-85 -74l-16 -25l-20 -20l-45 -76l-23 -57l-65 -254v-79zM300 385l11 84l34 105l63 76l90 48l54 20l62 -5l51 -20l39 -28l68 -71l43 -99l14 -57l-6 -62l-14 -54l-45 -93l-37 -34q-17 -26 -37 -34l-48 -19l-65 -9l-65 3l-54 14 l-45 25l-65 74z" />
<glyph unicode="7" d="M196 1145l3 -23l36 -33l147 -32l51 12l37 -6h195l48 -23q14 -26 14 -53l-161 -475q-4 -30 -17 -54l-11 -59l-79 -201l-12 -59l-33 -68l5 -37q16 -21 40 -31l51 14l34 37l101 251l43 167q16 23 22 48l127 368l26 45l42 170l-22 48l-46 25l-62 9l-274 8l-62 -8l-28 -9 l-88 17h-65q-31 -11 -48 -22z" />
<glyph unicode="8" d="M149 339l26 -101l42 -99l26 -43l67 -70l153 -71h110l54 15l23 -3l87 20l48 22l37 34l116 164l11 50l3 68l-9 62l-36 102l-23 45l-59 82q-17 25 -17 51l51 88l19 51l15 124l-12 60l-20 50l-56 82l-37 34l-42 29l-119 19h-71l-115 -22l-94 -45l-39 -31l-31 -40l-23 -45 l-25 -74l8 -96l14 -56l43 -97l8 -28l-3 -28l-99 -181zM271 345l22 79l51 82l37 34l85 48l59 11l57 -2l56 -12l45 -22l77 -60l28 -36l23 -46l14 -110l-20 -59l-23 -43l-62 -76l-87 -45l-57 -11l-119 16l-48 20l-39 26l-34 34l-28 39zM344 874v51l23 76l20 31l25 25l110 46 l46 -3l11 3l31 -6l73 -28l32 -20l42 -59l20 -82l-9 -43l-68 -85l-25 -22l-79 -23l-51 -5l-79 11l-37 14l-54 48z" />
<glyph unicode="9" d="M153 877l9 -181l48 -111l116 -124l79 -40l119 -42h79l59 8l37 -2l25 -14l-14 -66l-14 -25l-23 -17l-17 -23l-118 -82l-91 -28l-28 -14l-65 -6l-8 3l-57 -14l-23 -17l-17 -22l9 -32l14 -25l25 -14l34 -8l218 22l198 122l39 39l94 147l42 158l26 212l-9 215l-8 31l-46 113 l-65 97l-50 31l-111 48l-107 14l-189 -43l-74 -45l-14 -25l-74 -88l-5 -34l-14 -25zM292 795v36l8 57l40 102l34 36l79 60l51 22l65 -2q31 -2 59 -12l91 -48l39 -31l28 -42l23 -48l17 -80v-36l-17 -54l3 -31l-9 -28l-59 -82l-82 -60l-51 -17l-65 -5l-59 11l-91 48l-65 76 l-22 48z" />
<glyph unicode=":" d="M399 99l11 -37l74 -81l48 -17l70 17l26 11l22 17l32 45l11 28l8 68l-19 57l-34 42l-26 14l-28 9l-37 2l-62 -14l-48 -28l-17 -23l-23 -53zM407 631l14 -60l65 -45l26 -11l62 -9l26 12l56 53l11 26l17 19l12 29l3 34l-17 56l-57 54l-62 14q-17 -5 -31 -6l-54 -19l-40 -34 l-31 -43v-70z" />
<glyph unicode=";" d="M365 -220l8 -39q16 -18 37 -26l48 9l170 133l25 33l34 29l23 39l14 45l11 79l-3 28l-33 88l-26 37l-34 25l-48 14l-51 -8l-73 -48l-40 -82l20 -102l17 -53l3 -31l-51 -85l-29 -34zM427 662l8 -54l26 -51l17 -20l71 -39h31l53 20l63 48l17 19l5 31v37l-14 60l-31 45 l-23 14l-53 17l-34 6l-57 -17l-22 -15l-46 -65z" />
<glyph unicode="&#x3c;" d="M10 627l1016 -547l65 119l-809 428l809 424l-63 120z" />
<glyph unicode="=" d="M181 484l6 -29l34 -25l45 -11l54 -6l99 8l54 -2l48 8l152 -14l99 14l17 -6h37l42 15l31 25l9 28l-9 14l-36 20l-43 14l-308 -5l-39 5l-82 -5l-136 14l-37 -20l-31 -25zM190 806l22 -37l34 -20l43 -17h102l45 12h413l39 17l28 28l3 28l-14 14l-37 20l-48 9h-514l-51 -6 l-45 -11q-17 -17 -20 -37z" />
<glyph unicode="&#x3e;" d="M9 199l66 -119l1016 547l-1018 544l-64 -120l809 -424z" />
<glyph unicode="?" d="M258 1026l17 -39l19 -14l23 2l37 23l31 28l22 37l32 26l84 36l91 -19l39 -20l26 -34l17 -40l14 -56l-3 -43l-14 -45l-59 -59l-71 -46l-57 -59l-22 -37l-17 -42l-6 -96l23 -110l20 -37l16 -11h34l26 31l22 39l9 43l3 50l-6 51l20 40q4 26 20 40l31 28l37 20l33 25l29 28 l39 79l14 46l12 104l-34 85l-54 62l-99 77l-45 14l-105 14l-90 -26l-105 -70l-22 -37zM399 125l17 -54l31 -40l42 -28l23 -8l37 3l53 16l68 74l9 37l-20 70l-28 40l-45 28l-57 9l-51 -17l-42 -29l-23 -48l-14 -20v-33z" />
<glyph unicode="@" d="M146 530l37 -302l45 -107l91 -102l93 -59l59 -17l104 -11l150 42l23 17l50 25l105 88l37 51l-3 22l-12 28l-25 15l-28 -9l-139 -93l-56 -20l-102 -14l-33 3l-116 37l-26 14l-56 56l-17 23l-11 25l-20 96l-11 28l-12 198l6 34l-6 70l9 68l17 59l3 34l17 71v22l98 133 l57 57l48 31l62 14h37l31 -6l79 -37l42 -33l31 -46l37 -76l14 -62v-104l-11 -96l-9 -31l-62 -130l-34 -37l-14 -6l-6 12l9 36v26l37 152l19 57l3 36l-8 68l-17 23l-31 8l-34 -3l-28 12l-99 -14l-54 -23l-42 -37l-71 -82l-53 -98l-40 -164l20 -122l31 -48l54 -19l22 -17 l71 -9l93 20l62 -14l70 8l80 74l36 79l37 39l45 108l23 138l-31 257l-17 59l-26 51l-20 20l-31 45l-90 62l-96 20l-37 3l-124 -29l-87 -65l-57 -56l-17 -23l-11 -25l-20 -20l-90 -178l-23 -129l-19 -60zM446 510l8 60l23 48l14 53q7 30 22 48l31 37l40 31q27 -8 42 -23 l9 -62l-57 -220l-25 -42q-30 -14 -54 -14l-42 28z" />
<glyph unicode="A" d="M122 116l5 -37l12 -28l19 -20l26 -14l34 3l19 20l9 34l34 45l6 34l14 25l28 133l17 23l17 65l17 22l23 17l28 12l76 2l178 -16l43 -37l73 -207l23 -99l28 -50l23 -20l34 -20l22 3l26 17l22 37l-5 25l3 28l-9 65l-20 62l-8 65l-85 317l-23 57l-19 93v31l-26 54l-14 65 l-11 28l-14 107l-51 111l-37 45l-20 17l-28 14l-71 11l-59 -19l-23 -17l-56 -105l-23 -59l-40 -159l-22 -59l-6 -34l-113 -367l-9 -74l-17 -62l-2 -31zM430 639l102 385l19 25q18 -5 29 -11l5 -37l26 -62l42 -170l6 -37l11 -34l3 -39l-6 -37l-31 -11h-164l-34 8z" />
<glyph unicode="B" d="M111 871l14 -452l-9 -37l6 -158l-9 -99l3 -34l9 -29l14 -22l37 -37l50 -19l32 -6l31 6l36 -9l221 6l28 6l93 5l17 -5l77 19l124 90l34 40l51 93l8 28l12 88l-12 102l-8 25l-85 133l-8 28l2 32l54 163l3 68l6 31l-9 60l-51 93l-8 26l-23 16l-14 20l-42 31l-97 48l-84 23 l-396 -3l-31 -5l-23 -15l-17 -17l-36 -118l5 -23v-161zM283 294l8 184l15 51l36 28l238 14l107 -22l45 -20l37 -28l54 -77l5 -48l9 -20l-20 -82l-20 -48l-28 -36l-76 -51l-65 -17l-57 5l-22 -5l-96 17l-68 -9l-29 3l-45 20l-22 34l2 51zM291 820l12 184l14 42l31 26l144 22 h108l84 -25l37 -20l28 -28l37 -77l6 -48l-6 -45l-42 -71l-29 -28l-36 -17l-48 -14l-40 6l-105 -9l-147 17l-31 23z" />
<glyph unicode="C" d="M107 636l17 -277l20 -87l82 -133l113 -99l76 -31l93 -22l136 11l85 19l68 40l59 48l71 90l19 34l20 62v23l-20 37l-34 28l-39 -6l-26 -28l-17 -37l-62 -99l-96 -65l-45 -17l-93 -2l-48 5l-37 14l-68 40l-76 82l-17 37l-23 138l3 9l-9 82l12 248l28 130l57 105l93 68 l82 25l56 9l128 -9l36 -17l29 -22l48 -60l34 -73l22 -31l31 -23l43 -11l31 22l5 23l-22 110l-37 71l-51 57l-130 82l-85 25l-45 8l-150 -19l-28 3l-153 -63l-93 -118l-54 -108z" />
<glyph unicode="D" d="M130 978l14 -175l-8 -23l8 -31l6 -56l-17 -317l6 -169l-6 -57l3 -65l20 -48l42 -28l68 -11l181 -9l59 -8l125 14l87 48l74 62l34 37l56 82l46 90l36 181l6 113l-42 300l-43 96l-25 42l-94 113l-36 31l-43 26l-110 28l-122 11q-21 -3 -63 -3q-36 0 -58 1l-110 -15l-49 -22 q-17 -19 -25 -43zM280 501l20 466l-3 8l14 63l23 25l31 17l133 6l124 -20l62 -34l71 -76l20 -31l51 -136l8 -85l-5 -45l8 -54l-5 -76l-43 -156l-6 -42l-45 -99l-25 -25l-60 -40l-70 -25l-43 -6l-169 -3l-43 9l-28 19l-14 34l5 218z" />
<glyph unicode="E" d="M177 410l6 -42l3 -272l14 -36l23 -26l34 -20l70 -14l60 3l99 -11l359 22l36 14l17 34l-11 40l-37 23l-141 14l-79 -6l-96 6l-29 5l-56 -8l-77 20l-25 22l-14 79l3 136l22 127l17 34l37 12l238 8l45 6l42 -3l34 14l23 31q-2 24 -12 40l-22 25l-34 17l-45 6l-43 -6l-45 6 h-110l-111 25l-25 23l-14 37l-6 82l6 8l-6 34l9 88l11 36l23 31l31 17l118 6l12 -3l42 9l238 -3l79 14l28 23l6 39l-17 31l-34 20l-37 11l-192 15l-102 -12l-65 12l-144 2l-37 -14l-39 -8l-29 -23l-20 -39l9 -201l-11 -54l2 -48l-19 -79l11 -136l-14 -127l8 -37z" />
<glyph unicode="F" d="M173 190l9 -32l8 -70l17 -26l20 -19l34 -6l31 6l17 19l14 29l14 76v178l-8 31l11 144l9 31l14 26l19 17l32 11l115 3l51 -9l119 12l34 8l22 17l17 23l3 37l-14 25l-23 20l-28 11l-65 14l-149 -5l-105 14l-23 17l-8 31l6 20l-9 5l-11 40l5 102l20 59l17 25l23 17l401 15 l34 5l56 26l26 28l-12 51l-19 20l-26 14l-31 8l-73 9l-74 -6l-22 6l-17 -6h-235l-34 8l-132 -28l-26 -11l-20 -20l-14 -28l-14 -65l6 -37l-6 -31l9 -62v-153l-6 -8v-60l6 -36l-6 -74v-110l8 -68l-11 -187l-6 -14v-87z" />
<glyph unicode="G" d="M99 583l12 -142l42 -206l82 -108l31 -31l76 -48l133 -56l108 -11l150 36l39 23l71 53l62 65l48 77l20 42l28 122l-6 141l-19 43l-34 28l-46 17l-288 -3l-45 -20q-19 -15 -28 -34l14 -42l45 -20l209 -34l34 -25l17 -71l-3 -34l-14 -51l-54 -70l-36 -23l-31 -34l-43 -20 l-76 -17l-82 6l-48 14l-82 42l-59 65l-26 37l-20 54l-3 42l-11 54l-5 110l5 60l-5 53l14 170l31 93l20 43l25 36l65 60l88 39l53 6l60 -3l101 -25l43 -20l31 -28l51 -77l28 -34l40 -22l42 20l20 45l-9 54l-17 45l-25 37l-34 28l-28 34l-111 79l-115 34l-31 -6l-60 6 q-25 -9 -104 -20l-125 -62l-34 -28l-116 -133l-17 -48l-36 -184l3 -110z" />
<glyph unicode="H" d="M135 984l11 -161l-9 -119l6 -121l-6 -71l6 -43l-6 -45l15 -314l8 -42l17 -34l40 -28l28 8l25 26l14 45v42l-5 12l11 70l11 283l12 37l31 20l37 14l319 5l45 -5l34 -17l20 -31l11 -40l11 -102l-5 -82l5 -181l12 -42l19 -31l34 -14l34 17l20 34l17 93l-11 119l14 183l-6 43 l6 322l-6 45l12 85v76l-17 99l-20 32l-31 19l-23 3l-20 -8l-19 -31l-17 -82v-97l8 -65l-11 -70l8 -34l-11 -40l-20 -28l-34 -17l-53 -8h-325l-40 11l-31 20l-14 48l-6 79l9 102l-6 79l-31 124l-26 26l-36 8l-31 -17l-17 -37z" />
<glyph unicode="I" d="M468 893l20 -333l-12 -79l-3 -201l9 -164l8 -37l17 -31l29 -17l42 -5l23 22l17 43l5 161l-8 70l5 57l-2 8l11 60l-6 42l9 37l-12 34l-5 42l14 492l-14 79l-43 51l-39 9l-31 -14l-17 -32l-12 -73v-122z" />
<glyph unicode="J" d="M248 291l8 -56l34 -102l28 -40l37 -33l138 -65l37 -8l85 5l54 14l45 22l31 37l73 130l20 280l-11 88l20 172l5 396l-14 54l-22 45q-21 15 -48 23q-26 -9 -43 -26l-34 -102l-5 -435l5 -31v-93l-8 -74l5 -82l-5 -28l3 -62l-9 -60l-20 -48l-68 -65l-48 -5l-62 19l-36 31 l-99 173l-51 14q-25 -13 -37 -31z" />
<glyph unicode="K" d="M136 925l3 -195l6 -23v-322l5 -48l-2 -48l11 -193l20 -34l31 -22l22 -3l20 8l26 29l19 410l17 36l23 29l31 22l40 12l42 -15l31 -22l25 -26l17 -36l51 -57l20 -34l26 -28l62 -99l101 -110l20 -31l51 -60l31 -20l23 -8l22 3q21 9 29 25l5 23l-22 56l-161 212l-20 34 l-96 119l-99 167l-17 48l6 37l234 243l59 48l51 56l20 34l6 23l-3 22l-20 37l-37 17l-39 -14l-31 -23l-51 -56l-88 -71l-22 -31l-82 -79l-31 -20l-54 -54l-62 -45l-29 -31h-39q-22 10 -23 31l-17 48l6 46l-6 48l6 36l-14 147l-20 34l-34 20l-31 3l-39 -37l-20 -62v-136z" />
<glyph unicode="L" d="M197 1049l12 -170l-9 -67l6 -46l-6 -36l9 -272l-9 -56l6 -294l22 -43l32 -34l101 -28l94 -5l28 2l56 -5l229 14l57 8l48 14l31 37l-14 48q-26 20 -45 23l-85 11l-325 11l-48 17q-17 19 -23 40l-20 147l23 220l-14 82l3 354l11 56l-3 60l-17 48l-28 39l-48 17l-43 -22 l-28 -37z" />
<glyph unicode="M" d="M102 964l3 -85l8 -48l-5 -271l11 -150l-9 -31l6 -28l-3 -26l6 -59l-6 -9l9 -101l11 -54l28 -37l26 -5l19 14l29 34l11 50l-6 198l14 60l-2 25l11 68v150l14 51q2 26 26 28l45 -82l96 -277l28 -34l45 -34h46l48 14l56 71l124 319l23 40l26 17l8 -42l-6 -26l14 -42l-2 -63 l8 -56l-11 -201l8 -22l9 -94l-6 -82l14 -51l29 -33l19 -9l29 9l22 39l14 62v221l-11 51l11 627l9 40l-6 25l3 29l-6 28l-22 39l-43 23l-59 -3l-42 -22q-17 -22 -20 -43l-20 -42l-79 -238l-43 -84l-14 -51l-42 -82l-17 -48l-31 -32q-26 5 -40 20l-19 46l-74 243l-23 42 l-79 235l-22 39l-34 31l-57 9l-39 -23l-29 -37l-19 -42z" />
<glyph unicode="N" d="M143 1106l14 -88l-8 -62l8 -215l-8 -62l17 -238l-6 -161l-8 -48l8 -110l17 -40l28 -28l29 -3l17 11l22 34l14 46l9 62v45l-11 48l5 51l3 158l9 51v57l8 48l-3 8l6 99l11 45q23 0 37 -14l34 -25l39 -74l17 -42l119 -170l17 -39l48 -68l14 -45l110 -179l17 -39l29 -28 l34 -26l39 -20l40 17l25 102l-3 257l-5 51l11 173l-9 48l6 152l11 48l3 114l-17 149l-14 43q-13 21 -31 28l-31 3l-17 -9l-25 -31l-9 -62v-99l-8 -59l8 -96l-11 -46l8 -107l-5 -110l-9 -43v-104l-31 -20l-28 28l-215 365l-17 40l-42 70l-17 43l-164 240l-40 20l-42 -14 l-28 -32l-23 -93z" />
<glyph unicode="O" d="M104 710l8 -77l-6 -115l108 -309l25 -42l62 -76l82 -57l48 -23l57 -11l102 3l56 -11l110 62l74 65l28 42l14 31l-3 20l32 37l50 88l34 175l-2 31l14 90v119l-9 31v31l-42 164l-26 43l-42 96l-68 70l-39 29q-20 14 -49 22l-98 40l-63 8l-59 -8l-105 -34l-79 -57l-70 -70 l-57 -79l-79 -269zM248 611v90l8 43l3 48l68 186l20 31l73 80l65 36l40 14l42 -5l23 -9h22l37 -11l34 -20l51 -48l22 -28l60 -144l5 -46l15 -39l25 -175l-31 -224l-93 -161l-54 -48l-65 -37l-40 -11l-48 -3l-76 26l-59 42l-26 26l-42 59l-54 150l-14 138z" />
<glyph unicode="P" d="M123 845l11 -53v-43l-5 -22l5 -291l-5 -20l11 -164l-3 -12l6 -115l28 -40l20 -14l31 3l31 36l14 54l12 91l-9 104l3 51l-6 57l23 45l-3 37l11 17q25 12 51 14l68 14l51 -3l71 8l50 -2l60 8h62l51 17l88 45l39 31l57 77l19 48l12 192l-65 136l-68 68l-40 28l-45 22l-51 17 l-124 9l-60 -9l-19 9l-34 -6h-91l-28 6l-28 -6l-28 3l-63 -6l-50 -17l-32 -36l-17 -51l-11 -79l6 -54v-181zM281 834l12 110l-12 105l9 54l31 31l110 11l113 -11l139 11l73 -23l34 -25l26 -40l14 -48l3 -53l-17 -111l-26 -36l-31 -31l-42 -20l-57 -14l-110 -3l-26 -9l-59 9 l-79 -6l-54 11l-34 26z" />
<glyph unicode="Q" d="M105 625l8 -88l-3 -19l23 -97l34 -84l8 -34l63 -136l118 -122l54 -25l62 -56l28 -91l46 -76l39 -39l57 -26l34 -6l25 15l11 28l-8 31l-40 42l-25 54l-9 42l3 26l14 23l113 87l97 101l31 51l59 142l42 234l6 85l-37 232l-42 119l-65 93l-57 62l-127 74l-96 22h-42l-68 -11 l-136 -62l-96 -105l-25 -54l-17 -22l-34 -85l-17 -25l-28 -130zM238 583l22 240l14 39l9 43l51 110l73 85l31 20l88 22l96 -8l37 -17l31 -23l76 -82l17 -37l76 -243v-144l6 -37l-25 -79l-9 -45l-17 -37l-11 -39l-57 -102l-22 -31l-60 -45l-22 -6l-20 6l-31 22l-40 68l-25 28 l-34 17l-31 3l-40 -34l-19 -34l-15 -8l-22 5l-28 26l-23 28l-51 110l-20 114l6 19z" />
<glyph unicode="R" d="M119 294l14 -152l20 -68l25 -20l31 -11l34 14l20 22l14 31v249l-5 37l2 42l15 74l62 25l76 12l40 -3l70 -17l31 -14l23 -20l130 -223l23 -23l62 -113l37 -51l22 -23l57 -31l36 9l23 34l-3 31l-37 93l-135 221l-37 96l3 39l17 26l104 116l29 59l19 68l9 93l-17 105l-28 59 l-60 71l-79 56l-102 29l-203 19q-22 -5 -37 -5l-130 3l-76 -12l-26 -17l-22 -25l-26 -62l-11 -122l3 -124l6 -43l-15 -150l6 -127l-8 -79l14 -76l-3 -40l-11 -34zM277 877l17 172l26 37l36 25l51 14l113 -5l29 5l130 -22l42 -20l62 -62l23 -40l11 -90l-37 -111l-28 -36 l-79 -46l-51 -14h-110l-57 9h-118l-34 28l-20 45z" />
<glyph unicode="S" d="M188 218l12 -43l107 -107l65 -40l40 -17l93 -22l90 6l125 33l34 20l76 85l42 62l29 79l11 51l-11 88l-20 34l-31 76l-23 31l-116 96l-155 60l-43 8l-39 14l-65 43l-20 31l-28 79v88l17 36l76 85l34 17l45 3l9 6h39l79 -26l65 -42l57 -51l51 -23l25 9l23 39l-9 37l-34 71 l-53 53l-68 40l-173 42l-118 -39l-125 -88l-48 -59l-25 -82l-9 -85l32 -130l16 -37l46 -59l31 -25l302 -125l62 -42l29 -26l19 -34l26 -79l-11 -96l-15 -37l-53 -53l-31 -23l-37 -14l-93 -14l-91 8l-37 17l-31 23l-76 85l-31 19l-23 9l-22 -3l-29 -23q-12 -17 -14 -39z" />
<glyph unicode="T" d="M124 1176l14 -28l42 -28l57 -14l127 -6l56 -11l37 -34l17 -51l6 -187l-6 -62l11 -34l-14 -82l20 -187l-6 -31l3 -31l-8 -53l5 -139l-5 -48l5 -65q9 -26 26 -45l51 -17l42 28l14 57l-3 11l6 297l6 31l-6 28l-6 506l9 59l22 46q24 18 49 22l195 9l56 11q22 18 31 40 q-6 26 -22 42q-26 12 -51 14l-128 20l-16 -6l-43 6l-59 -8l-85 8l-223 -3l-62 6l-122 -17q-26 -14 -37 -34z" />
<glyph unicode="U" d="M156 947l9 -294l-6 -79l14 -71l-14 -198l48 -147l37 -65l31 -22l102 -51l56 -20l23 3l48 -11l88 -5l87 13l37 14l68 37l54 48l45 59l17 34l28 102l3 65l-9 116l14 74l-8 271l17 164l-11 164l-23 31l-37 28l-28 -8l-20 -31l-8 -40v-96l-14 -195l8 -158l-14 -351l-17 -82 l-71 -85l-73 -28l-85 -17l-48 3l-37 14l-42 9l-31 19l-76 77l-20 79l-9 93l9 229l-14 141l19 147l-8 68l6 57l-23 121l-17 34l-37 17l-28 -22l-17 -34l-14 -48v-130z" />
<glyph unicode="V" d="M202 1148l3 -40l23 -104l14 -29l6 -33l90 -311l-3 -9l26 -59l45 -207l23 -65v-34l48 -161l14 -28l42 -42l28 -15l31 12l23 17l28 56l88 373l14 29l45 206l34 93l3 40l59 235l12 28v73l-14 29l-32 11l-28 -14l-20 -23l-8 -34l-37 -62l6 -20l-3 -34l-11 -31l-6 -36l-25 -60 l-26 -99l-3 -39l-31 -54l-36 -127l-3 -34l-26 -60l-19 -22l-29 5l-45 82l-110 391l-6 39l-85 206l-19 26l-31 11l-23 -17l-17 -28z" />
<glyph unicode="W" d="M134 1018l28 -153l-3 -42l20 -96l-3 -54l31 -144l34 -317v-48l6 -22l-6 -32l6 -39l19 -40l43 -28l39 6l34 25l31 85l68 280l20 37l-8 16l17 74l19 40l14 11l26 -6l23 -34l8 -22l-8 -43l16 -17l85 -322l9 -48l20 -37l25 -34l17 -8l31 3l37 22l14 43l68 523l-6 39l59 453 l-2 42l-23 37l-25 3l-23 -9l-20 -40l-62 -342l3 -8l-20 -144l-14 -43q-12 -17 -28 -28l-31 26l-34 82l-80 268l-28 42l-37 -8l-33 -25l-54 -122l-14 -42l-9 -51l-20 -54l-2 -40l-15 -42l-22 -37l-14 -8l-20 11l-14 45l-62 447l-46 130l-42 17q-16 -16 -25 -31l-15 -43l3 -50 z" />
<glyph unicode="X" d="M133 110l8 -45l20 -34l17 -8l23 3l31 22l93 119l57 99l50 56l40 65l25 26l20 34l37 14l34 -17l28 -23l71 -87l96 -167l96 -116l31 -20l23 -5l14 11l20 34l-26 82l-37 68l-48 56l-19 31l-15 40l-48 59l-76 130l-31 74l-11 42l5 45l260 424l12 43l-17 37l-43 11l-28 -23 l-73 -84l-63 -97l-50 -53l-37 -68l-26 -26l-45 -22l-31 5l-28 23l-40 68l-70 85l-17 36l-46 60l-19 34l-37 17q-22 6 -26 25l-16 9l-23 -6q-17 -16 -20 -34l11 -42l37 -68l14 -40l23 -31l34 -71l99 -161l25 -28l17 -34l6 -48l-12 -40l-50 -107l-136 -178l-31 -74l-45 -59z " />
<glyph unicode="Y" d="M159 1128l5 -31l292 -435l39 -113v-71l-6 -54l6 -22l-11 -54l11 -65v-141l-6 -34l15 -63l34 -42l28 -11l25 14l14 22l26 280l-12 215l-5 31l25 51l77 113l11 28l169 252l34 79l12 65l-12 29l-25 14l-31 -6l-23 -17l-34 -42l-59 -96l-34 -43l-11 -25l-108 -159l-22 -17 l-26 -11l-34 6l-19 17l-187 311l-73 76l-31 11l-29 -8l-20 -20z" />
<glyph unicode="Z" d="M146 51l14 -37l34 -16l40 -11l234 -17l48 -12l173 17l53 -8l173 17l31 19l8 37l-22 28l-43 25l-31 -2l-56 8l-173 9l-42 -6l-144 8l-40 9l-25 25l-3 46l76 124l23 28l82 167l42 59l14 37l144 207l14 36l43 60l17 31l45 56l48 102l6 40l-23 28l-34 17l-39 11h-43l-51 -14 l-82 17l-370 14l-70 -28l-26 -26l9 -39l28 -20l104 -20l162 12l90 -9l40 -11l48 -3l39 -9l17 -33l-88 -164l-22 -26l-20 -31l-14 -37l-40 -59l-31 -68l-45 -56l-17 -34l-42 -57l-26 -25l-226 -376z" />
<glyph unicode="[" d="M155 488l2 -91l9 -42l-6 -68l9 -79l-9 -62l9 -54l-3 -22l11 -293l14 -40l34 -19l45 -15h99l9 6l68 -11l48 5l56 -8h282l74 14l37 28l2 40l-25 28l-88 17l-8 -3l-45 9l-322 -17l-54 11h-42l-34 20l-20 31l-8 22l-9 214l12 105v37l-12 39l3 51l-8 45l5 45l-5 48l11 96 l-6 12l6 39l-11 271l-15 93l9 79l-6 99l17 88l34 33l172 15l88 17l240 -6l42 14l31 20l-17 39l-36 14l-342 -5l-88 8q-17 -3 -144 -5l-70 -37l-23 -31l-17 -37l6 -48l-3 -152l9 -144l-6 -48l6 -184l-9 -53v-139z" />
<glyph unicode="\" d="M138 1399l699 -1561l125 60l-701 1560z" />
<glyph unicode="]" d="M168 -277l8 -28l32 -23l39 -11l59 -6l517 6l43 11l31 23l22 28l14 40l-5 423l5 48l-17 542l6 45l-20 158l12 85l-9 84l-8 17l3 23l-12 93l-11 42l-20 34l-31 20l-90 14l-45 -3l-294 9l-139 -20l-39 -11l-37 -43l3 -25l28 -25l45 -20l29 5l101 3l12 6l84 3l31 5l74 -8 l79 8l82 -25l42 -59l17 -48l6 -384l-9 -40v-169l-8 -54l8 -84l-3 -9l9 -34l-6 -144l-11 -62l14 -287l-6 -31l-14 -37l-31 -23l-42 -8l-421 -6l-48 -5l-39 -12l-34 -20zM662 -364l6 -9q-2 6 -6 9z" />
<glyph unicode="^" d="M126 891l104 -82l320 365l319 -365l105 82l-424 485z" />
<glyph unicode="_" d="M-13 -452l6 -44l25 -19l28 -14l40 -6l88 6l67 -9l206 11l46 -5l36 8h288l39 -5l141 -3l62 14l29 14l25 34l-8 32l-23 20l-31 14l-249 -3l-73 12h-273l-54 -9l-180 20h-46l-76 -11l-39 3l-34 -12l-26 -19z" />
<glyph unicode="`" d="M363 1348l290 -263l84 95l-290 262z" />
<glyph unicode="a" d="M168 257l14 -93l17 -51l28 -42l37 -37l39 -28l51 -22l57 -14l260 5l82 25l87 -16q31 3 51 19l25 57l-2 56l11 124l6 12l-6 48v79l8 59l-2 122l-9 62l-20 54l-39 28l-20 54l-37 34l-45 25l-51 20l-65 14l-116 11l-172 -39l-48 -23l-43 -28l-22 -48q11 -26 31 -43 q26 -12 56 -14l116 26l51 20l65 14l48 -3l57 -14l39 -31l14 -17v-31l9 -29l-42 -22l-159 -12l-164 -48l-48 -22l-76 -65l-54 -88zM320 232l9 71l22 31l26 25l31 20l161 45l90 9l79 -23l26 -23l17 -48l-3 -87l-9 -43l-14 -39l-25 -23l-105 -54l-87 -14l-91 9l-36 11l-34 17 l-26 28z" />
<glyph unicode="b" d="M186 817l20 -39l-3 -362l6 -60l-6 -11v-48l-8 -25l8 -85l-3 -57l31 -99l37 -28l51 -14l59 3l184 -25l90 17l46 19l73 57l85 107l48 144l11 119l-5 54l-43 149l-42 85l-60 71l-76 54l-93 34l-51 8l-62 -3l-59 6l-46 17l-31 70l6 74l-23 107l-22 43q-23 16 -48 17l-32 -31 l-22 -46l-17 -96l6 -19l5 -94zM350 532l6 19l-3 32l20 82l31 39l36 34l54 17q38 -1 57 -6l56 -14l48 -20l34 -36q19 -21 28 -40l23 -48l31 -105l11 -124l-8 -59l-85 -122l-34 -34l-45 -25l-54 -17h-67l-57 14l-37 31l-25 42l-6 17l-8 167l5 31l-5 29l5 28z" />
<glyph unicode="c" d="M143 441l6 -76l25 -99l60 -105l19 -19l26 -17l37 -43l118 -87l133 -31l187 17l84 39l23 17l76 88v36l-14 26l-34 20l-28 -3l-96 -65l-54 -29l-62 -22l-73 5l-94 29l-79 45l-56 62l-12 31l-19 23l-17 62l2 144l17 65l48 74l88 76l51 31l37 6l34 -6l42 9l65 -6l113 -48 l48 -37l25 -14l32 -8l31 11l19 23l6 31l-11 28l-93 71l-88 36l-34 6l-23 11l-70 14l-31 -8l-46 6l-90 -17l-28 -15l-91 -28l-28 -14l-42 -40l-54 -70l-11 -28l-63 -102v-34z" />
<glyph unicode="d" d="M187 407l14 -73l-3 -34l34 -93l71 -125l31 -31l40 -28l87 -39l102 -26l167 26l59 -6l59 6l37 27l14 63l3 45l-11 178l11 79l-3 31l6 29l-6 25l-2 59l14 122l-6 56l8 190l-8 25l-3 29l9 53l-6 29l3 48l-11 67l-29 37q-26 14 -51 14l-31 -34l-17 -45v-59l-5 -23l5 -54 l-11 -28l-11 -54l-12 -16l-118 14l-136 -20l-121 -71l-32 -31l-56 -73l-65 -128l-6 -28l6 -25l-20 -60v-48zM351 390l6 116l31 102l56 79l37 34l48 20l59 11q37 -2 57 -8l48 -23l40 -28l31 -40l-9 -311l9 -28l-6 -90l-23 -46q-16 -24 -34 -34l-39 -31l-68 -11l-37 6l-8 -6 l-54 14l-42 28l-68 71l-9 51l-16 54z" />
<glyph unicode="e" d="M136 410l6 -65l45 -116l37 -42l62 -99l39 -37l136 -64l68 -12h116l90 25l23 17l28 9l25 14l65 53l49 74l5 34l-3 31l-22 20l-34 -6l-105 -96l-82 -37l-65 -14h-39l-96 23l-29 11l-90 71l-48 70l-9 31l6 32l20 19l62 20l280 17l34 -6l183 9l26 14l22 20l15 25l8 71l-11 68 l-12 28l-36 45h-23l-3 14l6 29l-11 28l-57 62l-22 17l-85 37l-31 8l-170 15q-16 -8 -28 -12l-68 -11l-54 -26l-22 -16l-29 -12l-138 -181l-14 -28l-14 -65zM325 571l9 40l20 28l51 45l90 54l37 14l82 -3l39 -8l65 -31l48 -48l54 -102l-3 -31l-28 -20l-48 -11l-76 8l-43 -5 l-130 14l-37 11l-73 6l-40 8z" />
<glyph unicode="f" d="M252 752q9 -26 25 -39l99 -34l37 -29l11 -53l8 -12l3 -79l-8 -20l8 -17l3 -101l-8 -57l-6 -8v-99l-6 -60l3 -59q2 -27 14 -45l26 -40l48 -16q26 5 42 19l28 130l-8 348l11 45v37l9 56q9 25 25 40l48 17l110 20l40 25q21 12 34 34q-7 24 -26 40l-50 14h-60l-54 11 q-24 7 -39 25l-28 37l-6 60l14 50l23 43l28 37l37 28l48 17l28 37q-2 27 -17 45q-26 14 -54 14q-30 -10 -53 -11l-94 -37l-62 -68l-22 -42l-31 -156l-17 -48l-43 -23l-51 -14l-45 -19z" />
<glyph unicode="g" d="M160 376l11 -65l26 -65l62 -116l20 -28l73 -59l85 -51l34 -11l130 -17l102 20l42 3l34 -12l11 -31v-79l-17 -68l-17 -28l-25 -20l-88 -45l-45 -11l-25 5l-80 6l-104 28l-113 68l-43 14l-31 -3l-20 -25l6 -40l43 -51l48 -39l104 -31l62 -29l74 -14l116 9l65 25l36 9l54 34 l48 45l37 51l31 104l11 79l3 441l-3 40l23 197l-6 122l-8 40l-14 28l-26 20l-68 8l-53 -6l-40 6l-65 26l-167 -6l-31 -14l-39 -6l-34 -11l-26 -20l-31 -14l-45 -43l-20 -28l-22 -20l-20 -25l-14 -31l-40 -139l-11 -76v-51zM296 441l19 88l77 107l22 14l14 23l20 17l45 25 l31 6l29 11l68 -2l59 -15l48 -22l42 -34l23 -48l8 -34l-5 -59l11 -88l-14 -144l8 -62l-8 -29l-37 -37l-90 -53l-28 -9l-71 -3l-116 29l-65 45l-54 57l-17 56z" />
<glyph unicode="h" d="M208 891l6 -269l-3 -93l11 -342l-8 -77l20 -101l22 -22l34 -9l31 11l17 25l9 37v150l5 39l6 238l9 34l5 79l14 25l20 23l28 17l20 23l57 25l45 9l62 -12l57 -28l22 -20l37 -93l17 -76l-6 -63l6 -121l-11 -74l11 -31l14 -113l-6 -37l9 -36l20 -22l34 -20l28 3l22 19l15 39 l5 410l-22 161l-26 60l-54 73l-42 43l-76 51l-150 19l-76 -8l-34 3l-31 11l-20 23l-6 116l-14 70l-3 40l-11 31l-20 23l-39 5l-23 -20l-17 -25l-11 -31l-6 -37v-42l6 -40z" />
<glyph unicode="i" d="M446 1077l14 -37l25 -28l37 -20l28 -5l51 14l48 56l6 32l-17 48l-23 31l-42 22h-40l-36 -14l-29 -25q-16 -12 -17 -34zM474 461l14 -401l23 -43q20 -19 48 -22l42 22l14 54l14 365l-11 90v153l6 56l-6 60l-25 39q-21 18 -45 26q-25 -8 -46 -23l-17 -48l-5 -31v-119 l-6 -42l6 -113z" />
<glyph unicode="j" d="M242 -177l11 -54l20 -51l60 -74l36 -28l111 -37l50 3l54 14l43 23l50 17l40 28l57 77l22 42l11 90l-2 32l11 56l-3 118l-11 54l8 274l-8 29l11 268l-8 48l2 43l-16 48l-23 19h-28q-21 -14 -37 -28l-20 -54v-243l-8 -59l11 -91l-3 -28l-6 -11l6 -105l-11 -118l5 -29 l-8 -217l-11 -56l-23 -43l-73 -59l-29 -6l-28 3l-90 42l-32 37l-45 88l-45 17q-25 -9 -42 -26zM641 1106q2 -30 11 -46l20 -36l73 -37l37 8l37 23l25 28l14 43l-2 42l-20 37l-34 22l-40 17l-85 -25l-25 -31z" />
<glyph unicode="k" d="M191 291l11 -87l-6 -74l9 -37v-36l17 -31l22 -23l43 -3l25 17l17 31l11 110l-5 34v46l8 36l29 60l42 48l31 11l40 -6l51 -39l107 -113l28 -17l20 -26l11 -34l23 -19l79 -102l28 -17l34 -11l31 14l12 28l-9 37l-266 362l-25 62l9 34l39 51l26 17l42 51l48 39l40 48l17 28 l-3 37l-23 23l-39 8l-54 -36l-28 -15l-43 -45l-181 -136l-65 -33l-28 5l-17 26l-26 322l9 79l-20 113l-11 37l-23 22l-34 12l-25 -17l-17 -74l6 -39l-9 -37l-8 -82l11 -54l-9 -104l6 -51z" />
<glyph unicode="l" d="M467 280l14 -155l20 -71l14 -34l23 -22l34 -9l31 14l17 28l11 48l-2 201l5 37l-8 37l5 299l-5 40l3 42l-15 91l3 67l12 37l-6 40l3 39l-12 46l3 31l-17 76l-22 23l-40 8l-25 -20l-17 -28l-12 -121l3 -43l-11 -82v-45l8 -37v-76l-11 -153l8 -82l-8 -90l6 -85z" />
<glyph unicode="m" d="M104 156l8 -99l17 -37l31 -22l46 8l25 28l11 65l-14 71l17 102v36l11 94l-8 53l11 71l-3 11l12 43l65 93l28 25l40 15l36 -15l43 -118l5 -393l-2 -48l8 -46l14 -39l23 -31l25 -12l45 26l23 59l-8 71l8 45l-6 48l15 246l36 122l23 31l17 34l28 25l23 9h22l43 -9l22 -34 l29 -138l-17 -187l8 -25l-3 -68l6 -48l-8 -45l5 -96l17 -37l31 -23l31 -3l14 9l23 28l14 93v297l-8 71l11 79l-6 37v42l-11 43l-37 67l-53 54l-34 20l-54 11h-42l-46 -8l-39 -14l-31 -20l-54 -17l-31 6l-28 25l-34 20l-51 14h-96l-88 -28l-37 5l-39 14l-43 -11l-31 -37v-39 l-8 -45l5 -32l-5 -31l8 -130l-5 -62l5 -235z" />
<glyph unicode="n" d="M207 469l11 -53v-45l-5 -32l11 -99l-9 -39l6 -93l-3 -34l9 -31l14 -26l20 -17l34 -5l22 14l20 19l14 26l9 39l-6 60l8 62l-16 288l14 91l31 45l45 31l54 20l48 31l31 6h37l31 -6l51 -28l20 -17l36 -77l6 -110l6 -34l-6 -96l3 -8l-14 -139l11 -37l-6 -56l3 -34l20 -57 l14 -22l23 -17l36 -2l23 13l17 23l9 42v96l5 6l-5 23v424l-32 82l-62 90l-68 48l-56 20l-34 6l-74 2l-186 -42l-51 25l-29 9l-36 -3l-26 -11l-17 -23l-8 -68v-110l8 -68z" />
<glyph unicode="o" d="M103 424l9 -104l51 -122l107 -119l68 -48l161 -64l110 5l94 20l42 17l71 39l59 57l79 150l43 127l-6 152l-11 46l-57 116l-54 59l-36 20l-62 51l-37 22l-91 34l-147 -3l-20 3l-28 -5l-121 -51l-97 -74l-53 -59l-48 -125zM242 424l8 34l-3 37l6 37l23 56l19 23l32 51 l67 56l29 12l68 14l28 11l76 8l31 -5l63 -20l115 -90l51 -114l9 -31l8 -110l-5 -34l-34 -87l-34 -51l-88 -74l-85 -39l-65 -15l-76 9l-108 56l-45 37l-34 45l-25 57z" />
<glyph unicode="p" d="M198 -70l5 -85l-5 -25l17 -96l-3 -12q3 -23 17 -39l42 -23q28 8 40 26l20 42l8 57v113l14 48l31 31l29 5l28 -2l167 22l45 17l79 48l34 31l54 70l45 82l34 128l3 87l-9 57l-17 45l-8 54l-20 45q-12 21 -14 42l-82 111l-34 28l-40 23l-99 28l-59 5l-11 -2h-48l-51 -14 l-85 -9l-25 6l-57 -6l-28 -37l-14 -48l17 -463l-9 -54l6 -57l-12 -62l9 -42zM331 419l11 101l-6 20l9 68l-3 57q8 33 20 50l36 31l122 23q38 -5 57 -11l48 -23l79 -59l42 -99l23 -88l3 -90l-12 -60l-25 -45l-14 -56l-29 -40l-36 -37l-46 -25l-113 -26q-26 2 -53 12l-48 20 l-37 33l-17 54z" />
<glyph unicode="q" d="M171 399l45 -201l54 -76l108 -88l132 -59l94 -5l82 14l56 3l48 -15l17 -48l6 -59l-6 -28l9 -57v-87q9 -26 25 -43h34l11 14l17 48l6 187l20 124l-9 135l9 88l-3 478l-23 107l-36 29l-29 5l-53 -8l-139 25l-119 6l-53 -11l-91 -37l-39 -26l-97 -99l-42 -84l-17 -48l-8 -57 v-93zM304 419l3 70l22 88l51 99l82 65l94 20h67l82 -31l63 -49l36 -76l3 -68l-8 -31l8 -113l-11 -127l-14 -57l-71 -79l-48 -28h-130l-79 20l-26 11l-39 37l-45 65l-29 82z" />
<glyph unicode="r" d="M201 158l8 -45l31 -76l37 -17l40 14l22 31l17 91l-6 254l-5 23l5 31l-5 37v45l11 45l20 34l116 96l37 17l101 31l116 -17l91 -25l39 5l23 31l-9 46l-28 25l-34 20l-79 28l-93 9l-45 -9h-46l-45 -11l-37 -17l-87 -28l-37 2l-71 37l-42 -8l-23 -31l-14 -48v-43l6 -22 l-14 -167l5 -48l-3 -99l9 -43l-3 -152z" />
<glyph unicode="s" d="M198 110l9 -36l17 -26l28 -17l164 -53l8 3l102 -17h45l108 14l116 56l45 43l54 121l8 45l-22 99l-34 54l-23 23l-116 56l-268 37l-32 14l-39 48l-11 40v19l19 37l23 23l51 37l31 11l37 5l121 -11l147 -37l31 3l26 20l5 31l-14 31l-22 20l-161 59l-80 9q-17 -6 -34 -9 l-79 -2l-138 -37l-28 -17l-40 -45l-45 -88l-6 -37l14 -73l26 -62l39 -49l48 -39l31 -11l29 -17l51 -14l19 2l159 -17l101 -25l43 -48l14 -28l8 -34l-11 -31l-45 -46l-26 -14l-110 -22l-39 2l-46 -11l-178 28l-39 15l-68 -9z" />
<glyph unicode="t" d="M159 803l14 -20l45 -20l57 -8l48 -17h62l51 -8q21 -11 34 -29l14 -20l3 -93l-12 -119l9 -87l-9 -201l17 -110l31 -34l51 -17l37 28l9 51l-6 57l11 144l-5 34l8 347l26 40l22 17l79 6l63 14l45 -6l51 14q21 16 28 37l-23 42l-51 15h-118l-57 8l-45 17l-23 54l-3 45l6 28 l-8 23l2 59l-11 57l-22 39q-24 18 -49 20q-19 -16 -31 -34l-17 -48l-14 -82l9 -56l-17 -77l-37 -28l-54 -11l-175 -17q-25 -11 -40 -26z" />
<glyph unicode="u" d="M216 368l9 -130l20 -94l22 -51l96 -90l48 -28l40 -8l54 8l31 -5l195 28l31 -6l23 -14l36 -3l26 12l22 30l-2 20l8 59l-6 289l15 133l-6 200l-14 62l-14 23l-20 17l-31 3l-26 -11l-20 -17l-14 -63l6 -212l-9 -28l6 -201l-8 -65l-31 -42l-68 -45l-111 -40h-31l-56 17 l-37 37l-25 48l-12 62l-5 201l5 34l-8 65l5 164l-5 31l-23 54l-20 16l-33 6l-26 -11l-17 -20l-11 -25l-6 -34l6 -337z" />
<glyph unicode="v" d="M176 780l14 -56l161 -382l31 -104l25 -43l14 -53l40 -99l31 -37l51 -17l54 17l25 42l74 198l50 85l164 382l14 93l-8 20q-17 20 -42 28l-46 -23l-76 -127l-20 -51l-25 -42l-37 -99l-93 -181q-12 -24 -34 -31q-25 9 -37 31l-198 483l-33 34q-26 17 -54 17q-26 -17 -37 -31 z" />
<glyph unicode="w" d="M156 809l3 -65l11 -31l59 -342l11 -29l37 -206l31 -91l17 -22l48 -17l14 3l26 14l17 22l45 119l14 26l14 65l14 28l20 20l23 -12l34 -48l11 -68l62 -138l48 -31l26 -3l53 42l12 29l8 107l85 396l14 25l17 71v28l14 54l-17 76l-34 17l-22 -3l-26 -14l-54 -150l-14 -65 l-11 -28l-20 -102l-14 -25l-8 -6l-23 3l-17 23l-39 124l-26 54l-34 48l-25 14l-31 -8l-23 -20l-90 -192l-29 -12l-19 17l-77 246l-5 37l-26 54l-28 14l-37 5l-20 -19z" />
<glyph unicode="x" d="M136 48l3 -28l20 -22l37 -9l34 11l50 34l23 23l51 79l85 90l25 17l20 23l65 34l25 -6l31 -14l108 -107l28 -17l59 -71l46 -42l53 -34h31l29 17l5 39l-37 48l-48 43l-11 28l-161 189l-28 68l5 28l15 29l39 48l45 39l128 136l28 57l-6 34l-34 22l-31 -3l-51 -36l-175 -170 l-31 -14l-17 -28l-25 -17h-37l-28 14l-102 116l-34 50l-102 74l-65 25q-15 -8 -25 -17l-11 -33l11 -32l20 -25l22 -20l94 -124l48 -40l73 -99v-36l-11 -32l-60 -73l-25 -17l-14 -28l-51 -37l-122 -141z" />
<glyph unicode="y" d="M183 795l3 -29l11 -31l6 -34l17 -25l19 -62l63 -102l81 -207l20 -19l77 -173l8 -31l3 -39l-6 -34l-34 -90l-5 -34l-71 -178v-37l11 -28l29 -14l31 5l22 20l17 23l11 31l17 22l68 181l14 26l6 36l14 28l20 60l17 25l119 334l31 53l104 266l11 48l-2 20l-14 28l-29 11 l-31 -11l-42 -42l-45 -116l-31 -51l-32 -96l-42 -79l-23 -99l-33 -51l-26 -14l-34 8l-31 48l-223 478l-23 20l-34 8l-22 -17z" />
<glyph unicode="z" d="M200 43l17 -23l57 -20l39 -8l99 6l34 -6l29 8l288 -8l71 8l28 9l25 14l14 25l-11 29l-17 19l-28 12l-34 5l-249 3l-68 9l-28 8l-17 20l17 59l28 48l379 470l20 56l-31 48l-60 17l-70 6l-71 -9l-206 6l-79 -9l-26 3l-65 -11l-25 -14l-6 -28l11 -26l23 -17l40 -8h212 l84 -29l23 -17l3 -8l-14 -48l-419 -546l-14 -22z" />
<glyph unicode="{" d="M324 459h53q99 0 99 -121v-367q0 -104 59 -178q65 -80 166 -80h76l-2 137h-74q-96 0 -96 123v367q0 125 -80 190q80 63 80 193v369q0 118 96 118h74v140h-72q-108 0 -170 -77q-57 -71 -57 -181v-369q0 -49 -25 -83q-28 -40 -74 -40h-53v-141z" />
<glyph unicode="|" d="M475 -164l8 -37l17 -31l29 -17l42 -5l23 22l17 43l5 161l-8 70l5 57l-2 8l11 60l-2 12l1 2l1 55l3 10l-2 5l3 91l-8 70l5 57l-2 8l11 60l-6 42l9 37l-12 34l-5 38l4 126l-1 2l11 368l-14 79l-43 51l-39 9l-31 -14l-17 -32l6 -73v-122l-5 -99l5 -87l-10 -62v-122l-5 -99 l19 -321l1 -12l-12 -79l-3 -201z" />
<glyph unicode="}" d="M324 -287h76q103 0 166 79q59 74 59 179v367q0 48 25 82q27 39 74 39h53v141h-53q-99 0 -99 123v369q0 111 -58 181q-62 77 -169 77h-72v-140h74q96 0 96 -118v-369q0 -128 80 -193q-80 -69 -80 -190v-367q0 -123 -96 -123h-74z" />
<glyph unicode="~" d="M73 612l102 -67q30 49 51 73q66 72 136 72q29 0 171 -106q143 -105 209 -105q102 0 203 94q33 30 82 93l-102 73q-35 -42 -60 -67q-71 -68 -127 -68q-18 0 -163 105q-145 106 -216 106q-93 0 -200 -102q-42 -42 -86 -101z" />
<glyph unicode="&#xa0;" />
<glyph unicode="&#xa1;" d="M407 1105l17 57l43 68l16 17l29 8l34 3l59 -11l25 -12l34 -39l29 -79l-15 -54l-11 -25l-37 -37l-45 -25l-62 -6l-23 14l-59 48l-31 42zM430 179l42 175l-3 74l12 51v132l5 57l-8 39l14 96l8 29l15 19l19 17h34l23 -14l28 -42l11 -26l3 -56l-5 -40v-200l22 -158l28 -79 l9 -65l-3 -71l-6 -31l-31 -42l-19 -17l-51 -20l-34 -5l-51 19l-20 17l-25 48l-14 57z" />
<glyph unicode="&#xa2;" d="M143 441l6 -76l25 -99l60 -105l19 -19l26 -17l37 -43l21 -16l-65 -143l-6 -42l6 -8l51 -17l50 8l32 34l16 43l14 48l2 5l130 -30l187 17l84 39l23 17l76 88v36l-14 26l-34 20l-28 -3l-96 -65l-54 -29l-62 -22l-73 5l-79 24l198 409l51 82l34 88l16 -6l48 -37l25 -14 l32 -8l31 11l19 23l6 31l-11 28l-93 71l-31 12l51 131v48l-9 14l-42 3l-40 -25l-28 -40l-46 -90l-70 14l-31 -8l-46 6l-90 -17l-28 -15l-91 -28l-28 -14l-42 -40l-54 -70l-11 -28l-63 -102v-34zM299 345l2 144l17 65l48 74l88 76l51 31l37 6l34 -6l42 9l45 -4l-36 -56 l-107 -226l-28 -37l-74 -192l-25 -39l-4 -8l-42 47l-12 31l-19 23z" />
<glyph unicode="&#xa3;" d="M118 752q9 -26 25 -39l119 -34l37 -29l11 -53l8 -12l3 -79l-8 -20l8 -17l3 -101l-8 -57l-6 -8v-99l-6 -60l-52 -4l-33 -3l-48 -17l-20 -45l-6 -29l14 -17q19 -21 40 -26l28 -16l153 2l15 -5q10 1 19 6h44l68 8l330 -8l28 5l42 20l28 52l-23 37q-21 18 -40 22l-62 15 l-364 2l-8 338l11 45v37l9 56q9 25 25 40l48 17l155 8l40 25q21 12 34 34q-7 24 -26 40l-50 14h-60l-99 23q-24 7 -39 25l-28 37l-6 60l14 50l23 43l70 38l144 -7l185 -32l28 5l37 9l28 52l-34 41q-4 21 -59 28l-116 24l-215 22l-33 -3l-48 -17l-3 -6l-61 -24l-62 -68 l-22 -42l-31 -156l-17 -48l-43 -23l-71 -14l-45 -19z" />
<glyph unicode="&#xa5;" d="M159 1128l5 -31l292 -435l39 -113v-8l-220 4l-33 -3l-48 -17l-20 -45l-6 6l14 -28q19 -21 40 -26l116 -22l154 2l3 -10l-11 -54l8 -50l-217 3l-33 -3l-48 -17l-20 -45l-6 6l14 -28q19 -21 40 -26l116 -22l157 2v-26l-6 -34l15 -63l34 -42l28 -11l25 14l14 22l13 147l19 2 l198 -8l28 5l42 20l17 29l-8 33q-21 18 -40 22l-62 15l-182 3l1 12l-6 111l12 2l198 -8l28 5l42 20l17 29l-8 33q-21 18 -40 22l-62 15l-196 3l-2 14l25 51l77 113l11 28l169 252l34 79l12 65l-12 29l-25 14l-31 -6l-23 -17l-34 -42l-59 -96l-34 -43l-11 -25l-108 -159 l-22 -17l-26 -11l-34 6l-19 17l-187 311l-73 76l-31 11l-29 -8l-20 -20z" />
<glyph unicode="&#xa6;" horiz-adv-x="1024" />
<glyph unicode="&#xa7;" d="M234 755l14 -62l15 -34l138 -173l51 -39l167 -235l11 -31l-9 -37l-16 -25l-34 -14l-37 5l-54 82l-25 17l-34 12l-43 -3l-56 -31l-20 -26l-8 -39l2 -37l40 -51l51 -36l96 -40l119 3l36 9l57 30l48 43l42 93l-19 158l14 28l42 49l45 90v37l-17 73l-31 60l-25 19l-274 306 l-34 53l-20 71l11 34l20 23l40 5l39 -5l26 -20l62 -68l37 -11l36 5l31 17l20 37l-3 31l-31 57l-19 25l-29 17l-62 26l-85 8l-31 -11l-31 -17l-68 -20l-48 -42l-31 -57l-11 -68l11 -42l3 -43l-17 -28l-45 -45l-43 -91zM373 752l14 34l20 31l36 14l37 -11l34 -17l206 -237 l20 -32l9 -39l-12 -37l-22 -28l-37 -11l-37 8l-53 45l-119 130l-28 20l-43 57l-17 31z" />
<glyph unicode="&#xab;" d="M49 434l448 -410q26 -23 44 -23q42 0 42 42q0 16 -23 42l-313 349l313 350q23 26 23 41q0 43 -42 43q-19 0 -44 -24zM518 434l448 -410q26 -23 44 -23q42 0 42 42q0 17 -22 42l-313 349l313 350q22 25 22 41q0 43 -42 43q-18 0 -44 -24z" />
<glyph unicode="&#xad;" d="M168 550l14 -28q19 -21 40 -26l116 -22l231 3l68 8l198 -8l28 5l42 20l28 52l-19 45q-21 18 -40 22l-62 15l-537 8l-33 -3l-48 -17l-20 -45z" />
<glyph unicode="&#xb1;" d="M148 771l2 -28l26 -28l59 -23l28 3l147 -17l37 -20l22 -33v-54l12 -93l-6 -105l11 -45l23 -31l17 -11l28 3l31 22l26 31l11 57v36l14 96l-3 54l9 48l20 34l42 11l48 20l39 -6l65 9h37l37 17l22 36l-11 43l-37 20l-203 17l-37 19l-25 29l-14 42l-6 48l9 48l-17 87l-3 54 l-26 31q-19 12 -42 14l-31 -22l-20 -48v-88l-5 -51l5 -48l-8 -48l-17 -39l-31 -23l-96 -22l-99 2l-45 -11zM174 126l14 -28q19 -21 40 -26l116 -22l231 3l68 8l198 -8l28 5l42 20l28 52l-19 45q-21 18 -40 22l-62 15l-537 8l-33 -3l-48 -17l-20 -45z" />
<glyph unicode="&#xb4;" d="M347 1041l9 -22q15 -21 34 -28l8 -3l42 8l40 20l62 59l37 23l101 138l20 39l20 74l-14 73l-17 45l-26 34l-36 23l-48 11h-62l-40 -20l-34 -28l-22 -37l-15 -56l6 -43l14 -48l23 -47l-9 -40l-19 -39l-54 -68l-17 -42z" />
<glyph unicode="&#xb5;" d="M209 -155l9 -164l8 -37l17 -31l29 -17l42 -5l23 22l17 43l5 161l-8 70l5 57l-2 8l9 51l48 -28l40 -8l54 8l31 -5l195 28l31 -6l23 -14l36 -3l26 12l22 30l-2 20l8 59l-6 289l15 133l-6 200l-14 62l-14 23l-20 17l-31 3l-26 -11l-20 -17l-14 -63l6 -212l-9 -28l6 -201 l-8 -65l-31 -42l-68 -45l-111 -40h-31l-56 17l-37 37l-25 48l-12 62l-5 171l2 43l3 21l-2 17l4 144l-6 34l1 34l-5 31l-23 54l-20 16l-33 6l-26 -11l-17 -20l-11 -25l-6 -34l4 -242l-2 -46v-64l-5 -24l6 -96l2 -147l-12 -79z" />
<glyph unicode="&#xb7;" d="M387 653l17 -54l16 -23l49 -33l28 -11l36 -6l71 6l31 8l26 17l19 22l26 54l8 34l-11 67l-28 54l-20 23l-23 17l-65 17l-39 2l-28 -11l-51 -31l-20 -20l-17 -25l-11 -28z" />
<glyph unicode="&#xbb;" d="M49 43q0 -42 42 -42q17 0 43 23l449 410l-449 410q-27 24 -43 24q-42 0 -42 -42q0 -17 22 -42l313 -350l-313 -349q-22 -25 -22 -42zM518 43q0 -42 42 -42q18 0 44 23l448 410l-448 410q-27 24 -44 24q-42 0 -42 -42q0 -17 22 -42l313 -350l-313 -349q-22 -25 -22 -42z " />
<glyph unicode="&#xbf;" d="M259 240l34 -85l54 -62l99 -77l45 -14l105 -14l90 26l105 70l22 37l31 88l-17 39l-19 14l-23 -2l-37 -23l-31 -28l-22 -37l-32 -26l-84 -36l-91 19l-39 20l-26 34l-17 40l-14 56l3 43l14 45l59 59l71 46l57 59l22 37l17 42l6 96l-23 110l-20 37l-16 11h-34l-26 -31 l-22 -39l-9 -43l-3 -50l6 -51l-20 -40q-4 -26 -20 -40l-31 -28l-37 -20l-33 -25l-29 -28l-39 -79l-14 -46zM423 1110l20 -70l28 -40l45 -28l57 -9l51 17l42 29l23 48l14 20v33l-17 54l-31 40l-42 28l-23 8l-37 -3l-53 -16l-68 -74z" />
<glyph unicode="&#xc0;" d="M172 116l5 -37l12 -28l19 -20l26 -14l34 3l19 20l9 34l34 45l6 34l14 25l28 133l17 23l17 65l17 22l23 17l28 12l76 2l178 -16l43 -37l73 -207l23 -99l28 -50l23 -20l34 -20l22 3l26 17l22 37l-5 25l3 28l-9 65l-20 62l-8 65l-85 317l-23 57l-19 93v31l-26 54l-14 65 l-11 28l-14 107l-51 111l-37 45l-20 17l-28 14l-71 11l-59 -19l-23 -17l-56 -105l-23 -59l-40 -159l-22 -59l-6 -34l-113 -367l-9 -74l-17 -62l-2 -31zM421 1615l290 -263l84 95l-290 262zM480 639l102 385l19 25q18 -5 29 -11l5 -37l26 -62l42 -170l6 -37l11 -34l3 -39 l-6 -37l-31 -11h-164l-34 8z" />
<glyph unicode="&#xc1;" d="M172 116l5 -37l12 -28l19 -20l26 -14l34 3l19 20l9 34l34 45l6 34l14 25l28 133l17 23l17 65l17 22l23 17l28 12l76 2l178 -16l43 -37l73 -207l23 -99l28 -50l23 -20l34 -20l22 3l26 17l22 37l-5 25l3 28l-9 65l-20 62l-8 65l-85 317l-23 57l-19 93v31l-26 54l-14 65 l-11 28l-14 107l-51 111l-37 45l-20 17l-28 14l-71 11l-59 -19l-23 -17l-56 -105l-23 -59l-40 -159l-22 -59l-6 -34l-113 -367l-9 -74l-17 -62l-2 -31zM417 1443l290 262l84 -94l-290 -263zM480 639l102 385l19 25q18 -5 29 -11l5 -37l26 -62l42 -170l6 -37l11 -34l3 -39 l-6 -37l-31 -11h-164l-34 8z" />
<glyph unicode="&#xc2;" d="M167 116l5 -37l12 -28l19 -20l26 -14l34 3l19 20l9 34l34 45l6 34l14 25l28 133l17 23l17 65l17 22l23 17l28 12l76 2l178 -16l43 -37l73 -207l23 -99l28 -50l23 -20l34 -20l22 3l26 17l22 37l-5 25l3 28l-9 65l-20 62l-8 65l-85 317l-23 57l-19 93v31l-26 54l-14 65 l-11 28l-14 107l-51 111l-37 45l-20 17l-28 14l-71 11l-59 -19l-23 -17l-56 -105l-23 -59l-40 -159l-22 -59l-6 -34l-113 -367l-9 -74l-17 -62l-2 -31zM299 1331q0 -42 42 -42q13 0 36 17l220 169l221 -169q23 -17 35 -17q43 0 43 42q0 21 -28 42l-271 206l-270 -206 q-28 -21 -28 -42zM475 639l102 385l19 25q18 -5 29 -11l5 -37l26 -62l42 -170l6 -37l11 -34l3 -39l-6 -37l-31 -11h-164l-34 8z" />
<glyph unicode="&#xc3;" d="M162 116l5 -37l12 -28l19 -20l26 -14l34 3l19 20l9 34l34 45l6 34l14 25l28 133l17 23l17 65l17 22l23 17l28 12l76 2l178 -16l43 -37l73 -207l23 -99l28 -50l23 -20l34 -20l22 3l26 17l22 37l-5 25l3 28l-9 65l-20 62l-8 65l-85 317l-23 57l-19 93v31l-26 54l-14 65 l-11 28l-14 107l-51 111l-37 45l-20 17l-28 14l-71 11l-59 -19l-23 -17l-56 -105l-23 -59l-40 -159l-22 -59l-6 -34l-113 -367l-9 -74l-17 -62l-2 -31zM287 1417q0 -40 41 -40q20 0 46 25q62 56 101 56q32 0 90 -43q107 -79 173 -79q38 0 79 21q57 30 95 74q13 14 13 32 q0 39 -42 39q-16 0 -30 -13q-79 -68 -115 -68q-32 0 -102 48q-106 73 -162 73q-59 0 -136 -59q-51 -39 -51 -66zM470 639l102 385l19 25q18 -5 29 -11l5 -37l26 -62l42 -170l6 -37l11 -34l3 -39l-6 -37l-31 -11h-164l-34 8z" />
<glyph unicode="&#xc4;" d="M168 116l5 -37l12 -28l19 -20l26 -14l34 3l19 20l9 34l34 45l6 34l14 25l28 133l17 23l17 65l17 22l23 17l28 12l76 2l178 -16l43 -37l73 -207l23 -99l28 -50l23 -20l34 -20l22 3l26 17l22 37l-5 25l3 28l-9 65l-20 62l-8 65l-85 317l-23 57l-19 93v31l-26 54l-14 65 l-11 28l-14 107l-51 111l-37 45l-20 17l-28 14l-71 11l-59 -19l-23 -17l-56 -105l-23 -59l-40 -159l-22 -59l-6 -34l-113 -367l-9 -74l-17 -62l-2 -31zM311 1414q0 -33 24 -57t57 -24q34 0 58 23.5t24 57.5t-24 58t-58 24t-57.5 -24t-23.5 -58zM476 639l102 385l19 25 q18 -5 29 -11l5 -37l26 -62l42 -170l6 -37l11 -34l3 -39l-6 -37l-31 -11h-164l-34 8zM740 1414q0 -34 23.5 -57.5t57.5 -23.5t58 23.5t24 57.5t-24 58t-58 24t-57.5 -24t-23.5 -58z" />
<glyph unicode="&#xc5;" d="M172 116l5 -37l12 -28l19 -20l26 -14l34 3l19 20l9 34l34 45l6 34l14 25l28 133l17 23l17 65l17 22l23 17l28 12l76 2l178 -16l43 -37l73 -207l23 -99l28 -50l23 -20l34 -20l22 3l26 17l22 37l-5 25l3 28l-9 65l-20 62l-8 65l-85 317l-23 57l-19 93v31l-26 54l-14 65 l-11 28l-14 107l-51 111l-37 45l-20 17l-28 14l-71 11l-59 -19l-23 -17l-56 -105l-23 -59l-40 -159l-22 -59l-6 -34l-113 -367l-9 -74l-17 -62l-2 -31zM428 1435q0 -75 52 -127q52 -51 129 -51q75 0 128 51q53 53 53 127q0 75 -53 126q-52 52 -128 52q-77 0 -129 -52 q-52 -51 -52 -126zM480 639l102 385l19 25q18 -5 29 -11l5 -37l26 -62l42 -170l6 -37l11 -34l3 -39l-6 -37l-31 -11h-164l-34 8zM488 1435q0 49 35 84q35 34 86 34t85 -34q36 -35 36 -84t-36 -84q-34 -34 -85 -34q-50 0 -85 34q-36 35 -36 84z" />
<glyph unicode="&#xc6;" d="M-25 104l5 -37l12 -28l19 -20l26 -14l34 3l19 20l9 34l34 45l6 34l14 25l28 133l17 23l17 65l17 22l23 17l28 12l93 2h79l-9 -285l12 -99l23 -26l34 -20l48 -14l60 3l99 -11l251 22l36 14l17 34l-11 40l-37 23l-55 14l-57 -6l-96 6l-29 5l-56 -8l-77 20l-25 22l5 79 l3 136l3 127l17 34l37 12l238 8l45 6l20 -3l34 14l23 31q-2 24 -12 40l-22 25l-34 17l-23 6l-43 -6l-45 6h-110l-93 25l-19 17l-4 101l5 59l3 44l6 93l20 42l118 6l12 -3l42 9l117 -3l79 14l28 23l6 39l-17 31l-34 20l-37 11l-71 15l-102 -12l-65 12l-144 2l-34 -13l-125 5 l-59 -19l-23 -17l-56 -105l-23 -59l-40 -159l-23 -59l-6 -34l-108 -367l-30 -74l-17 -62l-2 -31zM283 627l119 385l19 25l38 32h17l9 -15l-19 -446l-175 -1z" />
<glyph unicode="&#xc7;" d="M157 636l17 -277l20 -87l82 -133l113 -99l76 -31l93 -22l136 11l85 19l68 40l59 48l71 90l19 34l20 62v23l-20 37l-34 28l-39 -6l-26 -28l-17 -37l-62 -99l-96 -65l-45 -17l-93 -2l-48 5l-37 14l-68 40l-76 82l-17 37l-23 138l3 9l-9 82l12 248l28 130l57 105l93 68 l82 25l56 9l128 -9l36 -17l29 -22l48 -60l34 -73l22 -31l31 -23l43 -11l31 22l5 23l-22 110l-37 71l-51 57l-130 82l-85 25l-45 8l-150 -19l-28 3l-153 -63l-93 -118l-54 -108zM450 -268q0 -36 89 -60q55 -15 89 -15q61 0 99 28q45 31 45 89q0 94 -118 110v96q0 40 -30 40 t-30 -40v-153h41q76 0 76 -51q0 -59 -83 -59q-57 0 -125 38q-13 7 -23 7q-30 0 -30 -30z" />
<glyph unicode="&#xc8;" d="M227 410l6 -42l3 -272l14 -36l23 -26l34 -20l70 -14l60 3l99 -11l359 22l36 14l17 34l-11 40l-37 23l-141 14l-79 -6l-96 6l-29 5l-56 -8l-77 20l-25 22l-14 79l3 136l22 127l17 34l37 12l238 8l45 6l42 -3l34 14l23 31q-2 24 -12 40l-22 25l-34 17l-45 6l-43 -6l-45 6 h-110l-111 25l-25 23l-14 37l-6 82l6 8l-6 34l9 88l11 36l23 31l31 17l118 6l12 -3l42 9l238 -3l79 14l28 23l6 39l-17 31l-34 20l-37 11l-192 15l-102 -12l-65 12l-144 2l-37 -14l-39 -8l-29 -23l-20 -39l9 -201l-11 -54l2 -48l-19 -79l11 -136l-14 -127l8 -37zM472 1615 l290 -263l84 95l-290 262z" />
<glyph unicode="&#xc9;" d="M227 410l6 -42l3 -272l14 -36l23 -26l34 -20l70 -14l60 3l99 -11l359 22l36 14l17 34l-11 40l-37 23l-141 14l-79 -6l-96 6l-29 5l-56 -8l-77 20l-25 22l-14 79l3 136l22 127l17 34l37 12l238 8l45 6l42 -3l34 14l23 31q-2 24 -12 40l-22 25l-34 17l-45 6l-43 -6l-45 6 h-110l-111 25l-25 23l-14 37l-6 82l6 8l-6 34l9 88l11 36l23 31l31 17l118 6l12 -3l42 9l238 -3l79 14l28 23l6 39l-17 31l-34 20l-37 11l-192 15l-102 -12l-65 12l-144 2l-37 -14l-39 -8l-29 -23l-20 -39l9 -201l-11 -54l2 -48l-19 -79l11 -136l-14 -127l8 -37zM433 1443 l290 262l84 -94l-290 -263z" />
<glyph unicode="&#xca;" d="M201 410l6 -42l3 -272l14 -36l23 -26l34 -20l70 -14l60 3l99 -11l359 22l36 14l17 34l-11 40l-37 23l-141 14l-79 -6l-96 6l-29 5l-56 -8l-77 20l-25 22l-14 79l3 136l22 127l17 34l37 12l238 8l45 6l42 -3l34 14l23 31q-2 24 -12 40l-22 25l-34 17l-45 6l-43 -6l-45 6 h-110l-111 25l-25 23l-14 37l-6 82l6 8l-6 34l9 88l11 36l23 31l31 17l118 6l12 -3l42 9l238 -3l79 14l28 23l6 39l-17 31l-34 20l-37 11l-192 15l-102 -12l-65 12l-144 2l-37 -14l-39 -8l-29 -23l-20 -39l9 -201l-11 -54l2 -48l-19 -79l11 -136l-14 -127l8 -37zM281 1431 q0 -42 42 -42q13 0 36 17l220 169l221 -169q23 -17 35 -17q43 0 43 42q0 21 -28 42l-271 206l-270 -206q-28 -21 -28 -42z" />
<glyph unicode="&#xcb;" d="M192 410l6 -42l3 -272l14 -36l23 -26l34 -20l70 -14l60 3l99 -11l359 22l36 14l17 34l-11 40l-37 23l-141 14l-79 -6l-96 6l-29 5l-56 -8l-77 20l-25 22l-14 79l3 136l22 127l17 34l37 12l238 8l45 6l42 -3l34 14l23 31q-2 24 -12 40l-22 25l-34 17l-45 6l-43 -6l-45 6 h-110l-111 25l-25 23l-14 37l-6 82l6 8l-6 34l9 88l11 36l23 31l31 17l118 6l12 -3l42 9l238 -3l79 14l28 23l6 39l-17 31l-34 20l-37 11l-192 15l-102 -12l-65 12l-144 2l-37 -14l-39 -8l-29 -23l-20 -39l9 -201l-11 -54l2 -48l-19 -79l11 -136l-14 -127l8 -37zM286 1454 q0 -33 24 -57t57 -24q34 0 58 23.5t24 57.5t-24 58t-58 24t-57.5 -24t-23.5 -58zM715 1454q0 -34 23.5 -57.5t57.5 -23.5t58 23.5t24 57.5t-24 58t-58 24t-57.5 -24t-23.5 -58z" />
<glyph unicode="&#xcc;" d="M376 1618l290 -263l84 95l-290 262zM482 893l20 -333l-12 -79l-3 -201l9 -164l8 -37l17 -31l29 -17l42 -5l23 22l17 43l5 161l-8 70l5 57l-2 8l11 60l-6 42l9 37l-12 34l-5 42l14 492l-14 79l-43 51l-39 9l-31 -14l-17 -32l-12 -73v-122z" />
<glyph unicode="&#xcd;" d="M286 1443l290 262l84 -94l-290 -263zM387 893l20 -333l-12 -79l-3 -201l9 -164l8 -37l17 -31l29 -17l42 -5l23 22l17 43l5 161l-8 70l5 57l-2 8l11 60l-6 42l9 37l-12 34l-5 42l14 492l-14 79l-43 51l-39 9l-31 -14l-17 -32l-12 -73v-122z" />
<glyph unicode="&#xce;" d="M263 1339q0 -42 42 -42q13 0 36 17l220 169l221 -169q23 -17 35 -17q43 0 43 42q0 21 -28 42l-271 206l-270 -206q-28 -21 -28 -42zM479 889l20 -333l-12 -79l-3 -201l9 -164l8 -37l17 -31l29 -17l42 -5l23 22l17 43l5 161l-8 70l5 57l-2 8l11 60l-6 42l9 37l-12 34 l-5 42l14 492l-14 79l-43 51l-39 9l-31 -14l-17 -32l-12 -73v-122z" />
<glyph unicode="&#xcf;" d="M255 1414q0 -33 24 -57t57 -24q34 0 58 23.5t24 57.5t-24 58t-58 24t-57.5 -24t-23.5 -58zM470 890l20 -333l-12 -79l-3 -201l9 -164l8 -37l17 -31l29 -17l42 -5l23 22l17 43l5 161l-8 70l5 57l-2 8l11 60l-6 42l9 37l-12 34l-5 42l14 492l-14 79l-43 51l-39 9l-31 -14 l-17 -32l-12 -73v-122zM684 1414q0 -34 23.5 -57.5t57.5 -23.5t58 23.5t24 57.5t-24 58t-58 24t-57.5 -24t-23.5 -58z" />
<glyph unicode="&#xd0;" d="M-44 609l14 -28q19 -21 40 -26l116 -22l59 1l-8 -158l6 -169l-6 -57l3 -65l20 -48l42 -28l68 -11l181 -9l59 -8l125 14l87 48l74 62l34 37l56 82l46 90l36 181l6 113l-42 300l-43 96l-25 42l-94 113l-36 31l-43 26l-110 28l-122 11q-21 -3 -63 -3q-36 0 -58 1l-110 -15 l-49 -22q-17 -19 -25 -43l-20 -195l14 -175l-8 -23l8 -31l5 -47l-130 1l-33 -3l-48 -17l-20 -45zM324 501l1 37l51 6l92 -3l28 5l42 20l28 52l-19 45q-21 18 -40 22l-62 15l-113 1l12 266l-3 8l14 63l23 25l31 17l133 6l124 -20l62 -34l71 -76l20 -31l51 -136l8 -85l-5 -45 l8 -54l-5 -76l-43 -156l-6 -42l-45 -99l-25 -25l-60 -40l-70 -25l-43 -6l-169 -3l-43 9l-28 19l-14 34l5 218z" />
<glyph unicode="&#xd1;" d="M193 1106l14 -88l-8 -62l8 -215l-8 -62l17 -238l-6 -161l-8 -48l8 -110l17 -40l28 -28l29 -3l17 11l22 34l14 46l9 62v45l-11 48l5 51l3 158l9 51v57l8 48l-3 8l6 99l11 45q23 0 37 -14l34 -25l39 -74l17 -42l119 -170l17 -39l48 -68l14 -45l110 -179l17 -39l29 -28 l34 -26l39 -20l40 17l25 102l-3 257l-5 51l11 173l-9 48l6 152l11 48l3 114l-17 149l-14 43q-13 21 -31 28l-31 3l-17 -9l-25 -31l-9 -62v-99l-8 -59l8 -96l-11 -46l8 -107l-5 -110l-9 -43v-104l-31 -20l-28 28l-215 365l-17 40l-42 70l-17 43l-164 240l-40 20l-42 -14 l-28 -32l-23 -93zM273 1439q0 -40 41 -40q20 0 46 25q62 56 101 56q32 0 90 -43q107 -79 173 -79q38 0 79 21q57 30 95 74q13 14 13 32q0 39 -42 39q-16 0 -30 -13q-79 -68 -115 -68q-32 0 -102 48q-106 73 -162 73q-59 0 -136 -59q-51 -39 -51 -66z" />
<glyph unicode="&#xd2;" d="M154 710l8 -77l-6 -115l108 -309l25 -42l62 -76l82 -57l48 -23l57 -11l102 3l56 -11l110 62l74 65l28 42l14 31l-3 20l32 37l50 88l34 175l-2 31l14 90v119l-9 31v31l-42 164l-26 43l-42 96l-68 70l-39 29q-20 14 -49 22l-98 40l-63 8l-59 -8l-105 -34l-79 -57l-70 -70 l-57 -79l-79 -269zM298 611v90l8 43l3 48l68 186l20 31l73 80l65 36l40 14l42 -5l23 -9h22l37 -11l34 -20l51 -48l22 -28l60 -144l5 -46l15 -39l25 -175l-31 -224l-93 -161l-54 -48l-65 -37l-40 -11l-48 -3l-76 26l-59 42l-26 26l-42 59l-54 150l-14 138zM432 1615l290 -263 l84 95l-290 262z" />
<glyph unicode="&#xd3;" d="M154 710l8 -77l-6 -115l108 -309l25 -42l62 -76l82 -57l48 -23l57 -11l102 3l56 -11l110 62l74 65l28 42l14 31l-3 20l32 37l50 88l34 175l-2 31l14 90v119l-9 31v31l-42 164l-26 43l-42 96l-68 70l-39 29q-20 14 -49 22l-98 40l-63 8l-59 -8l-105 -34l-79 -57l-70 -70 l-57 -79l-79 -269zM298 611v90l8 43l3 48l68 186l20 31l73 80l65 36l40 14l42 -5l23 -9h22l37 -11l34 -20l51 -48l22 -28l60 -144l5 -46l15 -39l25 -175l-31 -224l-93 -161l-54 -48l-65 -37l-40 -11l-48 -3l-76 26l-59 42l-26 26l-42 59l-54 150l-14 138zM419 1445l290 262 l84 -94l-290 -263z" />
<glyph unicode="&#xd4;" d="M154 710l8 -77l-6 -115l108 -309l25 -42l62 -76l82 -57l48 -23l57 -11l102 3l56 -11l110 62l74 65l28 42l14 31l-3 20l32 37l50 88l34 175l-2 31l14 90v119l-9 31v31l-42 164l-26 43l-42 96l-68 70l-39 29q-20 14 -49 22l-98 40l-63 8l-59 -8l-105 -34l-79 -57l-70 -70 l-57 -79l-79 -269zM298 611v90l8 43l3 48l68 186l20 31l73 80l65 36l40 14l42 -5l23 -9h22l37 -11l34 -20l51 -48l22 -28l60 -144l5 -46l15 -39l25 -175l-31 -224l-93 -161l-54 -48l-65 -37l-40 -11l-48 -3l-76 26l-59 42l-26 26l-42 59l-54 150l-14 138zM305 1397 q0 -42 42 -42q13 0 36 17l220 169l221 -169q23 -17 35 -17q43 0 43 42q0 21 -28 42l-271 206l-270 -206q-28 -21 -28 -42z" />
<glyph unicode="&#xd5;" d="M154 710l8 -77l-6 -115l108 -309l25 -42l62 -76l82 -57l48 -23l57 -11l102 3l56 -11l110 62l74 65l28 42l14 31l-3 20l32 37l50 88l34 175l-2 31l14 90v119l-9 31v31l-42 164l-26 43l-42 96l-68 70l-39 29q-20 14 -49 22l-98 40l-63 8l-59 -8l-105 -34l-79 -57l-70 -70 l-57 -79l-79 -269zM266 1456q0 -40 41 -40q20 0 46 25q62 56 101 56q32 0 90 -43q107 -79 173 -79q39 0 79 21q57 30 95 74q13 14 13 32q0 39 -42 39q-16 0 -30 -13q-79 -68 -115 -68q-31 0 -102 48q-106 73 -162 73q-59 0 -136 -59q-51 -39 -51 -66zM298 611v90l8 43l3 48 l68 186l20 31l73 80l65 36l40 14l42 -5l23 -9h22l37 -11l34 -20l51 -48l22 -28l60 -144l5 -46l15 -39l25 -175l-31 -224l-93 -161l-54 -48l-65 -37l-40 -11l-48 -3l-76 26l-59 42l-26 26l-42 59l-54 150l-14 138z" />
<glyph unicode="&#xd6;" d="M154 710l8 -77l-6 -115l108 -309l25 -42l62 -76l82 -57l48 -23l57 -11l102 3l56 -11l110 62l74 65l28 42l14 31l-3 20l32 37l50 88l34 175l-2 31l14 90v119l-9 31v31l-42 164l-26 43l-42 96l-68 70l-39 29q-20 14 -49 22l-98 40l-63 8l-59 -8l-105 -34l-79 -57l-70 -70 l-57 -79l-79 -269zM298 611v90l8 43l3 48l68 186l20 31l73 80l65 36l40 14l42 -5l23 -9h22l37 -11l34 -20l51 -48l22 -28l60 -144l5 -46l15 -39l25 -175l-31 -224l-93 -161l-54 -48l-65 -37l-40 -11l-48 -3l-76 26l-59 42l-26 26l-42 59l-54 150l-14 138zM307 1434 q0 -33 24 -57t57 -24q34 0 58 23.5t24 57.5t-24 58t-58 24t-57.5 -24t-23.5 -58zM736 1434q0 -34 23.5 -57.5t57.5 -23.5t58 23.5t24 57.5t-24 58t-58 24t-57.5 -24t-23.5 -58z" />
<glyph unicode="&#xd7;" d="M136 48l3 -28l20 -22l37 -9l34 11l50 34l23 23l51 79l85 90l25 17l20 23l65 34l25 -6l31 -14l108 -107l28 -17l59 -71l46 -42l53 -34h31l29 17l5 39l-37 48l-48 43l-11 28l-161 189l-28 68l5 28l15 29l39 48l45 39l128 136l28 57l-6 34l-34 22l-31 -3l-51 -36l-175 -170 l-31 -14l-17 -28l-25 -17h-37l-28 14l-102 116l-34 50l-102 74l-65 25q-15 -8 -25 -17l-11 -33l11 -32l20 -25l22 -20l94 -124l48 -40l73 -99v-36l-11 -32l-60 -73l-25 -17l-14 -28l-51 -37l-122 -141z" />
<glyph unicode="&#xd8;" d="M104 710l8 -77l-6 -115l108 -309l25 -42l21 -27l-62 -134l-6 -42l6 -8l51 -17l50 8l32 34l30 68l22 -15l48 -23l57 -11l102 3l56 -11l110 62l74 65l28 42l14 31l-3 20l32 37l50 88l34 175l-2 31l14 90v119l-9 31v31l-42 164l-26 43l-42 96l-15 15l53 126v48l-9 14l-42 3 l-40 -25l-28 -40l-23 -45l-3 3q-20 14 -49 22l-98 40l-63 8l-59 -8l-105 -34l-79 -57l-70 -70l-57 -79l-79 -269zM248 611v90l8 43l3 48l68 186l20 31l73 80l65 36l40 14l42 -5l23 -9h22l37 -11l34 -20l22 -21l-61 -123l-14 -54l-51 -79l-107 -226l-28 -37l-74 -192l-25 -39 l-18 -40l-54 150l-14 138zM416 183l231 476l51 82l87 207l31 -74l5 -46l15 -39l25 -175l-31 -224l-93 -161l-54 -48l-65 -37l-40 -11l-48 -3l-76 26z" />
<glyph unicode="&#xd9;" d="M206 947l9 -294l-6 -79l14 -71l-14 -198l48 -147l37 -65l31 -22l102 -51l56 -20l23 3l48 -11l88 -5l87 13l37 14l68 37l54 48l45 59l17 34l28 102l3 65l-9 116l14 74l-8 271l17 164l-11 164l-23 31l-37 28l-28 -8l-20 -31l-8 -40v-96l-14 -195l8 -158l-14 -351l-17 -82 l-71 -85l-73 -28l-85 -17l-48 3l-37 14l-42 9l-31 19l-76 77l-20 79l-9 93l9 229l-14 141l19 147l-8 68l6 57l-23 121l-17 34l-37 17l-28 -22l-17 -34l-14 -48v-130zM370 1615l290 -263l84 95l-290 262z" />
<glyph unicode="&#xda;" d="M206 947l9 -294l-6 -79l14 -71l-14 -198l48 -147l37 -65l31 -22l102 -51l56 -20l23 3l48 -11l88 -5l87 13l37 14l68 37l54 48l45 59l17 34l28 102l3 65l-9 116l14 74l-8 271l17 164l-11 164l-23 31l-37 28l-28 -8l-20 -31l-8 -40v-96l-14 -195l8 -158l-14 -351l-17 -82 l-71 -85l-73 -28l-85 -17l-48 3l-37 14l-42 9l-31 19l-76 77l-20 79l-9 93l9 229l-14 141l19 147l-8 68l6 57l-23 121l-17 34l-37 17l-28 -22l-17 -34l-14 -48v-130zM434 1443l290 262l84 -94l-290 -263z" />
<glyph unicode="&#xdb;" d="M206 947l9 -294l-6 -79l14 -71l-14 -198l48 -147l37 -65l31 -22l102 -51l56 -20l23 3l48 -11l88 -5l87 13l37 14l68 37l54 48l45 59l17 34l28 102l3 65l-9 116l14 74l-8 271l17 164l-11 164l-23 31l-37 28l-28 -8l-20 -31l-8 -40v-96l-14 -195l8 -158l-14 -351l-17 -82 l-71 -85l-73 -28l-85 -17l-48 3l-37 14l-42 9l-31 19l-76 77l-20 79l-9 93l9 229l-14 141l19 147l-8 68l6 57l-23 121l-17 34l-37 17l-28 -22l-17 -34l-14 -48v-130zM306 1389q0 -42 42 -42q13 0 36 17l220 169l221 -169q23 -17 35 -17q43 0 43 42q0 21 -28 42l-271 206 l-270 -206q-28 -21 -28 -42z" />
<glyph unicode="&#xdc;" d="M206 947l9 -294l-6 -79l14 -71l-14 -198l48 -147l37 -65l31 -22l102 -51l56 -20l23 3l48 -11l88 -5l87 13l37 14l68 37l54 48l45 59l17 34l28 102l3 65l-9 116l14 74l-8 271l17 164l-11 164l-23 31l-37 28l-28 -8l-20 -31l-8 -40v-96l-14 -195l8 -158l-14 -351l-17 -82 l-71 -85l-73 -28l-85 -17l-48 3l-37 14l-42 9l-31 19l-76 77l-20 79l-9 93l9 229l-14 141l19 147l-8 68l6 57l-23 121l-17 34l-37 17l-28 -22l-17 -34l-14 -48v-130zM321 1444q0 -33 24 -57t57 -24q34 0 58 23.5t24 57.5t-24 58t-58 24t-57.5 -24t-23.5 -58zM750 1444 q0 -34 23.5 -57.5t57.5 -23.5t58 23.5t24 57.5t-24 58t-58 24t-57.5 -24t-23.5 -58z" />
<glyph unicode="&#xdd;" d="M209 1128l5 -31l292 -435l39 -113v-71l-6 -54l6 -22l-11 -54l11 -65v-141l-6 -34l15 -63l34 -42l28 -11l25 14l14 22l26 280l-12 215l-5 31l25 51l77 113l11 28l169 252l34 79l12 65l-12 29l-25 14l-31 -6l-23 -17l-34 -42l-59 -96l-34 -43l-11 -25l-108 -159l-22 -17 l-26 -11l-34 6l-19 17l-187 311l-73 76l-31 11l-29 -8l-20 -20zM417 1443l290 262l84 -94l-290 -263z" />
<glyph unicode="&#xdf;" d="M188 624l12 -187l-6 -119l-1 -211v-16v-14q0 -72 37 -96q13 -7 29 -7q10 0 19 4q37 16 39 73l8 129l-1 105l4 99l-9 102l4 158l-15 106q-7 31 -7 68q0 38 8 75q17 122 122 122q30 0 82 20q21 10 53 10q36 0 71 -15q99 -50 106 -120q-2 -24 -13 -46l-35 -62 q-31 -58 -60 -67l-94 -11q-50 -8 -95 -51q-12 -13 -12 -25q0 -3 1 -5v-1q10 -25 57 -37q8 -2 66 -11l65 -8q41 -10 70 -33l63 -62l67 -50q44 -30 56 -98v-8v-6q0 -56 -38 -129q-13 -27 -60 -62q-67 -45 -72 -50q-17 -14 -35 -14q-11 0 -20 3l-86 25q-10 4 -54 56 q-24 27 -53 27q-17 0 -33 -13q-17 -20 -17 -41q0 -11 5 -26q11 -29 54 -74q45 -45 69 -49q25 -6 68 -6q109 0 176 37l61 31q32 20 52 67l46 75q20 32 21 69v8v20q-1 7 -1 14q0 28 5 96v4q1 1 1 3q0 34 -25 65l-48 69q-23 42 -55 62q-50 32 -53 34q-30 26 -30 55q0 22 16 48 q26 48 40 99q23 78 23 125q-11 50 -42 92q-12 14 -63 47l-68 46q-52 12 -78 13l-96 6q-27 1 -91 -42l-132 -47q-32 -22 -57 -111q-15 -49 -15 -100q0 -23 4 -56q5 -42 5 -55q0 -12 -5 -47z" />
<glyph unicode="&#xe0;" d="M218 257l14 -93l17 -51l28 -42l37 -37l39 -28l51 -22l57 -14l260 5l82 25l87 -16q31 3 51 19l25 57l-2 56l11 124l6 12l-6 48v79l8 59l-2 122l-9 62l-20 54l-39 28l-20 54l-37 34l-45 25l-51 20l-65 14l-116 11l-172 -39l-48 -23l-43 -28l-22 -48q11 -26 31 -43 q26 -12 56 -14l116 26l51 20l65 14l48 -3l57 -14l39 -31l14 -17v-31l9 -29l-42 -22l-159 -12l-164 -48l-48 -22l-76 -65l-54 -88zM370 232l9 71l22 31l26 25l31 20l161 45l90 9l79 -23l26 -23l17 -48l-3 -87l-9 -43l-14 -39l-25 -23l-105 -54l-87 -14l-91 9l-36 11l-34 17 l-26 28zM406 1247l290 -263l84 95l-290 262z" />
<glyph unicode="&#xe1;" d="M218 257l14 -93l17 -51l28 -42l37 -37l39 -28l51 -22l57 -14l260 5l82 25l87 -16q31 3 51 19l25 57l-2 56l11 124l6 12l-6 48v79l8 59l-2 122l-9 62l-20 54l-39 28l-20 54l-37 34l-45 25l-51 20l-65 14l-116 11l-172 -39l-48 -23l-43 -28l-22 -48q11 -26 31 -43 q26 -12 56 -14l116 26l51 20l65 14l48 -3l57 -14l39 -31l14 -17v-31l9 -29l-42 -22l-159 -12l-164 -48l-48 -22l-76 -65l-54 -88zM370 232l9 71l22 31l26 25l31 20l161 45l90 9l79 -23l26 -23l17 -48l-3 -87l-9 -43l-14 -39l-25 -23l-105 -54l-87 -14l-91 9l-36 11l-34 17 l-26 28zM408 1082l290 262l84 -94l-290 -263z" />
<glyph unicode="&#xe2;" d="M218 257l14 -93l17 -51l28 -42l37 -37l39 -28l51 -22l57 -14l260 5l82 25l87 -16q31 3 51 19l25 57l-2 56l11 124l6 12l-6 48v79l8 59l-2 122l-9 62l-20 54l-39 28l-20 54l-37 34l-45 25l-51 20l-65 14l-116 11l-172 -39l-48 -23l-43 -28l-22 -48q11 -26 31 -43 q26 -12 56 -14l116 26l51 20l65 14l48 -3l57 -14l39 -31l14 -17v-31l9 -29l-42 -22l-159 -12l-164 -48l-48 -22l-76 -65l-54 -88zM316 1046q0 -42 42 -42q13 0 36 17l220 169l221 -169q23 -17 35 -17q43 0 43 42q0 21 -28 42l-271 206l-270 -206q-28 -21 -28 -42zM370 232 l9 71l22 31l26 25l31 20l161 45l90 9l79 -23l26 -23l17 -48l-3 -87l-9 -43l-14 -39l-25 -23l-105 -54l-87 -14l-91 9l-36 11l-34 17l-26 28z" />
<glyph unicode="&#xe3;" d="M218 257l14 -93l17 -51l28 -42l37 -37l39 -28l51 -22l57 -14l260 5l82 25l87 -16q31 3 51 19l25 57l-2 56l11 124l6 12l-6 48v79l8 59l-2 122l-9 62l-20 54l-39 28l-20 54l-37 34l-45 25l-51 20l-65 14l-116 11l-172 -39l-48 -23l-43 -28l-22 -48q11 -26 31 -43 q26 -12 56 -14l116 26l51 20l65 14l48 -3l57 -14l39 -31l14 -17v-31l9 -29l-42 -22l-159 -12l-164 -48l-48 -22l-76 -65l-54 -88zM312 1082q0 -40 41 -40q20 0 46 25q62 56 101 56q32 0 90 -43q107 -79 173 -79q39 0 79 21q57 30 95 74q13 14 13 32q0 39 -42 39 q-16 0 -30 -13q-79 -68 -115 -68q-31 0 -102 48q-106 73 -162 73q-59 0 -136 -59q-51 -39 -51 -66zM370 232l9 71l22 31l26 25l31 20l161 45l90 9l79 -23l26 -23l17 -48l-3 -87l-9 -43l-14 -39l-25 -23l-105 -54l-87 -14l-91 9l-36 11l-34 17l-26 28z" />
<glyph unicode="&#xe4;" d="M218 257l14 -93l17 -51l28 -42l37 -37l39 -28l51 -22l57 -14l260 5l82 25l87 -16q31 3 51 19l25 57l-2 56l11 124l6 12l-6 48v79l8 59l-2 122l-9 62l-20 54l-39 28l-20 54l-37 34l-45 25l-51 20l-65 14l-116 11l-172 -39l-48 -23l-43 -28l-22 -48q11 -26 31 -43 q26 -12 56 -14l116 26l51 20l65 14l48 -3l57 -14l39 -31l14 -17v-31l9 -29l-42 -22l-159 -12l-164 -48l-48 -22l-76 -65l-54 -88zM322 1076q0 -33 24 -57t57 -24q34 0 58 23.5t24 57.5t-24 58t-58 24t-57.5 -24t-23.5 -58zM370 232l9 71l22 31l26 25l31 20l161 45l90 9 l79 -23l26 -23l17 -48l-3 -87l-9 -43l-14 -39l-25 -23l-105 -54l-87 -14l-91 9l-36 11l-34 17l-26 28zM751 1076q0 -34 23.5 -57.5t57.5 -23.5t58 23.5t24 57.5t-24 58t-58 24t-57.5 -24t-23.5 -58z" />
<glyph unicode="&#xe5;" d="M218 257l14 -93l17 -51l28 -42l37 -37l39 -28l51 -22l57 -14l260 5l82 25l87 -16q31 3 51 19l25 57l-2 56l11 124l6 12l-6 48v79l8 59l-2 122l-9 62l-20 54l-39 28l-20 54l-37 34l-45 25l-51 20l-65 14l-116 11l-172 -39l-48 -23l-43 -28l-22 -48q11 -26 31 -43 q26 -12 56 -14l116 26l51 20l65 14l48 -3l57 -14l39 -31l14 -17v-31l9 -29l-42 -22l-159 -12l-164 -48l-48 -22l-76 -65l-54 -88zM370 232l9 71l22 31l26 25l31 20l161 45l90 9l79 -23l26 -23l17 -48l-3 -87l-9 -43l-14 -39l-25 -23l-105 -54l-87 -14l-91 9l-36 11l-34 17 l-26 28zM446 1083q0 -75 52 -127q52 -51 129 -51q75 0 128 51q53 53 53 127q0 75 -53 126q-52 52 -128 52q-77 0 -129 -52q-52 -51 -52 -126zM506 1083q0 49 35 84q35 34 86 34t85 -34q36 -35 36 -84t-36 -84q-34 -34 -85 -34q-50 0 -85 34q-36 35 -36 84z" />
<glyph unicode="&#xe6;" d="M-16 284l11 -93l15 -50l23 -41l30 -37l31 -27l42 -22l47 -14l213 5l67 25l71 -16q25 3 42 19l16 45l18 -20l112 -63l55 -12h95l74 25l18 17l23 9l21 13l53 53l40 73l4 33l-2 31l-18 20l-28 -6l-86 -95l-67 -36l-54 -14h-31l-79 23l-24 10l-73 70l-37 65l2 5l-5 47v18 l14 16l52 20l228 17l29 -6l149 9l21 14l19 19l12 24l6 71l-9 67l-9 28l-30 45l-16 42l-9 27l-47 62l-19 17l-68 36l-26 8l-140 15q-11 -7 -23 -12l-55 -11l-44 -26l-18 -15l-24 -12l-44 -70l-16 50l-30 34l-37 24l-42 20l-53 14l-95 11l-140 -39l-39 -23l-36 -27l-18 -48 q11 -27 25 -42q23 -13 46 -13l95 25l42 19l53 14l39 -3l47 -14l32 -30l11 -16v-31l8 -29l-34 -22l-131 -12l-134 -47l-39 -22l-62 -65l-44 -86zM109 259l7 70l18 31l21 25l25 20l133 43l73 9l64 -23l22 -21l14 -48l-3 -86l-7 -43l-12 -39l-20 -22l-86 -53l-71 -14l-75 9 l-29 11l-28 16l-21 28zM610 572l7 40l17 28l42 45l73 52l31 14l67 -3l32 -8l53 -30l39 -47l45 -101l-3 -31l-23 -20l-40 -11l-62 8l-35 -5l-106 14l-31 11l-59 6l-33 8z" />
<glyph unicode="&#xe7;" d="M193 441l6 -76l25 -99l60 -105l19 -19l26 -17l37 -43l118 -87l133 -31l187 17l84 39l23 17l76 88v36l-14 26l-34 20l-28 -3l-96 -65l-54 -29l-62 -22l-73 5l-94 29l-79 45l-56 62l-12 31l-19 23l-17 62l2 144l17 65l48 74l88 76l51 31l37 6l34 -6l42 9l65 -6l113 -48 l48 -37l25 -14l32 -8l31 11l19 23l6 31l-11 28l-93 71l-88 36l-34 6l-23 11l-70 14l-31 -8l-46 6l-90 -17l-28 -15l-91 -28l-28 -14l-42 -40l-54 -70l-11 -28l-63 -102v-34zM495 -251q0 -36 89 -60q56 -15 89 -15q61 0 99 28q45 31 45 89q0 94 -118 110v96q0 40 -30 40 t-30 -40v-153h41q76 0 76 -51q0 -59 -83 -59q-57 0 -125 38q-13 7 -23 7q-30 0 -30 -30z" />
<glyph unicode="&#xe8;" d="M186 410l6 -65l45 -116l37 -42l62 -99l39 -37l136 -64l68 -12h116l90 25l23 17l28 9l25 14l65 53l49 74l5 34l-3 31l-22 20l-34 -6l-105 -96l-82 -37l-65 -14h-39l-96 23l-29 11l-90 71l-48 70l-9 31l6 32l20 19l62 20l280 17l34 -6l183 9l26 14l22 20l15 25l8 71l-11 68 l-12 28l-36 45h-23l-3 14l6 29l-11 28l-57 62l-22 17l-85 37l-31 8l-170 15q-16 -8 -28 -12l-68 -11l-54 -26l-22 -16l-29 -12l-138 -181l-14 -28l-14 -65zM375 571l9 40l20 28l51 45l90 54l37 14l82 -3l39 -8l65 -31l48 -48l54 -102l-3 -31l-28 -20l-48 -11l-76 8l-43 -5 l-130 14l-37 11l-73 6l-40 8zM408 1266l290 -263l84 95l-290 262z" />
<glyph unicode="&#xe9;" d="M186 410l6 -65l45 -116l37 -42l62 -99l39 -37l136 -64l68 -12h116l90 25l23 17l28 9l25 14l65 53l49 74l5 34l-3 31l-22 20l-34 -6l-105 -96l-82 -37l-65 -14h-39l-96 23l-29 11l-90 71l-48 70l-9 31l6 32l20 19l62 20l280 17l34 -6l183 9l26 14l22 20l15 25l8 71l-11 68 l-12 28l-36 45h-23l-3 14l6 29l-11 28l-57 62l-22 17l-85 37l-31 8l-170 15q-16 -8 -28 -12l-68 -11l-54 -26l-22 -16l-29 -12l-138 -181l-14 -28l-14 -65zM375 571l9 40l20 28l51 45l90 54l37 14l82 -3l39 -8l65 -31l48 -48l54 -102l-3 -31l-28 -20l-48 -11l-76 8l-43 -5 l-130 14l-37 11l-73 6l-40 8zM432 1082l290 262l84 -94l-290 -263z" />
<glyph unicode="&#xea;" d="M186 410l6 -65l45 -116l37 -42l62 -99l39 -37l136 -64l68 -12h116l90 25l23 17l28 9l25 14l65 53l49 74l5 34l-3 31l-22 20l-34 -6l-105 -96l-82 -37l-65 -14h-39l-96 23l-29 11l-90 71l-48 70l-9 31l6 32l20 19l62 20l280 17l34 -6l183 9l26 14l22 20l15 25l8 71l-11 68 l-12 28l-36 45h-23l-3 14l6 29l-11 28l-57 62l-22 17l-85 37l-31 8l-170 15q-16 -8 -28 -12l-68 -11l-54 -26l-22 -16l-29 -12l-138 -181l-14 -28l-14 -65zM305 1039q0 -42 42 -42q13 0 36 17l220 169l221 -169q23 -17 35 -17q43 0 43 42q0 21 -28 42l-271 206l-270 -206 q-28 -21 -28 -42zM375 571l9 40l20 28l51 45l90 54l37 14l82 -3l39 -8l65 -31l48 -48l54 -102l-3 -31l-28 -20l-48 -11l-76 8l-43 -5l-130 14l-37 11l-73 6l-40 8z" />
<glyph unicode="&#xeb;" d="M186 410l6 -65l45 -116l37 -42l62 -99l39 -37l136 -64l68 -12h116l90 25l23 17l28 9l25 14l65 53l49 74l5 34l-3 31l-22 20l-34 -6l-105 -96l-82 -37l-65 -14h-39l-96 23l-29 11l-90 71l-48 70l-9 31l6 32l20 19l62 20l280 17l34 -6l183 9l26 14l22 20l15 25l8 71l-11 68 l-12 28l-36 45h-23l-3 14l6 29l-11 28l-57 62l-22 17l-85 37l-31 8l-170 15q-16 -8 -28 -12l-68 -11l-54 -26l-22 -16l-29 -12l-138 -181l-14 -28l-14 -65zM311 1146q0 -33 24 -57t57 -24q34 0 58 23.5t24 57.5t-24 58t-58 24t-57.5 -24t-23.5 -58zM375 571l9 40l20 28 l51 45l90 54l37 14l82 -3l39 -8l65 -31l48 -48l54 -102l-3 -31l-28 -20l-48 -11l-76 8l-43 -5l-130 14l-37 11l-73 6l-40 8zM740 1146q0 -34 23.5 -57.5t57.5 -23.5t58 23.5t24 57.5t-24 58t-58 24t-57.5 -24t-23.5 -58z" />
<glyph unicode="&#xec;" d="M337 1339l290 -263l84 95l-290 262zM474 461l14 -401l23 -43q20 -19 48 -22l42 22l14 54l14 365l-11 90v153l6 56l-6 60l-25 39q-21 18 -45 26q-25 -8 -46 -23l-17 -48l-5 -31v-119l-6 -42l6 -113z" />
<glyph unicode="&#xed;" d="M373 1082l290 262l84 -94l-290 -263zM474 461l14 -401l23 -43q20 -19 48 -22l42 22l14 54l14 365l-11 90v153l6 56l-6 60l-25 39q-21 18 -45 26q-25 -8 -46 -23l-17 -48l-5 -31v-119l-6 -42l6 -113z" />
<glyph unicode="&#xee;" d="M245 1035q0 -42 42 -42q13 0 36 17l220 169l221 -169q23 -17 35 -17q43 0 43 42q0 21 -28 42l-271 206l-270 -206q-28 -21 -28 -42zM474 461l14 -401l23 -43q20 -19 48 -22l42 22l14 54l14 365l-11 90v153l6 56l-6 60l-25 39q-21 18 -45 26q-25 -8 -46 -23l-17 -48 l-5 -31v-119l-6 -42l6 -113z" />
<glyph unicode="&#xef;" d="M255 1146q0 -33 24 -57t57 -24q34 0 58 23.5t24 57.5t-24 58t-58 24t-57.5 -24t-23.5 -58zM474 461l14 -401l23 -43q20 -19 48 -22l42 22l14 54l14 365l-11 90v153l6 56l-6 60l-25 39q-21 18 -45 26q-25 -8 -46 -23l-17 -48l-5 -31v-119l-6 -42l6 -113zM684 1146 q0 -34 23.5 -57.5t57.5 -23.5t58 23.5t24 57.5t-24 58t-58 24t-57.5 -24t-23.5 -58z" />
<glyph unicode="&#xf1;" d="M202 469l11 -53v-45l-5 -32l11 -99l-9 -39l6 -93l-3 -34l9 -31l14 -26l20 -17l34 -5l22 14l20 19l14 26l9 39l-6 60l8 62l-16 288l14 91l31 45l45 31l54 20l48 31l31 6h37l31 -6l51 -28l20 -17l36 -77l6 -110l6 -34l-6 -96l3 -8l-14 -139l11 -37l-6 -56l3 -34l20 -57 l14 -22l23 -17l36 -2l23 13l17 23l9 42v96l5 6l-5 23v424l-32 82l-62 90l-68 48l-56 20l-34 6l-74 2l-186 -42l-51 25l-29 9l-36 -3l-26 -11l-17 -23l-8 -68v-110l8 -68zM226 1072q0 -40 41 -40q20 0 46 25q62 56 101 56q32 0 90 -43q107 -79 173 -79q39 0 79 21 q57 30 95 74q13 14 13 32q0 39 -42 39q-16 0 -30 -13q-79 -68 -115 -68q-31 0 -102 48q-106 73 -162 73q-59 0 -136 -59q-51 -39 -51 -66z" />
<glyph unicode="&#xf2;" d="M153 424l9 -104l51 -122l107 -119l68 -48l161 -64l110 5l94 20l42 17l71 39l59 57l79 150l43 127l-6 152l-11 46l-57 116l-54 59l-36 20l-62 51l-37 22l-91 34l-147 -3l-20 3l-28 -5l-121 -51l-97 -74l-53 -59l-48 -125zM292 424l8 34l-3 37l6 37l23 56l19 23l32 51 l67 56l29 12l68 14l28 11l76 8l31 -5l63 -20l115 -90l51 -114l9 -31l8 -110l-5 -34l-34 -87l-34 -51l-88 -74l-85 -39l-65 -15l-76 9l-108 56l-45 37l-34 45l-25 57zM451 1259l290 -263l84 95l-290 262z" />
<glyph unicode="&#xf3;" d="M153 424l9 -104l51 -122l107 -119l68 -48l161 -64l110 5l94 20l42 17l71 39l59 57l79 150l43 127l-6 152l-11 46l-57 116l-54 59l-36 20l-62 51l-37 22l-91 34l-147 -3l-20 3l-28 -5l-121 -51l-97 -74l-53 -59l-48 -125zM292 424l8 34l-3 37l6 37l23 56l19 23l32 51 l67 56l29 12l68 14l28 11l76 8l31 -5l63 -20l115 -90l51 -114l9 -31l8 -110l-5 -34l-34 -87l-34 -51l-88 -74l-85 -39l-65 -15l-76 9l-108 56l-45 37l-34 45l-25 57zM432 1082l290 262l84 -94l-290 -263z" />
<glyph unicode="&#xf4;" d="M138 424l9 -104l51 -122l107 -119l68 -48l161 -64l110 5l94 20l42 17l71 39l59 57l79 150l43 127l-6 152l-11 46l-57 116l-54 59l-36 20l-62 51l-37 22l-91 34l-147 -3l-20 3l-28 -5l-121 -51l-97 -74l-53 -59l-48 -125zM275 1032q0 -42 42 -42q13 0 36 17l220 169 l221 -169q23 -17 35 -17q43 0 43 42q0 21 -28 42l-271 206l-270 -206q-28 -21 -28 -42zM277 424l8 34l-3 37l6 37l23 56l19 23l32 51l67 56l29 12l68 14l28 11l76 8l31 -5l63 -20l115 -90l51 -114l9 -31l8 -110l-5 -34l-34 -87l-34 -51l-88 -74l-85 -39l-65 -15l-76 9 l-108 56l-45 37l-34 45l-25 57z" />
<glyph unicode="&#xf5;" d="M134 424l9 -104l51 -122l107 -119l68 -48l161 -64l110 5l94 20l42 17l71 39l59 57l79 150l43 127l-6 152l-11 46l-57 116l-54 59l-36 20l-62 51l-37 22l-91 34l-147 -3l-20 3l-28 -5l-121 -51l-97 -74l-53 -59l-48 -125zM257 1082q0 -40 41 -40q20 0 46 25q62 56 101 56 q32 0 90 -43q107 -79 173 -79q38 0 79 21q57 30 95 74q13 14 13 32q0 39 -42 39q-16 0 -30 -13q-79 -68 -115 -68q-32 0 -102 48q-106 73 -162 73q-59 0 -136 -59q-51 -39 -51 -66zM273 424l8 34l-3 37l6 37l23 56l19 23l32 51l67 56l29 12l68 14l28 11l76 8l31 -5l63 -20 l115 -90l51 -114l9 -31l8 -110l-5 -34l-34 -87l-34 -51l-88 -74l-85 -39l-65 -15l-76 9l-108 56l-45 37l-34 45l-25 57z" />
<glyph unicode="&#xf6;" d="M135 424l9 -104l51 -122l107 -119l68 -48l161 -64l110 5l94 20l42 17l71 39l59 57l79 150l43 127l-6 152l-11 46l-57 116l-54 59l-36 20l-62 51l-37 22l-91 34l-147 -3l-20 3l-28 -5l-121 -51l-97 -74l-53 -59l-48 -125zM274 424l8 34l-3 37l6 37l23 56l19 23l32 51 l67 56l29 12l68 14l28 11l76 8l31 -5l63 -20l115 -90l51 -114l9 -31l8 -110l-5 -34l-34 -87l-34 -51l-88 -74l-85 -39l-65 -15l-76 9l-108 56l-45 37l-34 45l-25 57zM294 1156q0 -33 24 -57t57 -24q34 0 58 23.5t24 57.5t-24 58t-58 24t-57.5 -24t-23.5 -58zM723 1156 q0 -34 23.5 -57.5t57.5 -23.5t58 23.5t24 57.5t-24 58t-58 24t-57.5 -24t-23.5 -58z" />
<glyph unicode="&#xf7;" d="M117 547l14 -28q19 -21 40 -26l116 -22l282 6l68 8l262 -9l28 5l42 20l28 52l-19 45q-21 18 -40 22l-62 15l-652 6l-33 -3l-48 -17l-20 -45zM384 864l14 -43l13 -19l41 -26l24 -9l30 -5l59 5l25 6l22 14l16 18l22 43l6 28l-9 54l-23 43l-17 19l-19 14l-54 13l-33 2 l-23 -9l-42 -25l-17 -16l-14 -20l-9 -23zM392 162l14 -44l12 -19l40 -27l22 -9l29 -5l57 5l25 6l20 14l16 18l20 44l7 28l-9 55l-22 44l-16 18l-19 14l-52 14l-31 2l-23 -9l-40 -25l-16 -17l-14 -20l-9 -23z" />
<glyph unicode="&#xf8;" d="M103 424l26 144l48 125l53 59l97 74l121 51l28 5h167l59 -22l28 61l28 40l40 25l42 -3l9 -14v-48l-52 -117l36 -29l36 -20l54 -59l57 -116l11 -46v-152l-37 -127l-79 -150l-59 -57l-71 -39l-42 -17l-94 -20h-110l-58 21l-39 -88l-32 -34l-50 -8l-51 17l-6 8l6 42l52 113 l-51 36l-107 119l-51 122zM242 424l31 -127l25 -57l34 -45l43 -36l41 88l25 39l74 192l28 37l108 235l-25 8l-31 5l-76 -8l-28 -11l-68 -14l-29 -12l-67 -56l-32 -51l-19 -23l-23 -56l-6 -37l3 -37zM483 103l2 -1l76 -9l65 15l85 39l88 74l34 51l34 87l5 34l-8 110l-9 31 l-51 114l-57 44z" />
<glyph unicode="&#xf9;" d="M266 368l9 -130l20 -94l22 -51l96 -90l48 -28l40 -8l54 8l31 -5l195 28l31 -6l23 -14l36 -3l26 12l22 30l-2 20l8 59l-6 289l15 133l-6 200l-14 62l-14 23l-20 17l-31 3l-26 -11l-20 -17l-14 -63l6 -212l-9 -28l6 -201l-8 -65l-31 -42l-68 -45l-111 -40h-31l-56 17 l-37 37l-25 48l-12 62l-5 201l5 34l-8 65l5 164l-5 31l-23 54l-20 16l-33 6l-26 -11l-17 -20l-11 -25l-6 -34l6 -337zM421 1227l290 -263l84 95l-290 262z" />
<glyph unicode="&#xfa;" d="M266 368l9 -130l20 -94l22 -51l96 -90l48 -28l40 -8l54 8l31 -5l195 28l31 -6l23 -14l36 -3l26 12l22 30l-2 20l8 59l-6 289l15 133l-6 200l-14 62l-14 23l-20 17l-31 3l-26 -11l-20 -17l-14 -63l6 -212l-9 -28l6 -201l-8 -65l-31 -42l-68 -45l-111 -40h-31l-56 17 l-37 37l-25 48l-12 62l-5 201l5 34l-8 65l5 164l-5 31l-23 54l-20 16l-33 6l-26 -11l-17 -20l-11 -25l-6 -34l6 -337zM432 1082l290 262l84 -94l-290 -263z" />
<glyph unicode="&#xfb;" d="M244 368l9 -130l20 -94l22 -51l96 -90l48 -28l40 -8l54 8l31 -5l195 28l31 -6l23 -14l36 -3l26 12l22 30l-2 20l8 59l-6 289l15 133l-6 200l-14 62l-14 23l-20 17l-31 3l-26 -11l-20 -17l-14 -63l6 -212l-9 -28l6 -201l-8 -65l-31 -42l-68 -45l-111 -40h-31l-56 17 l-37 37l-25 48l-12 62l-5 201l5 34l-8 65l5 164l-5 31l-23 54l-20 16l-33 6l-26 -11l-17 -20l-11 -25l-6 -34l6 -337zM274 1032q0 -42 42 -42q13 0 36 17l220 169l221 -169q23 -17 35 -17q43 0 43 42q0 21 -28 42l-271 206l-270 -206q-28 -21 -28 -42z" />
<glyph unicode="&#xfc;" d="M244 368l9 -130l20 -94l22 -51l96 -90l48 -28l40 -8l54 8l31 -5l195 28l31 -6l23 -14l36 -3l26 12l22 30l-2 20l8 59l-6 289l15 133l-6 200l-14 62l-14 23l-20 17l-31 3l-26 -11l-20 -17l-14 -63l6 -212l-9 -28l6 -201l-8 -65l-31 -42l-68 -45l-111 -40h-31l-56 17 l-37 37l-25 48l-12 62l-5 201l5 34l-8 65l5 164l-5 31l-23 54l-20 16l-33 6l-26 -11l-17 -20l-11 -25l-6 -34l6 -337zM290 1156q0 -33 24 -57t57 -24q34 0 58 23.5t24 57.5t-24 58t-58 24t-57.5 -24t-23.5 -58zM719 1156q0 -34 23.5 -57.5t57.5 -23.5t58 23.5t24 57.5 t-24 58t-58 24t-57.5 -24t-23.5 -58z" />
<glyph unicode="&#xfd;" d="M233 795l3 -29l11 -31l6 -34l17 -25l19 -62l63 -102l81 -207l20 -19l77 -173l8 -31l3 -39l-6 -34l-34 -90l-5 -34l-71 -178v-37l11 -28l29 -14l31 5l22 20l17 23l11 31l17 22l68 181l14 26l6 36l14 28l20 60l17 25l119 334l31 53l104 266l11 48l-2 20l-14 28l-29 11 l-31 -11l-42 -42l-45 -116l-31 -51l-32 -96l-42 -79l-23 -99l-33 -51l-26 -14l-34 8l-31 48l-223 478l-23 20l-34 8l-22 -17zM432 1082l290 262l84 -94l-290 -263z" />
<glyph unicode="&#xff;" d="M216 795l3 -29l11 -31l6 -34l17 -25l19 -62l63 -102l81 -207l20 -19l77 -173l8 -31l3 -39l-6 -34l-34 -90l-5 -34l-71 -178v-37l11 -28l29 -14l31 5l22 20l17 23l11 31l17 22l68 181l14 26l6 36l14 28l20 60l17 25l119 334l31 53l104 266l11 48l-2 20l-14 28l-29 11 l-31 -11l-42 -42l-45 -116l-31 -51l-32 -96l-42 -79l-23 -99l-33 -51l-26 -14l-34 8l-31 48l-223 478l-23 20l-34 8l-22 -17zM295 1147q0 -33 24 -57t57 -24q34 0 58 23.5t24 57.5t-24 58t-58 24t-57.5 -24t-23.5 -58zM724 1147q0 -34 23.5 -57.5t57.5 -23.5t58 23.5 t24 57.5t-24 58t-58 24t-57.5 -24t-23.5 -58z" />
<glyph unicode="&#x152;" d="M-15 635l17 -277l20 -87l82 -133l113 -99l76 -31l161 -19l109 16l-1 10l17 -10l70 -14l60 3l62 -11l320 22l36 14l17 34l-11 40l-37 23l-102 14l-79 -6l-96 6l-29 5l-19 -8l-77 20l-25 22l-14 79l3 136l22 127l17 34l37 12l156 8l45 6l42 -3l34 14l23 31q-2 24 -12 40 l-22 25l-34 17l-45 6l-43 -6l-45 6h-65l-74 25l-25 23l-14 37l-6 82l6 8l-6 34l9 88l11 36l23 31l31 17l81 6l12 -3l42 9l186 -3l79 14l28 23l6 39l-17 31l-34 20l-37 11l-140 15l-102 -12l-65 12l-107 2l-37 -14l-5 -1l15 18h-276l-28 3l-153 -63l-93 -118l-54 -108z M137 531l12 248l28 130l57 105l93 68l153 43l51 8l8 -172l-11 -54l2 -48l-19 -79l11 -136l-14 -127l8 -37l-17 -79l6 -42l2 -232l-2 -1l-93 -2l-48 5l-37 14l-68 40l-76 82l-17 37l-23 138l3 9z" />
<glyph unicode="&#x153;" d="M-31 433l7 -104l39 -121l83 -119l55 -47l108 -51l64 -8l72 20l32 17l56 38l47 57l26 67l44 -90l31 -37l106 -63l53 -12h90l71 25l17 17l23 9l18 14l51 52l38 75l4 33l-2 31l-16 20l-28 -6l-81 -95l-64 -38l-50 -14h-31l-75 23l-23 12l-69 70l-38 70l-7 30l4 32l17 19 l48 20l217 17l27 -6l143 9l19 14l18 20l12 25l6 71l-9 67l-9 28l-27 45h-19l-2 14l4 28l-8 29l-44 62l-17 17l-67 36l-24 8l-133 15q-12 -8 -21 -12l-53 -11l-42 -26l-17 -15l-23 -12l-55 -94l-39 55l-27 20l-49 50l-28 22l-71 34l-100 -3l-16 3l-21 -5l-70 -51l-76 -73 l-41 -60l-37 -124zM77 433l6 34l-2 37l5 37l18 55l14 23l26 51l52 55l22 12l29 15l22 11l44 8l25 -5l48 -20l91 -78l41 -68l14 -75l-7 -112v-70l-19 -41l-7 -20l-27 -51l-69 -73l-65 -40l-36 -15l-60 9l-60 57l-35 36l-26 45l-20 56zM633 573l8 40l16 28l39 45l69 54l30 14 l63 -3l30 -8l51 -32l38 -47l42 -101l-2 -31l-21 -20l-39 -11l-59 8l-33 -5l-102 14l-29 11l-56 6l-31 8z" />
<glyph unicode="&#x178;" d="M209 1128l5 -31l292 -435l39 -113v-71l-6 -54l6 -22l-11 -54l11 -65v-141l-6 -34l15 -63l34 -42l28 -11l25 14l14 22l26 280l-12 215l-5 31l25 51l77 113l11 28l169 252l34 79l12 65l-12 29l-25 14l-31 -6l-23 -17l-34 -42l-59 -96l-34 -43l-11 -25l-108 -159l-22 -17 l-26 -11l-34 6l-19 17l-187 311l-73 76l-31 11l-29 -8l-20 -20zM284 1414q0 -33 24 -57t57 -24q34 0 58 23.5t24 57.5t-24 58t-58 24t-57.5 -24t-23.5 -58zM713 1414q0 -34 23.5 -57.5t57.5 -23.5t58 23.5t24 57.5t-24 58t-58 24t-57.5 -24t-23.5 -58z" />
<glyph unicode="&#x2000;" horiz-adv-x="856" />
<glyph unicode="&#x2001;" horiz-adv-x="1712" />
<glyph unicode="&#x2002;" horiz-adv-x="856" />
<glyph unicode="&#x2003;" horiz-adv-x="1712" />
<glyph unicode="&#x2004;" horiz-adv-x="570" />
<glyph unicode="&#x2005;" horiz-adv-x="428" />
<glyph unicode="&#x2006;" horiz-adv-x="285" />
<glyph unicode="&#x2007;" horiz-adv-x="285" />
<glyph unicode="&#x2008;" horiz-adv-x="214" />
<glyph unicode="&#x2009;" horiz-adv-x="342" />
<glyph unicode="&#x200a;" horiz-adv-x="95" />
<glyph unicode="&#x2010;" d="M168 550l14 -28q19 -21 40 -26l116 -22l231 3l68 8l198 -8l28 5l42 20l28 52l-19 45q-21 18 -40 22l-62 15l-537 8l-33 -3l-48 -17l-20 -45z" />
<glyph unicode="&#x2011;" d="M168 550l14 -28q19 -21 40 -26l116 -22l231 3l68 8l198 -8l28 5l42 20l28 52l-19 45q-21 18 -40 22l-62 15l-537 8l-33 -3l-48 -17l-20 -45z" />
<glyph unicode="&#x2012;" d="M168 550l14 -28q19 -21 40 -26l116 -22l231 3l68 8l198 -8l28 5l42 20l28 52l-19 45q-21 18 -40 22l-62 15l-537 8l-33 -3l-48 -17l-20 -45z" />
<glyph unicode="&#x2013;" horiz-adv-x="1359" d="M168 550l19 -28q25 -21 53 -26l156 -22l309 3l91 8l265 -8l37 5l57 20l37 52l-25 45q-29 18 -54 22l-83 15l-719 8l-44 -3l-64 -17l-27 -45z" />
<glyph unicode="&#x2014;" horiz-adv-x="2383" d="M168 550l37 -28q51 -21 108 -26l310 -22l619 3l182 8l530 -8l75 5l112 20l75 52l-51 45q-56 18 -107 22l-166 15l-1438 8l-88 -3l-128 -17l-54 -45z" />
<glyph unicode="&#x2018;" d="M350 784l9 -22q15 -21 34 -28l8 -3l42 8l40 20l62 59l37 23l101 138l20 39l20 74l-14 73l-17 45l-26 34l-36 23l-48 11h-62l-40 -20l-34 -28l-22 -37l-15 -56l6 -43l14 -48l23 -47l-9 -40l-19 -39l-54 -68l-17 -42z" />
<glyph unicode="&#x2019;" d="M350 784l9 -22q15 -21 34 -28l8 -3l42 8l40 20l62 59l37 23l101 138l20 39l20 74l-14 73l-17 45l-26 34l-36 23l-48 11h-62l-40 -20l-34 -28l-22 -37l-15 -56l6 -43l14 -48l23 -47l-9 -40l-19 -39l-54 -68l-17 -42z" />
<glyph unicode="&#x201a;" d="M364 -218l9 -22q15 -21 34 -28l8 -3l42 8l40 20l62 59l37 23l101 138l20 39l20 74l-14 73l-17 45l-26 34l-36 23l-48 11h-62l-40 -20l-34 -28l-22 -37l-15 -56l6 -43l14 -48l23 -47l-9 -40l-19 -39l-54 -68l-17 -42z" />
<glyph unicode="&#x201c;" d="M150 1092l14 73l17 45l26 34l36 23l48 11h62l40 -20l34 -28l22 -37l15 -56l-6 -43l-14 -48l-23 -47l9 -40l19 -39l54 -68l17 -42l3 -26l-9 -22q-15 -21 -34 -28l-8 -3l-42 8l-40 20l-62 59l-37 23l-101 138l-20 39zM578 1092l14 73l17 45l26 34l36 23l48 11h62l40 -20 l34 -28l22 -37l15 -56l-6 -43l-14 -48l-23 -47l9 -40l19 -39l54 -68l17 -42l3 -26l-9 -22q-15 -21 -34 -28l-8 -3l-42 8l-40 20l-62 59l-37 23l-101 138l-20 39z" />
<glyph unicode="&#x201d;" d="M140 787l9 -22q15 -21 34 -28l8 -3l42 8l40 20l62 59l37 23l101 138l20 39l20 74l-14 73l-17 45l-26 34l-36 23l-48 11h-62l-40 -20l-34 -28l-22 -37l-15 -56l6 -43l14 -48l23 -47l-9 -40l-19 -39l-54 -68l-17 -42zM568 787l9 -22q15 -21 34 -28l8 -3l42 8l40 20l62 59 l37 23l101 138l20 39l20 74l-14 73l-17 45l-26 34l-36 23l-48 11h-62l-40 -20l-34 -28l-22 -37l-15 -56l6 -43l14 -48l23 -47l-9 -40l-19 -39l-54 -68l-17 -42z" />
<glyph unicode="&#x201e;" d="M184 -218l9 -22q15 -21 34 -28l8 -3l42 8l40 20l62 59l37 23l101 138l20 39l20 74l-14 73l-17 45l-26 34l-36 23l-48 11h-62l-40 -20l-34 -28l-22 -37l-15 -56l6 -43l14 -48l23 -47l-9 -40l-19 -39l-54 -68l-17 -42zM612 -218l9 -22q15 -21 34 -28l8 -3l42 8l40 20l62 59 l37 23l101 138l20 39l20 74l-14 73l-17 45l-26 34l-36 23l-48 11h-62l-40 -20l-34 -28l-22 -37l-15 -56l6 -43l14 -48l23 -47l-9 -40l-19 -39l-54 -68l-17 -42z" />
<glyph unicode="&#x2022;" d="M387 653l17 -54l16 -23l49 -33l28 -11l36 -6l71 6l31 8l26 17l19 22l26 54l8 34l-11 67l-28 54l-20 23l-23 17l-65 17l-39 2l-28 -11l-51 -31l-20 -20l-17 -25l-11 -28z" />
<glyph unicode="&#x2026;" d="M37 73q0 -43 29.5 -73t73.5 -30q43 0 72.5 30t29.5 73q0 42 -30 72t-72 30q-44 0 -73.5 -29.5t-29.5 -72.5zM447 73q0 -43 29 -73t73 -30q43 0 73 30t30 73t-30 72.5t-73 29.5t-72.5 -30t-29.5 -72zM859 73q0 -43 29 -73t73 -30q43 0 73 30t30 73t-30 72.5t-73 29.5 q-44 0 -73 -29.5t-29 -72.5z" />
<glyph unicode="&#x202f;" horiz-adv-x="342" />
<glyph unicode="&#x2039;" d="M283 434l448 -410q26 -23 44 -23q42 0 42 42q0 16 -23 42l-313 349l313 350q23 26 23 41q0 43 -42 43q-19 0 -44 -24z" />
<glyph unicode="&#x203a;" d="M283 43q0 -42 42 -42q17 0 43 23l449 410l-449 410q-25 24 -43 24q-42 0 -42 -42q0 -17 22 -42l313 -350l-313 -349q-22 -25 -22 -42z" />
<glyph unicode="&#x205f;" horiz-adv-x="428" />
<glyph unicode="&#x20ac;" d="M56 512l5 -29l32 -25l42 -11l49 -6l64 8l7 -1l4 -91l18 -87l75 -134l103 -99l71 -31l85 -22l124 11l78 19l63 40l54 48l65 90l17 35l18 62v23l-18 37l-31 28l-36 -6l-23 -28l-16 -37l-58 -99l-87 -66l-41 -17l-86 -2l-43 5l-34 14l-62 40l-71 83l-15 37l-19 149l91 -9 l129 14l16 -6h34l38 15l29 25l8 28l-8 14l-33 20l-40 14l-272 -4l8 147h290l35 17l26 28l3 28l-13 14l-34 20l-44 9h-245l10 50l54 140l85 69l75 25l51 9l117 -9l33 -17l26 -22l45 -61l31 -73l20 -31l29 -23l39 -11l29 22l4 23l-20 110l-34 72l-47 57l-119 82l-78 25l-41 8 l-137 -19l-26 3l-141 -63l-85 -118l-49 -109l-13 -139h-96l-46 -6l-42 -11q-16 -16 -19 -37l20 -37l32 -20l40 -17h66l32 9l-10 -70l6 -73l-27 -2l-97 14l-35 -20l-29 -25z" />
<glyph unicode="&#xe000;" horiz-adv-x="845" d="M0 0v845h845v-845h-845z" />
</font>
</defs>
</svg>
